<svg xmlns="http://www.w3.org/2000/svg" xmlns:xlink="http://www.w3.org/1999/xlink" width="20" height="20"><defs><path id="7ttka" d="M693.124 879l4.876 4.5v11.25c0 1.243-1.023 2.25-2.286 2.25h-11.428c-1.263 0-2.286-1.007-2.286-2.25v-13.5c0-1.243 1.023-2.25 2.286-2.25zm-.793 2H684v14h12v-10.656z"/><path id="7ttkb" d="M686 889a1 1 0 011-1h6a1 1 0 011 1v3a1 1 0 01-1 1h-6a1 1 0 01-1-1z"/><path id="7ttkc" d="M686 885a1 1 0 011-1h6a1 1 0 010 2h-6a1 1 0 01-1-1z"/></defs><use fill="#007aff" xlink:href="#7ttka" transform="translate(-680 -878)"/><use fill="#d8d8d8" xlink:href="#7ttkb" transform="translate(-680 -878)"/><use fill="#d8d8d8" xlink:href="#7ttkc" transform="translate(-680 -878)"/></svg>