<svg width="32" height="32" xmlns="http://www.w3.org/2000/svg"><g id="goto-button" fill="#F5A623" stroke="none"><path d="M16 32c8.837 0 16-7.163 16-16S24.837 0 16 0 0 7.163 0 16s7.163 16 16 16z" id="Oval" fill-opacity=".098"/><path d="M15 6H3.135l3.633-4.36A1 1 0 105.232.36l-5 6c-.039.047-.059.102-.088.154-.024.042-.053.078-.071.124a.985.985 0 00-.072.358L0 7l.001.004c0 .122.027.243.072.358.018.046.047.082.071.124.029.052.049.107.088.154l5 6a.999.999 0 101.536-1.28L3.135 8H15a1 1 0 000-2" transform="matrix(-1 0 0 1 24 9)" id="Icon-color"/></g></svg>