<svg width="65" height="65" xmlns="http://www.w3.org/2000/svg"><g id="sticker" transform="translate(.5 .5)" fill="#FFF" stroke="none"><path d="M0 0h64v64H0V0z" id="Rectangle" fill-opacity="0"/><path d="M61.995 30.336l-4.182-4.437 2.219-5.718c.256-.597-.085-1.365-.683-1.621l-5.546-2.475-.171-6.058c0-.683-.597-1.195-1.28-1.28l-6.059-.171-2.474-5.547c-.256-.597-1.024-.938-1.622-.682L36.48 4.565 32.043.384a1.237 1.237 0 00-1.792 0l-4.438 4.181-5.717-2.218c-.597-.256-1.365.085-1.621.682L16 8.576l-6.059.17c-.682 0-1.194.598-1.28 1.28l-.17 6.06-5.547 2.474c-.597.256-.939 1.024-.683 1.621L4.48 25.9.384 30.336a1.237 1.237 0 000 1.792l4.181 4.437-2.218 5.718c-.256.597.085 1.365.682 1.621l5.547 2.475.17 6.058c0 .683.598 1.195 1.28 1.28l6.06.171 2.474 5.547c.256.597 1.024.938 1.621.682L25.9 57.9l4.437 4.181c.256.256.597.341.853.341s.598-.085.854-.341l4.437-4.181 5.718 2.218c.597.256 1.194 0 1.535-.512l18.432-27.562c.256-.683.256-1.28-.17-1.707zm-19.883 26.88l-5.461-2.133c-.427-.171-1.024-.086-1.366.256l-4.096 3.925-4.096-3.925a1.223 1.223 0 00-.853-.342c-.17 0-.341 0-.427.086l-5.29 2.048-2.304-5.206c-.171-.426-.683-.768-1.11-.768l-5.717-.17-.17-5.718c0-.512-.342-.938-.769-1.109l-5.205-2.304 2.048-5.29c.17-.427.085-1.025-.256-1.366l-3.925-4.01 3.925-4.097c.341-.341.427-.853.256-1.365l-2.048-5.29 5.205-2.305c.427-.17.768-.682.768-1.109l.171-5.717 5.717-.171c.512 0 .939-.341 1.11-.768l2.304-5.205 5.29 2.048c.427.17 1.024.085 1.366-.256l4.096-3.926 4.096 3.926c.341.341.853.426 1.365.256l5.29-2.048 2.305 5.205c.17.427.682.768 1.109.768l5.717.17.171 5.718c0 .512.341.939.768 1.11l5.205 2.303-2.218 5.291c-.171.427-.086 1.024.256 1.365l4.01 4.267-.085.17-5.973.513c-.512.085-.939.341-1.11.853l-1.621 4.437-6.059 1.366c-.682.17-1.109.768-.938 1.45l.695 4.172c-.266-.12-.546-.374-.546-.907v-.679a1.018 1.018 0 00-2.034 0v2.712c0 .562.455 1.017 1.016 1.017h1.708l-3.229 2.987c-.341.341-.512.853-.341 1.365l1.877 5.717-.597.683zM31.17 32.227H16.933a1.018 1.018 0 01-1.017-1.017V16.974c0-.561.456-1.017 1.017-1.017H31.17c.561 0 1.017.456 1.017 1.017V31.21c0 .562-.456 1.017-1.017 1.017zm4.407-9.151h.338s1.017 0 1.017-1.018v-.677c0-1.017-1.017-1.017-1.017-1.017h-.338a1.016 1.016 0 110-2.034h.338s1.017 0 1.017-1.017v-.339a1.018 1.018 0 012.034 0v.339c0 1.017 1.017 1.017 1.017 1.017h.679s1.016 0 1.016-1.017v-.339a1.017 1.017 0 112.034 0v.339c0 1.017 1.017 1.017 1.017 1.017a1.017 1.017 0 110 2.034h-4.746s-1.017 0-1.017 1.017v2.712c0 .561-.455 1.016-1.016 1.016h-2.373a1.016 1.016 0 110-2.033zM18.628 17.99a.677.677 0 00-.677.678v10.847c0 .374.303.678.677.678h10.847a.678.678 0 00.678-.678V18.669a.678.678 0 00-.678-.678H18.628zm8.135 9.491H21.34a.677.677 0 01-.677-.677V21.38c0-.375.303-.678.677-.678h5.423c.375 0 .679.303.679.678v5.424a.678.678 0 01-.679.677zm15.931-4.406h2.035a1.017 1.017 0 010 2.033h-2.035a1.016 1.016 0 110-2.033zm-.499 6.795a.954.954 0 01.16-.016h.678s.679 0 .679 1.017v.339a1.017 1.017 0 002.033 0v-2.034c0-.058-.007-.114-.016-.17a1.016 1.016 0 00-1-1.186h-2.373s-1.017 0-1.017-1.017v-.339a1.017 1.017 0 10-2.034 0v.34c0 1.016-1.016 1.016-1.016 1.016h-2.712c-.562 0-1.017.455-1.017 1.017 0 .119.024.232.062.34a.994.994 0 00-.062.338v1.695c0 .561.455 1.017 1.017 1.017h1.017v-1.356c0-.562.455-1.017 1.016-1.017h.679a1.11 1.11 0 01.252.035c.438.112.764.507.764.982v3.39h2.034v-3.39a1.015 1.015 0 01.856-1.001zm1.368 20.86l.938 2.986 13.056-19.541-3.157.256-1.536 4.267c-.17.426-.512.768-.939.853l-5.546 1.28.938 5.632c.086.427-.085.939-.426 1.195l-3.328 3.072zm.149-15.114a1.018 1.018 0 00-2.034 0v.339a1.016 1.016 0 102.034 0v-.339zm-20 1.018s-1.016 0-1.016 1.016v.677c0 .562-.456 1.018-1.017 1.018h-1.695v6.101a1.017 1.017 0 11-2.033 0v-3.05c0-1.018-1.017-1.018-1.017-1.018a1.017 1.017 0 110-2.033s1.017 0 1.017-1.017v-1.694h-1.017a1.017 1.017 0 010-2.035h9.152a1.017 1.017 0 110 2.035h-2.373zm13.22 1.016c0-1.016 1.017-1.016 1.017-1.016a1.017 1.017 0 100-2.035h-7.117a1.016 1.016 0 100 2.035h.338s1.017 0 1.017 1.016v.677c0 .562.455 1.018 1.017 1.018h2.712c.561 0 1.017-.456 1.017-1.017v-.678zm3.39-.678h-1.016v1.356c0 .561-.456 1.017-1.017 1.017h-1.356v1.017c0 .561.455 1.016 1.017 1.016h2.372c.561 0 1.016-.455 1.016-1.016V37.99c0-.562-.455-1.017-1.016-1.017zm-7.118 4.745c-.561 0-1.017.455-1.017 1.017v.678c0 1.017-1.017 1.017-1.017 1.017h-.34s-1.016 0-1.016-1.017V41.38h1.017a1.018 1.018 0 000-2.034h-7.119a1.016 1.016 0 100 2.034h4.068v2.033c0 1.017-1.016 1.017-1.016 1.017h-.678a1.017 1.017 0 100 2.035h7.118c.562 0 1.016-.457 1.016-1.018v-2.712c0-.562-.454-1.017-1.016-1.017z" transform="translate(1 1)" id="Combined-Shape" fill-rule="evenodd"/></g></svg>