<svg width="65" height="65" xmlns="http://www.w3.org/2000/svg"><g id="Group-24" transform="translate(.5 .5)" fill="#FFF" stroke="none"><path d="M0 0h64v64H0V0z" id="Rectangle" fill-opacity="0"/><path d="M6.236 18.71a1 1 0 01.964-1.034l.028-.001a.987.987 0 011.01.965l.655 18.326a3.9 3.9 0 11-7.786 0L1.9 14.888A4.973 4.973 0 010 11V1a1 1 0 012 0v5h2V1a1 1 0 012 0v5h2V1a1 1 0 012 0v10a4.958 4.958 0 01-6.14 4.858l-.757 21.18c-.02.514.172 1.014.531 1.383a1.938 1.938 0 002.726 0c.359-.369.551-.869.531-1.383l-.655-18.327v-.001zM55 16a5.006 5.006 0 005-5V7a5 5 0 00-5-5 5 5 0 00-5 5v4a4.975 4.975 0 001.9 3.889l-.788 22.077a3.895 3.895 0 107.784 0l-.659-18.326a.988.988 0 00-1.01-.965l-.025.001a1 1 0 00-.963 1.035l.655 18.327a1.879 1.879 0 01-.531 1.383 1.938 1.938 0 01-2.726 0 1.879 1.879 0 01-.531-1.383l.756-21.181A5.01 5.01 0 0055 16zm-43 6c.012-9.937 8.063-17.989 18-18a17.788 17.788 0 0111.312 4.008 1 1 0 001.258-1.555C33.986-.493 21.398.835 14.453 9.418a19.994 19.994 0 000 25.152 1.001 1.001 0 001.555-1.258A17.794 17.794 0 0112 22zM52 7a3 3 0 116 0v4a3 3 0 11-6 0V7zM17.222 31.121l1.414 1.415s.012.007.016.011a1.985 1.985 0 00.57 1.574l1.415 1.415a2 2 0 002.827 0l2.829 2.828c.78.78 2.047.78 2.828 0l1.387-1.388a15.096 15.096 0 0013.506-9.618 1 1 0 00-1.867-.715 13.101 13.101 0 01-9.34 8.036l.557-.557a1.999 1.999 0 000-2.829l-2.828-2.829a2.003 2.003 0 000-2.828l-1.415-1.414c-.007-.006-.013-.012-.021-.017a1.967 1.967 0 00-.564-1.569l-.824-.823a5.847 5.847 0 002.072-2.993l.68-2.269a5.856 5.856 0 00-3.543-7.167 12.636 12.636 0 016.895.2 2.986 2.986 0 00-1.206 5.232c.144.612.453 1.173.89 1.624v.058c.003.858.284 1.693.8 2.378a2.96 2.96 0 00-.836.586 3.008 3.008 0 00-.586 3.415l-.828.828a1 1 0 001.414 1.414l1.414-1.414a.999.999 0 000-1.414 1 1 0 011.39-1.439l.024.025a1 1 0 001.414 0 1.023 1.023 0 011.414 0 1 1 0 010 1.414v.001a1 1 0 000 1.414 1 1 0 010 1.414v.001a1.023 1.023 0 01-1.414 0 .999.999 0 00-1.414 0l-1.414 1.414a1 1 0 101.39 1.438l.85-.85a3.066 3.066 0 003.416-.588 3 3 0 00.709-3.11A4 4 0 0044.5 19.5c0-.397-.061-.79-.181-1.169a3.994 3.994 0 00-1.918-6.73A4.009 4.009 0 0038.5 8.5a3.92 3.92 0 00-1.443.284C29.76 4.88 20.68 7.627 16.775 14.923A14.983 14.983 0 0015.393 25.4a1.001 1.001 0 001.202.745 1 1 0 00.745-1.2 12.832 12.832 0 01.429-7.31c.076.88.349 1.732.8 2.492a5.806 5.806 0 004.044 2.778l-5.388 5.387a2 2 0 00-.003 2.83zM5 14a3 3 0 003-3V8H2v3a3 3 0 003 3zm38.993-3.312a1 1 0 011.554-1.258 19.99 19.99 0 010 25.15c-6.945 8.584-19.533 9.912-28.116 2.967a.999.999 0 111.257-1.555A17.8 17.8 0 0030 40c9.937-.011 17.989-8.063 18-18a17.798 17.798 0 00-4.007-11.312zM41.5 13.5a1 1 0 01-1-1 1.99 1.99 0 00-3.74-.957.997.997 0 01-1.568.24 1.001 1.001 0 00-1.692.717c0 .361.2.693.519.864.283.161.47.451.5.776a1.5 1.5 0 00.619 1.082c.31.22.47.598.41.974l-.022.132a.992.992 0 00-.026.172 2 2 0 002 2c.165.004.326.05.469.134a3.066 3.066 0 012.566.832 2.97 2.97 0 01.855 1.8 1.942 1.942 0 00.841-2.742.998.998 0 01.334-1.339A1.994 1.994 0 0041.5 13.5zm-21.285 1.784a3.835 3.835 0 00.07 3.823A3.834 3.834 0 0023.609 21h.557a3.84 3.84 0 003.706-2.754l.68-2.269a3.866 3.866 0 00-7.1-2.962l-1.237 2.27zm17.078-.577a.999.999 0 101.414-1.414.999.999 0 10-1.414 1.414zm4.414 2a1 1 0 10-1.414-1.415 1 1 0 001.414 1.415zM27 18a3 3 0 10-6 0 3 3 0 006 0zm-3 1a1 1 0 110-2 1 1 0 010 2zm1.508 3.83c.106-.025.212-.048.316-.078l1.076 1.062a2.01 2.01 0 00-.6.407l-6.571 6.571-1.086-1.086 6.865-6.877zm3.614 4.22a2 2 0 000 2.828l2.828 2.83-4.243 4.242-2.828-2.828a2 2 0 00-2.828 0h-.001l-1.4-1.405c.015-.019.027-.042.04-.062l7.016-7.015 1.416 1.41zm6.171 4.657a.999.999 0 111.414-1.414.999.999 0 11-1.414 1.414zM24.172 32a.999.999 0 111.414-1.414A1 1 0 0124.173 32zm3.535.707a1 1 0 101.415-1.415 1 1 0 00-1.415 1.415z" transform="translate(2 11)" id="Combined-Shape" fill-rule="evenodd"/></g></svg>