<svg width="65" height="65" xmlns="http://www.w3.org/2000/svg"><g id="acquiring" transform="translate(.5 .5)" fill="#FFF" stroke="none"><path d="M0 0h64v64H0V0z" id="Rectangle" fill-opacity="0"/><path d="M3.875 51.27H6.3v9.46A3.285 3.285 0 009.59 64h16.04a3.285 3.285 0 003.29-3.27v-9.46h2.455a2.715 2.715 0 002.76-2.62L35.22 5.8a1.005 1.005 0 00-.03-.265L34.435 2.5a3.325 3.325 0 00-3.15-2.5H3.935a3.405 3.405 0 00-3.15 2.5L.03 5.53a1.005 1.005 0 00-.03.265L1.11 48.65a2.715 2.715 0 002.765 2.62zm-.025-2h27.525a.735.735 0 00.765-.67l1.08-42.72-.725-2.91a1.335 1.335 0 00-1.21-.97H3.93a1.395 1.395 0 00-1.22 1L2 5.875 3.085 48.6a.735.735 0 00.765.67zm2.49-24.09h22.535a1 1 0 001-1V5.77a1 1 0 00-1-1H6.34a1 1 0 00-1 1v18.41a1 1 0 001 1zm29.63 15.025a1 1 0 002 .045l.78-34.305a1 1 0 00-2-.045l-.78 34.305zM27.876 23.18H7.335L7.34 6.77h20.535v16.41zm-12.97-3.71a1 1 0 00.706.29 1 1 0 00.7-.26l8.5-8.5a1.013 1.013 0 00-1.435-1.43l-7.765 7.775-3.385-3.38a1 1 0 10-1.415 1.415l4.095 4.09zM6.34 32.5h4.775a1 1 0 000-2H7.34V29a1 1 0 00-2 0v2.5a1 1 0 001 1zm13.656 0H15.22a1 1 0 01-1-1V29a1 1 0 012 0v1.5h3.775a1 1 0 010 2zm4.11 0h4.77a1 1 0 000-2h-3.77V29a1 1 0 00-2 0v2.5a1 1 0 001 1zm-12.99 6.53H6.34a1 1 0 01-1-1v-2.5a1 1 0 112 0v1.5h3.775a1 1 0 010 2zm4.105 0h4.775a1 1 0 000-2H16.22v-1.5a1 1 0 00-2 0v2.5a1 1 0 001 1zm13.654 0h-4.77a1 1 0 01-1-1v-2.5a1 1 0 112 0v1.5h3.77a1 1 0 010 2zM6.34 45.555h4.775a1 1 0 000-2H7.34v-1.5a1 1 0 10-2 0v2.5a1 1 0 001 1zm13.656 0H15.22a1 1 0 01-1-1v-2.5a1 1 0 112 0v1.5h3.775a1 1 0 010 2zm4.11 0h4.77a1 1 0 000-2h-3.77v-1.5a1 1 0 00-2 0v2.5a1 1 0 001 1zm-13.38 5.715V62H9.59a1.285 1.285 0 01-1.29-1.27v-9.46h2.425zM14.376 62V51.27h-1.65V62h1.65zm11.254 0h-9.255V51.27H26.92v9.46A1.28 1.28 0 0125.63 62z" transform="translate(12)" id="Combined-Shape" fill-rule="evenodd"/></g></svg>