<svg width="24" height="24" xmlns:xlink="http://www.w3.org/1999/xlink" xmlns="http://www.w3.org/2000/svg"><defs><clipPath id="clip_1"><use xlink:href="#artboard_1" clip-rule="evenodd"/></clipPath><path id="artboard_1" d="M0 0h24v24H0z"/></defs><g id="Icons/Allergy/Nuts" clip-path="url(#clip_1)"><path d="M11.568 2.228C12.818.711 15.175.244 17.041.244c1.76 0 4.126.454 5.35 1.84.633.715 1.043 1.563 1.289 2.412.664 2.287.32 4.788-1.302 6.6-1.377 1.538-3.492 2.61-5.338 3.474-1.699-.796-3.537-1.724-4.906-3.029-.697.803-1.54 1.419-2.747 1.814-1.962.644-4.327.515-6.356.34-1.166-1.67-2.466-3.66-2.89-5.68-.319-1.524-.076-2.743.472-3.97C1.394 2.299 3.151.48 5.074.088c2.124-.433 4.834.8 6.494 2.14zM10.45 4.334c.102-.323.228-.645.382-.959-1.154-.956-2.794-1.797-4.278-1.98l-.289.802 1.137.358L8.504 4.21l1.946.124zm-3.913-.626l1.209 1.817 2.177.138.212.195c-.173 1.623.134 3.3 1.093 4.647-.575.698-1.26 1.229-2.261 1.557-1.181.388-2.81.514-5.19.33-1.345-1.964-2.05-3.436-2.304-4.653-.25-1.195-.056-2.16.382-3.14.555-1.242 1.67-2.473 2.942-3.003l.2.116-.488 1.359 2.028.637zm7.559-.71l1.165-.26 1.78.882 1.78-.882 1.165.26.152-.842c-.872-.369-1.98-.553-3.096-.553-1.117 0-2.225.184-3.098.553l.152.841zm-1.341.215l.256 1.417 2.073-.462 1.957.969 1.956-.97 2.075.463.255-1.417h.235c.383.502.646 1.08.814 1.661.53 1.825.29 3.865-1.008 5.317-.83.925-2.176 1.85-4.327 2.878-2.15-1.03-3.497-1.952-4.326-2.878-1.3-1.452-1.54-3.494-1.009-5.319a5.05 5.05 0 01.814-1.66h.235z" transform="translate(0 5)" id="Fill-1" fill="#81858B" fill-rule="evenodd" stroke="none"/></g></svg>