<svg width="24" height="24" xmlns:xlink="http://www.w3.org/1999/xlink" xmlns="http://www.w3.org/2000/svg"><defs><clipPath id="mask_1"><use xlink:href="#path_1"/></clipPath><path d="M15.561 18.955c-.158 0-.317-.037-.463-.113L10 16.178l-5.098 2.664a1.002 1.002 0 01-1.448-1.057l.971-5.628-4.12-3.985a1.001 1.001 0 01.552-1.708l5.7-.828L9.104.51c.338-.68 1.453-.68 1.791 0l2.548 5.126 5.7.828a.998.998 0 01.552 1.708l-4.12 3.985.971 5.628a1 1 0 01-.985 1.17" transform="translate(2 2.046)" id="path_1"/></defs><g id="Icons/star-fill"><path d="M15.561 18.955c-.158 0-.317-.037-.463-.113L10 16.178l-5.098 2.664a1.002 1.002 0 01-1.448-1.057l.971-5.628-4.12-3.985a1.001 1.001 0 01.552-1.708l5.7-.828L9.104.51c.338-.68 1.453-.68 1.791 0l2.548 5.126 5.7.828a.998.998 0 01.552 1.708l-4.12 3.985.971 5.628a1 1 0 01-.985 1.17" transform="translate(2 2.046)" id="๐จ-Icon-ะกolor" fill="#007AFF" fill-rule="evenodd" stroke="none"/></g></svg>