<svg width="24" height="24" xmlns:xlink="http://www.w3.org/1999/xlink" xmlns="http://www.w3.org/2000/svg"><defs><clipPath id="clip_1"><use xlink:href="#artboard_1" clip-rule="evenodd"/></clipPath><path id="artboard_1" d="M0 0h24v24H0z"/></defs><g id="Icons/Allergy/crustaceans" clip-path="url(#clip_1)"><path d="M21.601 15.634l2.112 1.288a.599.599 0 01-.624 1.023l-2.112-1.288a1.336 1.336 0 00-.696-.196H18.4l-.048.71h.803a2.54 2.54 0 011.881.835l1.682 1.859a.599.599 0 11-.889.803L20.15 18.81a1.341 1.341 0 00-.993-.44h-.936a4.301 4.301 0 01-.215.681l.876.36c.619.253 1.11.728 1.385 1.337l.629 1.39a.599.599 0 11-1.092.493l-.628-1.39a1.4 1.4 0 00-.748-.722l-1.028-.421a4.38 4.38 0 01-3.45 1.69h-3.856a4.38 4.38 0 01-3.46-1.703l-1.06.434c-.334.137-.6.394-.748.722l-.628 1.39a.599.599 0 11-1.092-.494l.628-1.39a2.595 2.595 0 011.385-1.336l.913-.374a4.328 4.328 0 01-.209-.668h-.978c-.378 0-.74.161-.993.441L2.17 20.67a.598.598 0 11-.889-.804l1.682-1.86a2.541 2.541 0 011.88-.834h.846l-.048-.71H3.72a1.34 1.34 0 00-.697.196L.911 17.945a.595.595 0 01-.823-.2.6.6 0 01.2-.823l2.11-1.288c.399-.242.855-.37 1.321-.37h1.926c.017-.134.041-.265.07-.396-1.192-.227-2.141-.86-2.772-1.86a.6.6 0 01-.084-.22 1.895 1.895 0 01.002-.61c-1.644-2.531-1.472-5.02-.742-6.533.12-.247.309-.439.533-.562C2.53 2.576 4.275.988 5.892.372c1.945-.742 3.907-.349 4.773.955a.6.6 0 01-.451.929c-1.324.106-2.297.47-2.865 1.06.79-.255 1.606-.285 2.248-.066.533.183.928.525 1.143.991a.616.616 0 01-.452.869c-1.984.36-3.607 2.115-3.759 2.606l-.004.01c-.004.013-.01.026-.016.04-.008.018-.015.037-.024.054l-.02.032a.594.594 0 01-.037.055l-.008.012c-.693.843-.467 2.217-.244 2.852.414.84.945 1.175 1.335 1.418l.016.01a4.392 4.392 0 012.46-.758h.253v-.974a1.195 1.195 0 01-.766-1.113 1.195 1.195 0 012.388 0c0 .508-.319.941-.766 1.114v.973h1.85v-.973a1.195 1.195 0 01-.766-1.114 1.195 1.195 0 012.388 0c0 .508-.319.941-.766 1.114v.973h.254c.88 0 1.739.27 2.46.759l.015-.01c.39-.244.921-.578 1.335-1.418.223-.635.45-2.01-.244-2.852-.003-.004-.004-.009-.008-.013a.63.63 0 01-.037-.055l-.02-.031a.555.555 0 01-.024-.056c-.006-.013-.012-.026-.016-.039l-.004-.01c-.152-.491-1.775-2.246-3.76-2.606a.617.617 0 01-.45-.868c.214-.467.61-.81 1.142-.992.642-.22 1.457-.19 2.248.066-.568-.59-1.541-.954-2.865-1.06a.599.599 0 01-.45-.928C14.242.023 16.205-.37 18.15.372c1.616.616 3.36 2.204 3.239 4.712.224.123.414.314.533.561.73 1.512.902 4.002-.742 6.532.032.204.037.41.002.612a.607.607 0 01-.084.22c-.63 1-1.58 1.632-2.772 1.86.03.13.053.261.07.395h1.884c.466 0 .923.128 1.32.37zM8.628 1.308c-.659-.178-1.496-.127-2.31.183-1.293.493-2.575 1.683-2.466 3.576.642.267 1.304.754 2.007 1.477.6-.772 1.675-1.695 2.964-2.236-.494-.04-1.108.095-1.645.373a.95.95 0 01-1.1-.153.963.963 0 01-.226-1.102c.335-.76 1.089-1.667 2.776-2.118zm6.59 3c.495-.04 1.11.095 1.646.373a.95.95 0 001.1-.153.962.962 0 00.226-1.102c-.335-.76-1.089-1.667-2.776-2.118.66-.178 1.496-.127 2.31.183 1.293.493 2.575 1.683 2.466 3.576-.642.267-1.304.754-2.007 1.477-.6-.772-1.675-1.695-2.964-2.236zm5.284 6.619l.016.016c1.005-1.9.859-3.674.326-4.777-.014-.03-.053-.047-.082-.037-.569.204-1.213.695-1.92 1.46.491.88.502 1.933.362 2.759.483.05.933.246 1.298.579zM3.198 6.166c.014-.03.054-.047.082-.037.568.204 1.213.695 1.92 1.46-.491.88-.502 1.933-.362 2.759-.484.05-.933.246-1.298.579l-.016.016c-1.005-1.9-.859-3.674-.326-4.777zm7.808 3.188a.339.339 0 10-.677.002.339.339 0 00.677-.002zm2.368-.338a.338.338 0 11-.001.677.338.338 0 01.001-.677zm4.525 4.71a4.36 4.36 0 00-.466-.692c.41-.275.941-.705 1.384-1.496a1.11 1.11 0 01.88.275.912.912 0 01.315.668c-.486.703-1.195 1.12-2.113 1.245zM4.346 11.813a.912.912 0 00-.315.668c.485.703 1.194 1.12 2.112 1.245.132-.244.289-.476.467-.692a4.215 4.215 0 01-1.385-1.496 1.11 1.11 0 00-.88.275zm9.603 8.776h-3.856a3.189 3.189 0 01-3.173-2.967l-.107-1.59a3.148 3.148 0 01.85-2.385 3.149 3.149 0 012.324-1.008h4.069c.89 0 1.715.358 2.323 1.008.523.56.817 1.264.852 2.016a.591.591 0 00-.037.2.59.59 0 00.034.188l-.1 1.481a.6.6 0 00-.037.359 3.15 3.15 0 01-.342 1.015.593.593 0 00-.152.215c-.01.023-.014.047-.02.07a3.184 3.184 0 01-2.628 1.398z" transform="translate(0 1)" id="Fill-1" fill="#81858B" fill-rule="evenodd" stroke="none"/></g></svg>