<svg width="24" height="24" xmlns="http://www.w3.org/2000/svg"><g id="Icons/Seafood"><path d="M7.582 9.613c1.717-2.554 2.067-4.283 2.18-7.237C9.9.863 11-.158 12.453.02c.809.12 1.616.667 2.146 1.599.934 1.644 1.205 4.074.85 6.723h6.63a.8.8 0 01.32.068 2.67 2.67 0 011.582 2.137c.087.75-.142 1.559-.673 2.247.324 1.126.038 2.463-.867 3.593a.794.794 0 01-.117.118c.134 1.014-.18 2.139-.96 3.113a.81.81 0 01-.235.194c-.234.915-.739 1.778-1.767 2.617a.816.816 0 01-.514.185c-1.957-.008-3.494.002-4.726.01-2.039.015-3.241.023-4.126-.069-.71-.073-1.265-.245-1.742-.53a5.91 5.91 0 01-.631-.454 1.61 1.61 0 01-1.161.505H1.616A1.63 1.63 0 010 20.46v-9.694A1.63 1.63 0 011.616 9.15h4.847c.432 0 .827.18 1.119.463zm5.612-7.195c.736 1.296 1.08 3.845.556 6.581-.089.464.318.958.79.96h7.305c.302.168.49.426.53.773.037.326-.103.718-.429 1.111h-2.827c-.427 0-.82.381-.82.808 0 .427.393.814.82.808h2.675c.062.457-.051 1.032-.42 1.615h-2.255c-.427 0-.82.381-.82.808 0 .427.393.814.82.808h1.598c.062.457-.051 1.032-.42 1.616h-1.178c-.427 0-.82.38-.82.807 0 .427.393.814.82.808h.277c-.165.357-.428.672-.892 1.078-1.78-.006-3.22 0-4.388.006-2.05.01-3.254.016-3.96-.057-.57-.06-.795-.143-1.076-.311-.235-.14-.558-.408-1.002-.766v-8.188c2.527-3.378 3.165-5.741 3.299-9.23.252-1.392 1.458-.815 1.817-.035zm-6.731 8.348H1.616v9.694h4.847c0-1.079-.002-2.16-.004-3.239a771.08 771.08 0 01.004-6.455z" id="Fill-1" fill="#007AFF" fill-rule="evenodd" stroke="none"/></g></svg>