<svg width="24" height="24" xmlns:xlink="http://www.w3.org/1999/xlink" xmlns="http://www.w3.org/2000/svg"><defs><clipPath id="mask_1"><use xlink:href="#path_1"/></clipPath><path d="M4 1c0 .55-.45 1-1 1H2v12h1c.55 0 1 .45 1 1s-.45 1-1 1H1c-.55 0-1-.45-1-1V1c0-.55.45-1 1-1h2c.55 0 1 .45 1 1zm10.004 2.425l2.814 4A.998.998 0 0116.8 8.6l-3 4a.998.998 0 01-1.4.2.999.999 0 01-.2-1.4L14 9H6a1 1 0 110-2h8c.03 0 .056.015.086.018l-1.718-2.443a1 1 0 111.636-1.15z" transform="translate(4 4)" id="path_1"/></defs><g id="Icons/log-out"><path d="M4 1c0 .55-.45 1-1 1H2v12h1c.55 0 1 .45 1 1s-.45 1-1 1H1c-.55 0-1-.45-1-1V1c0-.55.45-1 1-1h2c.55 0 1 .45 1 1zm10.004 2.425l2.814 4A.998.998 0 0116.8 8.6l-3 4a.998.998 0 01-1.4.2.999.999 0 01-.2-1.4L14 9H6a1 1 0 110-2h8c.03 0 .056.015.086.018l-1.718-2.443a1 1 0 111.636-1.15z" transform="translate(4 4)" id="log-out" fill="#F5A623" fill-rule="evenodd" stroke="none"/></g></svg>