<svg width="24" height="24" xmlns="http://www.w3.org/2000/svg"><g id="Icons/briefcase"><path d="M14 4h3c1.654 0 3 1.346 3 3v8c0 1.654-1.346 3-3 3H3c-1.654 0-3-1.346-3-3V7c0-1.654 1.346-3 3-3h3V2.5C6 1.122 7.122 0 8.5 0h3C12.878 0 14 1.122 14 2.5V4zM8.5 2a.5.5 0 00-.5.5V4h4V2.5a.5.5 0 00-.5-.5h-3zM2 15V7c0-.551.449-1 1-1h2v10H3c-.551 0-1-.449-1-1zm5 1h6V6H7v10zm10 0c.551 0 1-.449 1-1V7c0-.551-.449-1-1-1h-2v10h2z" transform="translate(2 3)" id="๐จ-Icon-ะกolor" fill="#007AFF" fill-rule="evenodd" stroke="none"/></g></svg>