<svg width="24" height="24" xmlns:xlink="http://www.w3.org/1999/xlink" xmlns="http://www.w3.org/2000/svg"><defs><clipPath id="clip_1"><use xlink:href="#artboard_1" clip-rule="evenodd"/></clipPath><path id="artboard_1" d="M0 0h24v24H0z"/></defs><g id="Icons/Allergy/strawberry" clip-path="url(#clip_1)"><path d="M19.086 3.76a.641.641 0 00-.526-.529c-2.456-.415-4.231-.415-5.3-.005C12.555 1.693 10.318.376 9.79.08a.64.64 0 00-.65.015C7.1 1.363 6.2 2.464 5.813 3.262c-1.032-.447-2.789-.458-5.24-.03a.641.641 0 00-.522.531c-.016.095-.354 2.344.927 3.64.495.501 1.143.784 1.933.847a4.428 4.428 0 00-.679 2.329C2.233 13.175 5.204 24 9.678 24c4.473 0 7.445-10.825 7.445-13.421 0-.844-.252-1.644-.7-2.362.706-.103 1.292-.384 1.746-.847 1.277-1.304.932-3.516.917-3.61zm-6.896.41c.08-.757-1.46-2.025-2.696-2.777-1.442.961-2.8 2.293-2.679 2.919.047.239.489.56 1.57.761.15-.02.3-.036.451-.05V3.56a.641.641 0 011.282 0v1.439c.275.012.546.036.812.07.767-.255 1.226-.579 1.26-.899zm-10.908.245c3.439-.534 4.188.092 4.274.18.009.031.022.06.036.088.11.399.356.702.661.933l-.026.01a.64.64 0 00-.189-.093l-1.895-.558a.641.641 0 00-.362 1.23l.867.255a6.836 6.836 0 00-.61.475.634.634 0 00-.174-.002c-.894.132-1.558-.013-1.97-.43-.528-.53-.627-1.469-.612-2.088zm15.968 2.06c-.405.412-1.05.569-1.914.476a6.822 6.822 0 00-.669-.519l.788-.226a.64.64 0 10-.354-1.232l-1.942.557a.658.658 0 00-.132.056 10.15 10.15 0 00-.22-.08c.3-.264.498-.564.596-.899l.002-.005c.091-.091.877-.726 4.451-.186.016.556-.05 1.494-.607 2.058zM3.515 10.58c0 2.64 3.058 12.139 6.163 12.139 3.104 0 6.162-9.5 6.162-12.14 0-.943-.44-1.813-1.178-2.524a.744.744 0 01-.033-.03C13.506 6.962 11.708 6.27 9.678 6.27c-3.398 0-6.163 1.934-6.163 4.31zm5.332-2.097a.641.641 0 011.282 0v.76a.641.641 0 01-1.282 0v-.76zM7.72 9.624v-.762a.641.641 0 00-1.283 0v.762a.641.641 0 001.283 0zm4.819 0v-.762a.641.641 0 00-1.283 0v.762a.641.641 0 001.283 0zm-7.229.36v.762a.641.641 0 01-1.282 0v-.762a.641.641 0 011.282 0zm8.356 0a.641.641 0 011.283 0v.762a.641.641 0 01-1.283 0v-.762zM8.061 11.86a.641.641 0 00-.641.641v.761a.641.641 0 001.282 0v-.76a.641.641 0 00-.64-.642zm3.393.641v.761a.641.641 0 01-1.282 0v-.76a.641.641 0 011.282 0zm-5.387.761v.762a.641.641 0 01-1.282 0v-.761a.641.641 0 011.282 0zm7.39-.64a.641.641 0 00-.64.64v.762a.641.641 0 001.282 0v-.761a.641.641 0 00-.641-.642zM9.489 15.22a.641.641 0 00-.641.641v.761a.641.641 0 001.282 0v-.761a.641.641 0 00-.641-.641zm-3.704 1.02a.641.641 0 011.283 0v.762a.641.641 0 11-1.283 0v-.762zm6.764-.64a.641.641 0 00-.64.64v.762a.641.641 0 101.281 0v-.762a.641.641 0 00-.64-.64zm-4.5 2.602a.641.641 0 00-.641.642v.761a.641.641 0 001.282 0v-.761a.641.641 0 00-.641-.642zm2.337.642a.641.641 0 011.282 0v.761a.641.641 0 01-1.282 0v-.761z" transform="translate(2)" id="Combined-Shape" fill="#81858B" fill-rule="evenodd" stroke="none"/></g></svg>