<svg width="24" height="24" xmlns:xlink="http://www.w3.org/1999/xlink" xmlns="http://www.w3.org/2000/svg"><defs><clipPath id="clip_1"><use xlink:href="#artboard_1" clip-rule="evenodd"/></clipPath><path id="artboard_1" d="M0 0h24v24H0z"/></defs><g id="Icons/add-to-order" clip-path="url(#clip_1)"><path d="M1.916 4.729A.998.998 0 002.6 5l.071-.002a1 1 0 00.71-.373l2.4-3A1 1 0 004.22.375L2.495 2.531l-.81-.76a.998.998 0 10-1.37 1.458l1.6 1.5zM9 2h9a1 1 0 010 2H9a1 1 0 010-2zm-6.4 9a.998.998 0 01-.684-.271l-1.6-1.5a1 1 0 111.368-1.458l.811.76L4.22 6.375a1 1 0 111.562 1.25l-2.4 3a1.002 1.002 0 01-.71.373l-.07.002zM9 8h9a1 1 0 010 2H9a1 1 0 010-2zm7 11a4 4 0 100-8 4 4 0 000 8zM1.916 16.729A.998.998 0 002.6 17l.071-.002a1 1 0 00.71-.373l2.4-3a1 1 0 00-1.562-1.25l-1.724 2.156-.81-.76a.998.998 0 10-1.369 1.458l1.6 1.5zM17 14v-1.001q0-.098-.02-.195-.018-.096-.056-.187-.038-.091-.092-.173-.055-.082-.125-.151-.07-.07-.151-.125-.082-.054-.173-.092-.09-.038-.187-.057Q16.099 12 16 12h-.002q-.098 0-.195.02-.096.018-.187.056-.091.038-.173.092-.082.055-.151.125-.07.07-.125.151-.054.082-.092.173-.038.09-.057.187Q15 12.901 15 13v1h-1.001q-.098 0-.195.02-.096.018-.187.056-.091.038-.173.092-.082.055-.151.125-.07.07-.125.151-.054.082-.092.173-.038.09-.057.187Q13 14.901 13 15v.002q0 .098.02.195.018.096.056.187.038.091.092.173.055.082.125.151.07.07.151.125.082.054.173.092.09.038.187.057.097.019.195.019H15v1.001q0 .098.02.195.018.096.056.187.038.091.092.173.055.082.125.151.07.07.151.125.082.054.173.092.09.038.187.057.097.019.195.019h.002q.098 0 .195-.02.096-.018.187-.056.091-.038.173-.092.082-.055.151-.125.07-.07.125-.151.054-.082.092-.173.038-.09.057-.187Q17 17.099 17 17v-1h1.001q.098 0 .195-.02.096-.018.187-.056.091-.038.173-.092.082-.055.151-.125.07-.07.125-.151.054-.082.092-.173.038-.09.057-.187Q19 15.099 19 15v-.002q0-.098-.02-.195-.018-.096-.056-.187-.038-.091-.092-.173-.055-.082-.125-.151-.07-.07-.151-.125-.082-.054-.173-.092-.09-.038-.187-.057Q18.099 14 18 14h-1zm-6 1c0-.342.034-.677.1-1H9a1 1 0 000 2h2.1a5.022 5.022 0 01-.1-1z" transform="translate(2 3)" id="Combined-Shape" fill="#FFF" fill-rule="evenodd" stroke="none"/></g></svg>