<svg width="24" height="24" xmlns="http://www.w3.org/2000/svg"><g id="Icons/Seafood"><path d="M21.638 9.048a4.93 4.93 0 01-1.203 8.944 5.828 5.828 0 01-5.205 2.456v2.797a.754.754 0 01-.753.755H9.905a.754.754 0 01-.753-.755v-2.622l-.46-.613a5.842 5.842 0 01-5.815-3.215 4.93 4.93 0 01-1.59-7.803 4.896 4.896 0 012.636-1.5 4.912 4.912 0 013.94-3.273C8.203 1.836 10.252 0 12.721 0a4.86 4.86 0 012.936.977 4.974 4.974 0 011.554 1.955 4.923 4.923 0 014.426 6.116zm-5.832 5.1a3.409 3.409 0 003.285 2.521 3.411 3.411 0 003.403-3.412 3.41 3.41 0 00-2.067-3.139.756.756 0 01-.4-.98 3.414 3.414 0 00-2.54-4.65 4.696 4.696 0 01-1.375 3.533.75.75 0 01-1.065-.002.756.756 0 010-1.068 3.193 3.193 0 00.937-2.27c0-.677-.197-1.358-.649-1.95a3.386 3.386 0 00-2.613-1.22 3.411 3.411 0 00-3.403 3.411.754.754 0 01-.754.756c-.787 0-1.526.261-2.137.757a3.428 3.428 0 00-1.18 1.898.754.754 0 01-.664.585 3.407 3.407 0 00-3.078 3.396 3.411 3.411 0 003.403 3.412 3.377 3.377 0 002.704-1.342.753.753 0 011.084-.118 2.6 2.6 0 003.581-.21.752.752 0 01.68-.228 3.378 3.378 0 001.843-.185.75.75 0 011.005.505zm-2.082 5.8c0-.162.051-.319.147-.449l1.914-2.606a4.932 4.932 0 01-.71-.806l-1 1.362a.752.752 0 01-1.36-.448V15.66a4.13 4.13 0 01-1.048.524v1.27a.752.752 0 01-1.355.453L9 16.154a4.117 4.117 0 01-.67-.309 4.902 4.902 0 01-.534.453l2.711 3.62c.098.13.15.29.15.453v2.119h3.067v-2.543zM5.02 17.234c.488-.01.964-.092 1.414-.24l1.123 1.5a4.317 4.317 0 01-2.537-1.26zm13.222.87a4.3 4.3 0 01-2.081.822l.88-1.198a4.9 4.9 0 001.2.376z" id="Fill-1" fill="#4CD964" fill-rule="evenodd" stroke="none"/></g></svg>