<svg width="24" height="24" xmlns:xlink="http://www.w3.org/1999/xlink" xmlns="http://www.w3.org/2000/svg"><defs><clipPath id="clip_1"><use xlink:href="#artboard_1" clip-rule="evenodd"/></clipPath><clipPath id="mask_1"><use xlink:href="#path_1"/></clipPath><path d="M14 2h1c1.654 0 3 1.346 3 3v12c0 1.654-1.346 3-3 3H3c-1.654 0-3-1.346-3-3V5c0-1.654 1.346-3 3-3h1V1c0-.55.45-1 1-1s1 .45 1 1v1h6V1c0-.55.45-1 1-1s1 .45 1 1v1zM3 4h1v1c0 .55.45 1 1 1s1-.45 1-1V4h6v1c0 .55.45 1 1 1s1-.45 1-1V4h1c.551 0 1 .449 1 1v4H2V5c0-.551.449-1 1-1zM2 17c0 .551.449 1 1 1h12c.551 0 1-.449 1-1v-6H2v6zm2-3c0-.55.45-1 1-1s1 .45 1 1-.45 1-1 1-1-.45-1-1zm9-1H9c-.55 0-1 .45-1 1s.45 1 1 1h4c.55 0 1-.45 1-1s-.45-1-1-1z" transform="translate(3 2)" id="path_1"/><path id="artboard_1" d="M0 0h24v24H0z"/></defs><g id="Icons/calendar" clip-path="url(#clip_1)"><use xlink:href="#artboard_1" fill="#FFF"/><path d="M14 2h1c1.654 0 3 1.346 3 3v12c0 1.654-1.346 3-3 3H3c-1.654 0-3-1.346-3-3V5c0-1.654 1.346-3 3-3h1V1c0-.55.45-1 1-1s1 .45 1 1v1h6V1c0-.55.45-1 1-1s1 .45 1 1v1zM3 4h1v1c0 .55.45 1 1 1s1-.45 1-1V4h6v1c0 .55.45 1 1 1s1-.45 1-1V4h1c.551 0 1 .449 1 1v4H2V5c0-.551.449-1 1-1zM2 17c0 .551.449 1 1 1h12c.551 0 1-.449 1-1v-6H2v6zm2-3c0-.55.45-1 1-1s1 .45 1 1-.45 1-1 1-1-.45-1-1zm9-1H9c-.55 0-1 .45-1 1s.45 1 1 1h4c.55 0 1-.45 1-1s-.45-1-1-1z" transform="translate(3 2)" id="๐จ-Icon-ะกolor" fill="#007AFF" fill-rule="evenodd" stroke="none"/></g></svg>