<svg width="240" height="240" xmlns="http://www.w3.org/2000/svg"><g id="Icons/Order" opacity=".116"><path d="M39.162 77.288a9.98 9.98 0 006.84 2.71c.24 0 .47-.01.71-.02 2.79-.2 5.36-1.56 7.1-3.73l24-30c3.45-4.32 2.75-10.61-1.57-14.06-4.3-3.44-10.61-2.76-14.05 1.56l-17.24 21.56-8.11-7.6c-4.03-3.79-10.37-3.59-14.14.45-3.78 4.03-3.57 10.36.46 14.13l16 15zm160.839-27.29h-90c-5.52 0-10 4.48-10 10s4.48 10 10 10h90c5.52 0 10-4.48 10-10s-4.48-10-10-10zm-153.999 90a9.98 9.98 0 01-6.84-2.71l-16-15c-4.03-3.77-4.24-10.1-.46-14.13 3.77-4.04 10.11-4.24 14.14-.45l8.11 7.6 17.24-21.56c3.44-4.31 9.75-5.01 14.05-1.56 4.32 3.45 5.02 9.74 1.57 14.06l-24 30a10.023 10.023 0 01-7.1 3.73c-.24.01-.47.02-.71.02zm63.999-30h90c5.52 0 10 4.48 10 10s-4.48 10-10 10h-90c-5.52 0-10-4.48-10-10s4.48-10 10-10zm-70.839 87.29a9.98 9.98 0 006.84 2.71c.24 0 .47-.01.71-.02 2.79-.2 5.36-1.56 7.1-3.73l24-30c3.45-4.32 2.75-10.61-1.57-14.06-4.3-3.44-10.61-2.76-14.05 1.56l-17.24 21.56-8.11-7.6c-4.03-3.79-10.37-3.59-14.14.45-3.78 4.03-3.57 10.36.46 14.13l16 15zm160.839-27.29h-90c-5.52 0-10 4.48-10 10s4.48 10 10 10h90c5.52 0 10-4.48 10-10s-4.48-10-10-10z" id="Combined-Shape" fill="none" fill-rule="evenodd" stroke="#002B56" stroke-width="2" stroke-linecap="round" stroke-linejoin="round"/></g></svg>