<svg width="24" height="24" xmlns="http://www.w3.org/2000/svg"><g id="Icons/briefcase"><path d="M11 4c0 2.206-1.794 4-4 4S3 6.206 3 4s1.794-4 4-4 4 1.794 4 4zM7 2c1.103 0 2 .897 2 2s-.897 2-2 2-2-.897-2-2 .897-2 2-2zm11 5c0 1.654-1.346 3-3 3s-3-1.346-3-3 1.346-3 3-3 3 1.346 3 3zm-3-1a1.001 1.001 0 010 2 1.001 1.001 0 010-2zm4 11a1 1 0 001-1c0-2.757-2.243-5-5-5a4.994 4.994 0 00-3.06 1.046A6.978 6.978 0 007 10c-3.859 0-7 3.14-7 7a1 1 0 102 0c0-2.757 2.243-5 5-5s5 2.243 5 5a1 1 0 102 0 6.973 6.973 0 00-.856-3.351A2.984 2.984 0 0115 13c1.654 0 3 1.346 3 3a1 1 0 001 1z" transform="translate(2 3)" id="๐จ-Icon-ะกolor" fill="#007AFF" fill-rule="evenodd" stroke="none"/></g></svg>