<svg width="24" height="24" xmlns:xlink="http://www.w3.org/1999/xlink" xmlns="http://www.w3.org/2000/svg"><defs><clipPath id="clip_1"><use xlink:href="#artboard_1" clip-rule="evenodd"/></clipPath><path id="artboard_1" d="M0 0h24v24H0z"/></defs><g id="Icons/Allergy/Milk" clip-path="url(#clip_1)"><path d="M14.94 6.95c-.007-.019-.018-.035-.027-.053a.606.606 0 00-.053-.104L12.486 3.4V.75a.75.75 0 00-.75-.75H3.257a.75.75 0 00-.75.75V3.4L.132 6.795a.655.655 0 00-.053.102c-.008.019-.02.035-.027.055A.722.722 0 000 7.205v16.03c0 .414.336.75.75.75h13.496a.75.75 0 00.75-.75V7.205a.746.746 0 00-.055-.255zM4.008 2.887h6.975V1.5H4.007v1.387zm.691 1.5L6.16 6.474h6.647l-1.461-2.087H4.697zm-.37 2.087l-1.07-1.53-1.072 1.53h2.141zM1.495 22.485H5.02V7.974H1.496v14.511zm12 0H6.521V7.974h6.975v14.511zM2.507 11.525a.75.75 0 011.5 0v8.159a.75.75 0 01-1.5 0v-8.16zm9.49.949H8.02a.75.75 0 010-1.5h3.975a.75.75 0 010 1.5zm0 .75H10.27a.75.75 0 000 1.5h1.725a.75.75 0 000-1.5zm11.25 1.026c.21 0 .411.089.553.245a.75.75 0 01.196.573l-.75 8.25a.751.751 0 01-.75.682h-4.5a.75.75 0 01-.75-.682l-.75-8.25a.75.75 0 01.75-.818h6zm-.826 1.5l-.135 1.5h-4.083l-.132-1.5h4.35zm-4.084 3l.341 3.75h3.133l.34-3.75h-3.814z" id="Combined-Shape" fill="#81858B" fill-rule="evenodd" stroke="none"/></g></svg>