<svg width="24" height="24" xmlns="http://www.w3.org/2000/svg"><g id="Icons/Seafood"><path d="M16.998 3.849H1.601a3.1 3.1 0 013.001-2.342H12A.754.754 0 1012 0H4.602A4.608 4.608 0 000 4.602a7.01 7.01 0 007.002 7.002h7.972a.93.93 0 010 1.859l-8.814-.017a3.171 3.171 0 00-3.168 3.168v4.07c0 .416.338.753.754.753H6.61a3.171 3.171 0 003.168-3.168v-.417h7.221A7.01 7.01 0 0024 10.85a7.01 7.01 0 00-7.002-7.001zm-2.024 6.248h-1.828c-.161-1.427-.748-2.48-1.783-3.204a.754.754 0 10-.864 1.235c.636.446.998 1.068 1.129 1.969H7.002a5.503 5.503 0 01-5.443-4.74h15.44a5.46 5.46 0 012.637.675c-.662 2.149-1.835 3.57-3.569 4.325a2.42 2.42 0 00-1.093-.26zM6.3 7.13a.89.89 0 10-1.78 0 .89.89 0 001.78 0zm15.676 6.044a5.476 5.476 0 00-1.071-6.184c-.755 2.088-2.003 3.597-3.727 4.504a2.422 2.422 0 01.095 1.846c.946.457 2.523.401 4.703-.166zm-12.198 3.17V14.97h5.196c.506 0 .977-.155 1.367-.42.647.382 1.462.585 2.434.602l.143.002c.508 0 1.06-.048 1.664-.143a5.47 5.47 0 01-3.584 1.334h-7.22zm-3.17 3.585c.916 0 1.661-.745 1.661-1.66v-3.316H6.16c-.915 0-1.66.744-1.66 1.66v3.316h2.109z" transform="translate(0 1)" id="Combined-Shape" fill="#FF9500" fill-rule="evenodd" stroke="none"/></g></svg>