<svg width="24" height="24" xmlns="http://www.w3.org/2000/svg"><g id="Icons/Seafood"><path d="M22.869 3.867l-.075-.163a.369.369 0 00-.032-.055 3.643 3.643 0 00-.449-.67 3.753 3.753 0 00-4.172-1.135A7.395 7.395 0 0014.87.022a.795.795 0 00-.96.588c-.1.42.147.838.567.955a5.797 5.797 0 012.27 1.168 3.742 3.742 0 00-.91 3.866c1.257 3.8.309 7.948-2.507 10.861-.34.359-.52.83-.507 1.324a1.854 1.854 0 001.862 1.802h.001a2.94 2.94 0 00.545-.077c5.152-1.452 8.76-6.206 8.77-11.558a11.96 11.96 0 00-1.131-5.084zm-8.375 14.679l.044-.048a12.295 12.295 0 002.809-12.405 2.186 2.186 0 01.47-2.181 5.78 5.78 0 01.797 1.703.791.791 0 00.979.556.787.787 0 00.48-.375.791.791 0 00.074-.609 7.354 7.354 0 00-.882-1.969c.867-.063 1.703.397 2.122 1.237.254.526.288 1.118.096 1.67a2.175 2.175 0 01-1.537 1.402.797.797 0 00-.234 1.451.801.801 0 00.616.094 3.783 3.783 0 002.017-1.278 10.405 10.405 0 01-7.517 11.176c-.058.012-.116.02-.154.024a.256.256 0 01-.184-.076.255.255 0 01-.076-.184c0-.07.028-.137.08-.188zm.107-6.399a3.07 3.07 0 00-1.216-3.723 5.86 5.86 0 00-.567-2.792.797.797 0 00-1.067-.361.802.802 0 00-.367 1.053c.242.506.383 1.063.41 1.623h-.056A3.085 3.085 0 009.117 9.42c-1.568 2.547-4.393 3.995-7.418 3.792A1.602 1.602 0 00.003 14.72c-.025.41.108.81.377 1.132.095.106.2.202.352.317a9.283 9.283 0 005.265 1.628h.02a9.385 9.385 0 006.024-2.2 9.335 9.335 0 002.524-3.35.806.806 0 00.037-.099zm-1.516-.49a7.796 7.796 0 01-7.07 4.547h-.018a7.703 7.703 0 01-4.338-1.33c-.023-.018-.05-.04-.086-.04a.08.08 0 00-.025.003l.054-.036.061.003a9.573 9.573 0 008.812-4.553 1.49 1.49 0 011.093-.702 4.232 4.232 0 01-.504 1.006.797.797 0 001.315.897 5.79 5.79 0 00.629-1.206c.251.408.29.91.096 1.36l.224.097-.243-.046z" transform="translate(0 1.96)" id="Combined-Shape" fill="#FF2D55" fill-rule="evenodd" stroke="none"/></g></svg>