<svg width="24" height="24" xmlns:xlink="http://www.w3.org/1999/xlink" xmlns="http://www.w3.org/2000/svg"><defs><clipPath id="clip_1"><use xlink:href="#artboard_1" clip-rule="evenodd"/></clipPath><path id="artboard_1" d="M0 0h24v24H0z"/></defs><g id="Icons/Allergy/Eggs" clip-path="url(#clip_1)"><path d="M16.421.361c4.129 1.365 6.877 6.387 7.449 10.64a10.434 10.434 0 01-2.455 8.52 5.18 5.18 0 01-3.387 1.786h-.191a6.325 6.325 0 01-2.808-.874c-.268-.132-.534-.268-.803-.382a9.101 9.101 0 00-5.984-.034c-.231.06-.49.142-.766.225l-.003.001c-1.94.597-4.874 1.5-6.25-.753a2.577 2.577 0 01.269-2.864c.119-.197.225-.4.32-.607a4.247 4.247 0 00-.2-3.182c-.116-.309-.26-.646-.41-1v-.003c-.973-2.297-2.44-5.763.724-7.503a4.091 4.091 0 013.24-.295c.19.067.377.146.565.226.308.17.651.261 1.003.266.51-.072 1.018-.8 1.47-1.444A7.212 7.212 0 019.222 1.84a7.463 7.463 0 017.2-1.479zm4.004 18.223a3.99 3.99 0 01-2.47 1.357 4.92 4.92 0 01-2.32-.728c-.293-.147-.583-.29-.875-.415a8.241 8.241 0 00-3.279-.628c-1.219.016-2.43.194-3.602.531-.245.066-.517.15-.808.239-2.035.626-3.934 1.086-4.695-.162-.268-.439-.141-.737.286-1.481a7.49 7.49 0 00.39-.742c.5-1.37.437-2.88-.174-4.204a29.65 29.65 0 00-.43-1.05C1.335 8.674.64 6.581 2.576 5.515c.42-.225.89-.338 1.366-.328.268.006.532.052.786.137.157.053.312.12.467.185a3.16 3.16 0 001.721.361C8.02 5.722 8.711 4.736 9.32 3.866c.233-.366.502-.706.805-1.017a6.088 6.088 0 015.871-1.21c3.6 1.195 6.01 5.703 6.53 9.539a9.074 9.074 0 01-2.1 7.406zm-11.42-7.771a4.848 4.848 0 119.695-.002 4.848 4.848 0 01-9.695.002zm4.846 3.49a3.49 3.49 0 110-6.98 3.49 3.49 0 010 6.98zm1.368-2.812c.376 0 .68-.303.68-.678a2.051 2.051 0 00-2.047-2.047.678.678 0 100 1.357c.38.001.69.31.69.69 0 .375.303.678.677.678z" transform="translate(0 1)" id="Fill-1" fill="#81858B" fill-rule="evenodd" stroke="none"/></g></svg>