<svg width="171" height="23" xmlns="http://www.w3.org/2000/svg"><g id="Logo" transform="translate(.5 .5)" stroke="none"><path d="M87.073 21.521V9.063l6.73 9.452 6.73-9.452v12.458h5.115V0h-4.158l-7.687 10.47L86.146 0h-4.188v21.521h5.115zm-72.297 0V8.884l10.08 12.637h4.039V.075h-5.13v12.548L13.729.015H9.661v21.506h5.115zm118.346 0V8.884l10.08 12.637h4.038V.075h-5.13v12.548L132.075.015h-4.068v21.506h5.115zm-8.525-4.591v4.591h-14.462V.045h14.462v4.442h-9.437V8.39h6.79v4.307h-6.79v4.233h9.437zm42.534 2.423c-1.765 1.765-3.893 2.647-6.386 2.647-2.483 0-4.606-.882-6.371-2.647-1.765-1.765-2.647-3.894-2.647-6.386V.045h5.234v12.623q0 4.247 3.784 4.397c2.533-.1 3.799-1.566 3.799-4.397V.045h5.234v12.922c0 2.492-.882 4.621-2.647 6.386zM5.175.06v21.46H0V.06h5.175zM38.54 12.937v8.584h-5.16V.075h13.85v4.427h-8.69v4.442h5.968v3.993H38.54z" id="Combined-Shape" fill="#000" fill-rule="evenodd"/><path d="M3.999 0h14.002q.197 0 .392.02.195.019.388.057.193.038.38.095.189.057.37.132.182.076.355.168.173.093.337.202.163.11.315.234.152.124.29.263.14.14.264.291.125.152.234.315.11.164.202.337.092.173.168.355.075.181.132.37.057.187.095.38.039.193.058.388.019.196.019.392v14.002q0 .197-.02.392-.018.195-.057.388-.038.193-.095.38-.057.189-.132.37-.076.182-.168.355-.093.173-.202.337-.11.163-.234.315-.124.152-.263.29-.14.14-.291.264-.152.125-.315.234-.164.11-.337.202-.173.092-.355.168-.181.075-.37.132-.187.057-.38.095-.192.039-.388.058-.195.019-.392.019H3.999q-.196 0-.392-.02-.195-.018-.388-.057-.193-.038-.38-.095-.189-.057-.37-.132-.182-.076-.355-.168-.173-.093-.337-.202-.163-.11-.315-.234-.152-.124-.29-.263-.14-.14-.264-.291-.125-.152-.234-.315-.11-.164-.202-.337-.092-.173-.168-.355-.075-.181-.132-.37-.057-.187-.095-.38-.038-.192-.058-.388Q0 18.198 0 18.001V3.999q0-.196.02-.392.019-.195.057-.388.038-.193.095-.38.057-.189.132-.37.076-.182.168-.355.093-.173.202-.337.11-.163.234-.315.124-.152.263-.29.14-.14.291-.264.152-.125.315-.234.164-.11.337-.202.173-.092.355-.168.181-.075.37-.132.187-.057.38-.095t.388-.058Q3.803 0 3.999 0z" transform="translate(50)" id="Rectangle" fill="#000"/><path d="M1.453 6.372H4.92c.966 0 1.453-.486 1.453-1.49v-3.4C6.373.48 5.886 0 4.92 0H1.453C.487 0 0 .479 0 1.483v3.399c0 1.004.487 1.49 1.453 1.49zm11.094 0h-3.46c-.966 0-1.452-.486-1.452-1.49v-3.4C7.635.48 8.12 0 9.087 0h3.46C13.521 0 14 .479 14 1.483v3.399c0 1.004-.48 1.49-1.453 1.49zM1.072 4.882c0 .281.13.418.396.418h3.43c.265 0 .402-.137.402-.418v-3.4c0-.273-.137-.41-.403-.41h-3.43c-.266 0-.395.137-.395.41v3.4zm8.03.418c-.266 0-.395-.137-.395-.418v-3.4c0-.273.13-.41.396-.41h3.437c.258 0 .388.137.388.41v3.4c0 .281-.13.418-.388.418H9.103zm-5.27-1.315h-1.3c-.114 0-.144-.046-.144-.175V2.547c0-.121.03-.167.144-.167h1.3c.115 0 .16.046.16.167V3.81c0 .129-.045.175-.16.175zm6.381 0h1.293c.114 0 .16-.046.16-.175V2.547c0-.121-.046-.167-.16-.167h-1.293c-.114 0-.152.046-.152.167V3.81c0 .129.038.175.152.175zM4.92 14H1.453C.487 14 0 13.52 0 12.517V9.11c0-.996.487-1.483 1.453-1.483H4.92c.966 0 1.453.487 1.453 1.483v3.407C6.373 13.52 5.886 14 4.92 14zm3.225-4.403h1.3c.114 0 .16-.046.16-.175V8.159c0-.121-.046-.167-.16-.167h-1.3c-.115 0-.145.046-.145.167v1.263c0 .13.03.175.145.175zm5.338 0h-1.3c-.115 0-.153-.046-.153-.175V8.159c0-.121.038-.167.152-.167h1.3c.115 0 .16.046.16.167v1.263c0 .13-.045.175-.16.175zm-12.015 3.33c-.267 0-.396-.137-.396-.41v-3.4c0-.28.13-.418.396-.418h3.43c.265 0 .402.137.402.419v3.399c0 .273-.137.41-.403.41h-3.43zm2.365-1.307h-1.3c-.115 0-.145-.046-.145-.183v-1.255c0-.122.03-.167.144-.167h1.3c.115 0 .16.045.16.167v1.255c0 .137-.045.183-.16.183zm6.35 0h1.3c.114 0 .16-.046.16-.183v-1.255c0-.122-.046-.167-.16-.167h-1.3c-.115 0-.145.045-.145.167v1.255c0 .137.03.183.144.183zm-.738 2.015h-1.3c-.115 0-.145-.046-.145-.175v-1.263c0-.121.03-.167.145-.167h1.3c.114 0 .16.046.16.167v1.263c0 .129-.046.175-.16.175zm2.737 0h1.3c.115 0 .16-.046.16-.175v-1.263c0-.121-.045-.167-.16-.167h-1.3c-.114 0-.152.046-.152.167v1.263c0 .129.038.175.152.175z" transform="translate(54 4)" id="Fill-1" fill="#FFF" fill-rule="evenodd"/></g></svg>