<svg width="33" height="33"><defs><filter id="filter_1"><feColorMatrix in="SourceGraphic" values="0 0 0 0 0 0 0 0 0 0.47843137 0 0 0 0 1 0 0 0 1 0"/></filter></defs><g id="minus" transform="translate(.5 .5)" filter="url(#filter_1)" stroke="none"><path d="M16 32c8.837 0 16-7.163 16-16S24.837 0 16 0 0 7.163 0 16s7.163 16 16 16z" id="Oval" fill="#F5A623" fill-opacity=".098"/><path d="M.999 0h14.002q.098 0 .195.02.096.018.187.056.091.038.173.092.082.055.151.125.07.07.125.151.054.082.092.173.038.09.057.187Q16 .901 16 1v.002q0 .098-.02.195-.018.096-.056.187-.038.091-.092.173-.055.082-.125.151-.07.07-.151.125-.082.054-.173.092-.09.038-.187.057Q15.099 2 15 2H.999q-.098 0-.195-.02-.096-.018-.187-.056-.091-.038-.173-.092-.082-.055-.151-.125-.07-.07-.125-.151-.054-.082-.092-.173-.038-.09-.057-.187Q0 1.099 0 1V.999Q0 .901.02.804.037.708.075.617.114.526.168.444.223.362.293.293q.07-.07.151-.125Q.526.114.617.076.707.038.804.019.901 0 1 0z" transform="translate(8 15)" id="Combined-Shape" fill="#D8D8D8"/></g></svg>