<svg width="32" height="32" xmlns="http://www.w3.org/2000/svg"><g id="order-button" stroke="none"><path d="M16 32c8.837 0 16-7.163 16-16S24.837 0 16 0 0 7.163 0 16s7.163 16 16 16z" id="Oval" fill="#F5A623" fill-opacity=".098"/><g id="17.-Icon/Medium/.Placeholder" transform="translate(4 4)" fill-rule="evenodd"><path d="M1.916 4.729A.998.998 0 002.6 5l.071-.002a1 1 0 00.71-.373l2.4-3A1 1 0 004.22.375L2.495 2.531l-.81-.76a.998.998 0 10-1.37 1.458l1.6 1.5zM9 2h9a1 1 0 010 2H9a1 1 0 010-2zm-6.4 9a.998.998 0 01-.684-.271l-1.6-1.5a1 1 0 111.368-1.458l.811.76L4.22 6.375a1 1 0 111.562 1.25l-2.4 3a1.002 1.002 0 01-.71.373l-.07.002zM9 8h9a1 1 0 010 2H9a1 1 0 010-2zm7 11a4 4 0 100-8 4 4 0 000 8zM1.916 16.729A.998.998 0 002.6 17l.071-.002a1 1 0 00.71-.373l2.4-3a1 1 0 00-1.562-1.25l-1.724 2.156-.81-.76a.998.998 0 10-1.369 1.458l1.6 1.5zM17 14v-1.001q0-.098-.02-.195-.018-.096-.056-.187-.038-.091-.092-.173-.055-.082-.125-.151-.07-.07-.151-.125-.082-.054-.173-.092-.09-.038-.187-.057Q16.099 12 16 12h-.002q-.098 0-.195.02-.096.018-.187.056-.091.038-.173.092-.082.055-.151.125-.07.07-.125.151-.054.082-.092.173-.038.09-.057.187Q15 12.901 15 13v1h-1.001q-.098 0-.195.02-.096.018-.187.056-.091.038-.173.092-.082.055-.151.125-.07.07-.125.151-.054.082-.092.173-.038.09-.057.187Q13 14.901 13 15v.002q0 .098.02.195.018.096.056.187.038.091.092.173.055.082.125.151.07.07.151.125.082.054.173.092.09.038.187.057.097.019.195.019H15v1.001q0 .098.02.195.018.096.056.187.038.091.092.173.055.082.125.151.07.07.151.125.082.054.173.092.09.038.187.057.097.019.195.019h.002q.098 0 .195-.02.096-.018.187-.056.091-.038.173-.092.082-.055.151-.125.07-.07.125-.151.054-.082.092-.173.038-.09.057-.187Q17 17.099 17 17v-1h1.001q.098 0 .195-.02.096-.018.187-.056.091-.038.173-.092.082-.055.151-.125.07-.07.125-.151.054-.082.092-.173.038-.09.057-.187Q19 15.099 19 15v-.002q0-.098-.02-.195-.018-.096-.056-.187-.038-.091-.092-.173-.055-.082-.125-.151-.07-.07-.151-.125-.082-.054-.173-.092-.09-.038-.187-.057Q18.099 14 18 14h-1zm-6 1c0-.342.034-.677.1-1H9a1 1 0 000 2h2.1a5.022 5.022 0 01-.1-1z" transform="translate(2 3)" id="Combined-Shape" fill="#F55E23"/><path d="M8 4a4 4 0 11-8 0 4 4 0 018 0zM5 1.999V3h1.001q.098 0 .195.02.096.018.187.056.091.038.173.092.082.055.151.125.07.07.125.151.054.082.092.173.038.09.057.187Q7 3.901 7 4v.002q0 .098-.02.195-.018.096-.056.187-.038.091-.092.173-.055.082-.125.151-.07.07-.151.125-.082.054-.173.092-.09.038-.187.057Q6.099 5 6 5H5v1.001q0 .098-.02.195-.018.096-.056.187-.038.091-.092.173-.055.082-.125.151-.07.07-.151.125-.082.054-.173.092-.09.038-.187.057Q4.099 7 4 7h-.002q-.098 0-.195-.02-.096-.018-.187-.056-.091-.038-.173-.092-.082-.055-.151-.125-.07-.07-.125-.151-.054-.082-.092-.173-.038-.09-.057-.187Q3 6.099 3 6V5H1.999q-.098 0-.195-.02-.096-.018-.187-.056-.091-.038-.173-.092-.082-.055-.151-.125-.07-.07-.125-.151-.054-.082-.092-.173-.038-.09-.057-.187Q1 4.099 1 4v-.002q0-.098.02-.195.018-.096.056-.187.038-.091.092-.173.055-.082.125-.151.07-.07.151-.125.082-.054.173-.092.09-.038.187-.057Q1.901 3 2 3h1V1.999q0-.098.02-.195.018-.096.056-.187.038-.091.092-.173.055-.082.125-.151.07-.07.151-.125.082-.054.173-.092.09-.038.187-.057Q3.901 1 4 1h.002q.098 0 .195.02.096.018.187.056.091.038.173.092.082.055.151.125.07.07.125.151.054.082.092.173.038.09.057.187Q5 1.901 5 2z" transform="translate(14 14)" id="Combined-Shape" fill="#FFCB00"/></g></g></svg>