<svg width="33" height="33"><defs><filter id="filter_1"><feColorMatrix in="SourceGraphic" values="0 0 0 0 0 0 0 0 0 0.47843137 0 0 0 0 1 0 0 0 1 0"/></filter></defs><g id="plus" transform="translate(.5 .5)" filter="url(#filter_1)" stroke="none"><path d="M16 32c8.837 0 16-7.163 16-16S24.837 0 16 0 0 7.163 0 16s7.163 16 16 16z" id="Oval" fill="#007AFF" fill-opacity=".098"/><path d="M9 7V.999q0-.098-.02-.195-.018-.096-.056-.187-.038-.091-.092-.173-.055-.082-.125-.151-.07-.07-.151-.125-.082-.054-.173-.092-.09-.038-.187-.057Q8.099 0 8 0h-.002Q7.9 0 7.803.02q-.096.018-.187.056-.091.038-.173.092-.082.055-.151.125-.07.07-.125.151-.054.082-.092.173-.038.09-.057.187Q7 .901 7 1v6H.999q-.098 0-.195.02-.096.018-.187.056-.091.038-.173.092-.082.055-.151.125-.07.07-.125.151-.054.082-.092.173-.038.09-.057.187Q0 7.901 0 8v.002q0 .098.02.195.018.096.056.187.038.091.092.173.055.082.125.151.07.07.151.125.082.054.173.092.09.038.187.057Q.901 9 1 9h6v6.001q0 .098.02.195.018.096.056.187.038.091.092.173.055.082.125.151.07.07.151.125.082.054.173.092.09.038.187.057Q7.901 16 8 16h.002q.098 0 .195-.02.096-.018.187-.056.091-.038.173-.092.082-.055.151-.125.07-.07.125-.151.054-.082.092-.173.038-.09.057-.187Q9 15.099 9 15V9h6.001q.098 0 .195-.02.096-.018.187-.056.091-.038.173-.092.082-.055.151-.125.07-.07.125-.151.054-.082.092-.173.038-.09.057-.187Q16 8.099 16 8v-.002q0-.098-.02-.195-.018-.096-.056-.187-.038-.091-.092-.173-.055-.082-.125-.151-.07-.07-.151-.125-.082-.054-.173-.092-.09-.038-.187-.057Q15.099 7 15 7H9z" transform="translate(8 8)" id="Combined-Shape" fill="#D8D8D8" fill-rule="evenodd"/></g></svg>