<svg width="16" height="16" xmlns="http://www.w3.org/2000/svg"><g id="Desktop" stroke="none" stroke-width="1" fill="none" fill-rule="evenodd"><g id="3-01-product-card-холодильник" transform="translate(-1200 -524)" fill="#FF2626"><g id="price" transform="translate(922 379)"><g id="icon/qmark" transform="translate(278 145)"><path d="M8 16c-4.429 0-8-3.571-8-8s3.571-8 8-8 8 3.571 8 8-3.571 8-8 8zm0-1.5A6.49 6.49 0 0014.5 8 6.49 6.49 0 008 1.5 6.49 6.49 0 001.5 8 6.49 6.49 0 008 14.5zM8 6c-.688 0-1.25-.563-1.25-1.25 0-.688.563-1.25 1.25-1.25.688 0 1.25.563 1.25 1.25C9.25 5.438 8.687 6 8 6zM6.733 7h1.754c.179 0 .243.019.308.053a.363.363 0 01.152.152c.034.065.053.13.053.308v3.209c0 .142.01.194.033.248.022.055.055.1.1.138a.593.593 0 00.227.107l.61.195a.461.461 0 01.176.084.267.267 0 01.078.107.461.461 0 01.026.193v.243a.517.517 0 01-.053.258.363.363 0 01-.152.152.517.517 0 01-.258.053H6.733a.54.54 0 01-.278-.053.363.363 0 01-.152-.152.54.54 0 01-.053-.278v-.303c0-.116.01-.158.029-.202a.27.27 0 01.086-.11.454.454 0 01.19-.075l.538-.13c.15-.035.202-.061.253-.1a.36.36 0 00.116-.146c.025-.058.038-.115.038-.27V8.82c0-.155-.013-.212-.038-.27a.36.36 0 00-.116-.146c-.05-.039-.102-.065-.253-.1l-.538-.13a.454.454 0 01-.19-.075.27.27 0 01-.086-.11.454.454 0 01-.029-.202v-.303a.54.54 0 01.053-.278.363.363 0 01.152-.152A.54.54 0 016.733 7z" id="Style"/></g></g></g></g></svg>