<svg width="24" height="24" xmlns:xlink="http://www.w3.org/1999/xlink" xmlns="http://www.w3.org/2000/svg"><defs><clipPath id="mask_1"><use xlink:href="#path_1"/></clipPath><path d="M18 4h1c.55 0 1 .45 1 1s-.45 1-1 1h-1v11c0 1.654-1.346 3-3 3H5c-1.654 0-3-1.346-3-3V6H1c-.55 0-1-.45-1-1s.45-1 1-1h5V2.328C6 1.044 7.121 0 8.5 0h3C12.879 0 14 1.044 14 2.328V4h4zM8 2.328C8 2.173 8.214 2 8.5 2h3c.286 0 .5.173.5.328V4H8V2.328zM15 18c.552 0 1-.449 1-1V6H4v11c0 .551.448 1 1 1h10zm-8-3c.55 0 1-.45 1-1v-4c0-.55-.45-1-1-1s-1 .45-1 1v4c0 .55.45 1 1 1zm6 0c.55 0 1-.45 1-1v-4c0-.55-.45-1-1-1s-1 .45-1 1v4c0 .55.45 1 1 1z" transform="translate(2 2)" id="path_1"/></defs><g id="Icon"><path d="M18 4h1c.55 0 1 .45 1 1s-.45 1-1 1h-1v11c0 1.654-1.346 3-3 3H5c-1.654 0-3-1.346-3-3V6H1c-.55 0-1-.45-1-1s.45-1 1-1h5V2.328C6 1.044 7.121 0 8.5 0h3C12.879 0 14 1.044 14 2.328V4h4zM8 2.328C8 2.173 8.214 2 8.5 2h3c.286 0 .5.173.5.328V4H8V2.328zM15 18c.552 0 1-.449 1-1V6H4v11c0 .551.448 1 1 1h10zm-8-3c.55 0 1-.45 1-1v-4c0-.55-.45-1-1-1s-1 .45-1 1v4c0 .55.45 1 1 1zm6 0c.55 0 1-.45 1-1v-4c0-.55-.45-1-1-1s-1 .45-1 1v4c0 .55.45 1 1 1z" transform="translate(2 2)" id="๐จ-Icon-ะกolor" fill="#FFF" fill-rule="evenodd" stroke="none"/></g></svg>