<svg width="65" height="65" xmlns:xlink="http://www.w3.org/1999/xlink" xmlns="http://www.w3.org/2000/svg"><defs><clipPath id="mask_1"><use xlink:href="#path_1"/></clipPath><clipPath id="mask_2"><use xlink:href="#path_2"/></clipPath><path d="M0 0h23.887v38.154H0V0z" transform="translate(0 .513)" id="path_1"/><path d="M0 0h23.888v38.154H0V0z" transform="translate(.22 .513)" id="path_2"/></defs><g id="icon-3"><g id="Group-3" transform="translate(0 25.333)"><path d="M0 0h23.887v38.154H0V0z" transform="translate(0 .513)" id="Clip-2" fill="none" stroke="none"/></g><g id="Group-6" transform="translate(39.667 25.333)"><path d="M0 0h23.888v38.154H0V0z" transform="translate(.22 .513)" id="Clip-5" fill="none" stroke="none"/></g><path d="M51.22 39.067c.8 0 1.334-.534 1.334-1.334S52.02 36.4 51.22 36.4h-8.533v-3.067c2.933-.666 5.067-3.2 5.067-6.266 0-.8-.534-1.334-1.334-1.334H36.287c-.8 0-1.333.667-1.333 1.334 0 3.066 2.133 5.6 5.066 6.266v2.934h-6.8V14.933h13.867c.8 0 1.467-.8 1.333-1.6C46.687 5.6 39.754 0 31.887 0c-7.867 0-14.8 5.6-16.533 13.333-.134.8.4 1.6 1.333 1.6h13.867V36.4h-6.8v-3.067c2.933-.666 5.066-3.2 5.066-6.266 0-.8-.533-1.334-1.333-1.334H17.354c-.8 0-1.334.667-1.334 1.334 0 3.066 2.134 5.6 5.067 6.266v2.934h-8.533c-.8 0-1.334.533-1.334 1.333 0 .8.534 1.333 1.334 1.333h12.8L28.287 62.4c.133.667.667 1.2 1.333 1.2h4.667c.667 0 1.2-.533 1.333-1.2l2.934-23.467H51.22v.134zm-19.333-36.4c6.133 0 11.467 4 13.467 9.6H18.42c2-5.6 7.334-9.6 13.467-9.6zM7.621 46.4h14.933c.8 0 1.333.533 1.333 1.333 0 .8-.533 1.333-1.333 1.333h-6.667v12.267h5.2c.8 0 1.334.533 1.334 1.333 0 .8-.534 1.334-1.334 1.334H8.021c-.8 0-1.334-.534-1.334-1.334s.534-1.333 1.334-1.333h5.2V49.066h-5.6c-2 0-3.734-1.333-4.134-3.2L.021 27.333c-.134-.667.4-1.333 1.066-1.467.8-.133 1.467.4 1.6 1.067l3.467 18.533c.133.533.667.934 1.467.934zm55.066-20.534c-.667-.133-1.467.4-1.599 1.067l-3.468 18.4c-.132.533-.799.933-1.465.933H41.22c-.799 0-1.333.534-1.333 1.334s.534 1.333 1.333 1.333h6.667v12.4h-5.2c-.8 0-1.334.533-1.334 1.333 0 .8.534 1.334 1.334 1.334h13.068c.798 0 1.333-.534 1.333-1.334s-.535-1.333-1.333-1.333h-5.202V49.066h5.602c2 0 3.732-1.333 4.132-3.2l3.468-18.533c.132-.667-.402-1.333-1.068-1.467zM22.42 30.8c1.6 0 2.934-.933 3.467-2.4h-6.933c.533 1.467 1.866 2.533 3.466 2.4zm18.934 0c1.6 0 2.933-.933 3.466-2.4h-6.933c.533 1.467 1.867 2.533 3.467 2.4zm-8.267 30.133H30.82l-2.8-21.866h7.734l-2.667 21.866z" id="Combined-Shape" fill="#FFF" fill-rule="evenodd" stroke="none"/></g></svg>