<svg width="60" height="60" xmlns="http://www.w3.org/2000/svg"><g id="icon-2"><path d="M1 0h58a1 1 0 011 1v50a1 1 0 01-1 1h-3.5L53 55.33V60h-2v-5a.982.982 0 01.2-.6l2.8-3.73V39a1 1 0 10-2 0v6h-2v-7a1 1 0 10-2 0v7h-2v-7a1 1 0 10-2 0v7h-2V31a1 1 0 10-2 0v14h-2v-3.59l-1 1v7.26l2.8 3.73a.982.982 0 01.2.6v6h-2v-5.67L36.25 52H1a1 1 0 01-1-1V1a1 1 0 011-1zm1 8h56V2H2v6zm4-2H4V4h2v2zm2 0h2V4H8v2zm6 0h-2V4h2v2zm42 44h2V10H2v40h33v-8c.002-.266.105-.519.29-.71l2.71-2.7V31a3 3 0 012.8-2.98L40 20.1V15a1 1 0 011-1h3a1 1 0 011 1h1v-1a1 1 0 011-1h3a1 1 0 011 1h2a1 1 0 011 1v5l-1 10.1a1.015 1.015 0 01-1 .9h-8v4.18c.32-.116.659-.177 1-.18.74.002 1.454.28 2 .78a2.973 2.973 0 014.53.62c.447-.26.953-.398 1.47-.4a3.009 3.009 0 013 3v11zM36 16h-3v-1.38l1.45-.73-.9-1.78-2 1A.978.978 0 0031 14v2h-7a1 1 0 00-1 1v3a1 1 0 001 1h.09l.91 9.1c.058.509.487.896 1 .9h8a1.015 1.015 0 001-.9l.91-9.1H36a1 1 0 001-1v-3a1 1 0 00-1-1zm13 3h-1v-4h1v4zm-6 0h-1v-3h1v3zm8 0h1v-3h-1v3zm-6 0h1v-2h-1v2zm-20 0h10v-1H25v1zm-4.02-.2l1 5c.024.118.027.24.01.36l-1 6A1 1 0 0120 31H6a1 1 0 01-.99-.84l-1-6a1.087 1.087 0 01.01-.36l1-5A1 1 0 016 18h14a1 1 0 01.98.8zM6.82 20h12.36l.6 3H6.22l.6-3zm20.09 9h6.18l.8-8h-7.78l.8 8zm16.31 0a3.635 3.635 0 00-.35-.33L42.1 21h9.79l-.8 8h-7.87zm-24.07 0H6.85l-.67-4H10v2a1 1 0 001 1h4a1 1 0 001-1v-2h3.82l-.67 4zM14 26h-2v-1h2v1zm-3 7v2H9v-2h2zm2 2h4v-2h-4v2zm13 0h2v-2h-2v2zm8 0h-4v-2h4v2zm-18 2a1 1 0 011 1v4a1 1 0 01-1 1h-6a1 1 0 01-1-1v-4a1 1 0 011-1h6zm18 1a1 1 0 00-1-1h-6a1 1 0 00-1 1v4a1 1 0 001 1h6a1 1 0 001-1v-4zm-23 3v-2h4v2h-4zm17-2v2h4v-2h-4z" id="Combined-Shape" fill="#FFF" fill-rule="evenodd" stroke="none"/></g></svg>