<svg width="60" height="60" viewBox="0 0 37 60" xmlns="http://www.w3.org/2000/svg"><g id="icon-4"><path d="M36 36h7a2.005 2.005 0 012 2v13c-.002.265-.105.52-.29.71L40 56.41V60h-2v-4c.002-.266.105-.52.29-.71l4.71-4.7V38H29a1 1 0 00-1 1v3a1 1 0 001 1h6a1 1 0 011 1v6a3.01 3.01 0 01-3 3H17v7h-2v-7H3a3.01 3.01 0 01-3-3V3a3.009 3.009 0 013-3h30a3.009 3.009 0 013 3v33zm-7 0h5V3a1 1 0 00-1-1H3a1 1 0 00-1 1v40h24.18a2.99 2.99 0 01-.18-1v-3a3.009 3.009 0 013-3zM19 7.06A9.017 9.017 0 0127 16h1v2H8v-2h1a9.016 9.016 0 018-8.94V6h-1a1 1 0 010-2h4a1 1 0 010 2h-1v1.06zM18 9a7 7 0 00-7 7h14a7 7 0 00-7-7zM8 23h4v-2H8v2zm20 0H15v-2h13v2zm-18 4v-2H8v2h2zm18-2v2H12v-2h16zm-4.64 5.231l-.91.76a5.936 5.936 0 00-8.772 7.996 5.935 5.935 0 009.858-6.297l1.1-.92-1.276-1.539zM22 35.001a4.03 4.03 0 11-1.09-2.728l-2.848 2.374-1.355-1.354-1.414 1.414 2 2a1 1 0 001.347.062l3.24-2.7c.077.305.117.617.12.931zM34 45v5a1 1 0 01-1 1H3a1 1 0 01-1-1v-5h32zm-14 4h-4v-2h4v2z" id="Combined-Shape" fill="#FFF" fill-rule="evenodd" stroke="none"/></g></svg>