<svg width="65" height="64" xmlns="http://www.w3.org/2000/svg"><g id="icon-1"><path d="M45.136 2.816a.886.886 0 01.174.086C56.33 7.963 64.002 19.102 64.002 32c0 17.645-14.357 32-32.002 32a31.93 31.93 0 01-8.312-1.098.778.778 0 01-.165-.041l-.025-.01a31.65 31.65 0 01-3.015-.997c-.024-.006-.05-.01-.073-.019a1.12 1.12 0 01-.117-.053C8.42 57.1 0 45.515 0 32 0 14.355 14.355 0 32 0a31.9 31.9 0 0110.018 1.606 1.036 1.036 0 01.193.064c.986.333 1.949.712 2.89 1.135.01.005.022.006.035.011zm-24.944 57C9.379 55.21 1.781 44.476 1.781 32 1.78 15.336 15.336 1.78 32 1.78c3.02 0 5.936.447 8.69 1.274l-1.312 3.63A26.309 26.309 0 0032 5.638C17.462 5.637 5.634 17.462 5.634 32c0 10.598 6.2 20 15.868 24.189l-1.31 3.627zm4.712-3.413l-1.63 4.53c-.48-.146-.954-.3-1.424-.469l1.6-4.429.006-.014a.734.734 0 00.027-.077l3.787-10.491L42.378 3.616c.45.165.896.34 1.334.526l-8.525 23.69a.943.943 0 00-.081.183c-.013.04-.021.081-.03.124l-6.36 17.677a.28.28 0 00-.02.051L24.91 56.386a.057.057 0 00-.006.017zm.093 4.995c2.248.536 4.593.821 7.003.821 16.664 0 30.22-13.557 30.22-30.219 0-11.88-6.892-22.18-16.884-27.114l-1.312 3.647c8.736 4.486 14.34 13.61 14.34 23.467 0 14.536-11.828 26.362-26.364 26.362-1.92 0-3.83-.208-5.69-.616l-1.313 3.652zm6.361-46.088c-.046.448.023.919.202 1.404 1.35-.07 2.72.041 4.074.34l3.139-8.692A24.587 24.587 0 0032 7.416C18.445 7.416 7.416 18.445 7.416 32c0 9.845 5.736 18.582 14.691 22.51l1.803-4.99a3.177 3.177 0 01-2.57 1.1c-1.49-.078-2.825-1.35-2.974-2.834a3.186 3.186 0 011.96-3.253 4.12 4.12 0 001.575-1.314c-.045-.043-.091-.083-.135-.126a15.188 15.188 0 01-3.052-4.072 4.431 4.431 0 00-1.268.848 3.636 3.636 0 01-.308.275 3.817 3.817 0 01-5.178-.458c-1.18-1.312-1.234-3.576-.117-4.942a3.79 3.79 0 014.439-1.1l.225.094a4.7 4.7 0 00.627.161c-.396-3.171.2-6.361 1.72-9.165a9.738 9.738 0 00-.579-.299c-.681-.326-1.499-.493-2.376-.465l-.073.001a3.704 3.704 0 01-2.573-1.032 3.726 3.726 0 01-1.157-2.827 3.763 3.763 0 011.346-2.752c1.31-1.086 3.244-1.142 4.608-.128a3.714 3.714 0 011.396 2.083c.092.359.221.637.394.848.42.517.944.898 1.506 1.18a15.293 15.293 0 016.718-4.044 7.387 7.387 0 00-.17-.56c-.166-.478-.475-.936-.913-1.36a2.95 2.95 0 012.331-5.053 2.966 2.966 0 012.635 2.504 2.94 2.94 0 01-.385 1.944 1.394 1.394 0 00-.204.536zm1.424 38.03c-.913 0-1.83-.372-2.427-1.066a3.181 3.181 0 01-.265-3.79c.236-.426.372-.857.446-1.266a18.52 18.52 0 01-.416-.056l-3.2 8.892c1.662.35 3.366.528 5.08.528 13.557 0 24.58-11.028 24.58-24.584 0-9.113-5.135-17.553-13.164-21.774l-3.131 8.696c.318.194.629.398.933.616.248-.238.488-.5.72-.789.388-.486.664-1.099.817-1.822a3.302 3.302 0 014.091-2.503 3.33 3.33 0 012.104 1.717 3.324 3.324 0 01-.819 3.999c-.589.5-1.307.772-2.075.787a1.716 1.716 0 00-.722.147 3.77 3.77 0 00-1.297 1.07 15.22 15.22 0 012.965 5.53 3.754 3.754 0 001.414-.702c.114-.092.2-.159.288-.218a3.406 3.406 0 014.57.806c.964 1.279.84 3.253-.279 4.4a3.408 3.408 0 01-4.027.634 4.577 4.577 0 00-1.34-.394 15.215 15.215 0 01-1.82 7.085c.182.101.374.202.58.3.68.326 1.48.48 2.377.465 1.064-.006 1.93.346 2.646 1.03a3.731 3.731 0 01-.192 5.578 3.71 3.71 0 01-2.385.856 3.721 3.721 0 01-3.616-2.81c-.093-.358-.22-.635-.392-.844a4.523 4.523 0 00-1.51-1.183 15.323 15.323 0 01-8.474 4.439c.073.44.228.89.512 1.312l.174.275a3.178 3.178 0 01-1.114 4.187 3.066 3.066 0 01-1.632.453zm-3.17-37.074a9.354 9.354 0 00-.038-.114c-.26-.742-.715-1.432-1.356-2.053a1.143 1.143 0 01-.35-.814 1.162 1.162 0 011.278-1.186 1.17 1.17 0 01.89 1.76c-.25.42-.4.842-.446 1.261-.041.38-.033.763.023 1.146zm13.716 3.593a9.992 9.992 0 01-.714.803c.064.06.13.119.194.18a5.442 5.442 0 011.744-1.37c.418-.205.914-.317 1.469-.326a1.531 1.531 0 001.34-2.205 1.52 1.52 0 00-.975-.799 1.542 1.542 0 00-1.234.197 1.511 1.511 0 00-.654.959c-.213.995-.607 1.857-1.17 2.561zm-17.416 7.483a2.985 2.985 0 011.304-1.894 3.008 3.008 0 014.158.888c.255.392.4.82.455 1.256l3.195-8.848a13.529 13.529 0 00-11.75 3.21c1.492.262 2.795.096 2.819.093a.894.894 0 011.001.761.888.888 0 01-.758 1.002c-.206.035-5.262.69-7.877-2.522-.337-.416-.579-.917-.737-1.533a1.948 1.948 0 00-.738-1.094 1.96 1.96 0 00-2.402.067 1.956 1.956 0 00-.102 2.923c.374.357.86.503 1.386.54 1.208-.032 2.243.193 3.176.638 3.617 1.725 4.356 4.184 4.387 4.288a.892.892 0 01-.858 1.134.894.894 0 01-.856-.645c-.013-.043-.291-.886-1.387-1.848a13.474 13.474 0 00-1.395 8.156c1.297-.202 2.241-.772 2.256-.78a.892.892 0 011.224.287.888.888 0 01-.282 1.224c-.123.077-3.017 1.856-6.193.78a4.259 4.259 0 01-.314-.126c-.877-.374-1.824-.133-2.402.573-.572.7-.544 1.95.063 2.624a2.03 2.03 0 002.755.246c.003 0 .173-.156.174-.156 2.82-2.712 6.845-1.596 7.016-1.546.47.135.743.626.608 1.098a.888.888 0 01-1.097.614 7.008 7.008 0 00-2.242-.171 13.442 13.442 0 002.495 3.224 13.652 13.652 0 002.934 2.128l1.174-3.256a2.783 2.783 0 01-1.796-3.21 2.779 2.779 0 011.212-1.756 2.785 2.785 0 012.479-.276l1.904-5.273a2.982 2.982 0 01-2.678.746 2.989 2.989 0 01-1.893-1.306 2.997 2.997 0 01-.418-2.26zm6.083 16.821a.889.889 0 00-.606-.526l2.984-8.295a2.533 2.533 0 003.813 1.46 2.513 2.513 0 001.1-1.594 2.516 2.516 0 00-.35-1.902s0-.002-.003-.002a2.532 2.532 0 00-3.495-.746c-.028.021-.056.042-.084.061l1.196-3.323a3.538 3.538 0 002.16-.566 3.547 3.547 0 001.55-2.245 3.548 3.548 0 00-.495-2.682 3.593 3.593 0 00-.898-.947l.8-2.223c.71.461 1.383.988 2.002 1.58 4.368 4.163 5.417 10.768 2.669 16.046-1.096-.962-1.375-1.805-1.388-1.848a.89.89 0 10-1.714.49c.031.104.77 2.563 4.385 4.288.933.444 1.965.667 3.177.638a1.964 1.964 0 011.384.54 1.951 1.951 0 01-.104 2.923 1.956 1.956 0 01-3.136-1.024c-.152-.608-.401-1.127-.739-1.536-.776-.952-1.766-1.564-2.78-1.952l-.042-.017c-2.392-.902-4.906-.576-5.055-.553a.89.89 0 00-.758 1.003.9.9 0 001.002.762 10.37 10.37 0 012.817.09 13.542 13.542 0 01-6.456 3.226c.125-.526.288-.875.293-.883a.892.892 0 00-.418-1.187.883.883 0 00-1.184.411c-.038.075-.566 1.186-.595 2.653a1.234 1.234 0 000 .109c-.003.971.216 2.088.938 3.163a1.39 1.39 0 01-.495 1.824c-.512.319-1.37.192-1.77-.267-.404-.474-.452-1.14-.078-1.715l.128-.21c1.295-2.374.288-4.918.245-5.024zm5.213-16.694l1.002-2.783.059.085c.259.4.347.875.246 1.341a1.758 1.758 0 01-.773 1.125 1.857 1.857 0 01-.534.232zm-7.693 1.526a1.21 1.21 0 01-.92.171 1.212 1.212 0 01-.77-.532 1.21 1.21 0 01-.172-.92 1.227 1.227 0 012.229-.41 1.225 1.225 0 01-.367 1.691zm17.891.413c.8-.205 1.543-.58 2.276-1.166a1.62 1.62 0 012.17.387c.426.566.362 1.58-.134 2.088-.502.521-1.275.646-1.99.265a9.86 9.86 0 00-.226-.112 5.809 5.809 0 00-1.96-.472c-.036-.33-.08-.662-.136-.99zm-10.593 4.526a.731.731 0 00-.405.119.75.75 0 00-.222 1.033.748.748 0 001.254-.813.747.747 0 00-.627-.339zm-9.104 5.068l.683-1.892a.997.997 0 00-.906.095 1 1 0 00-.297 1.393.998.998 0 00.52.404zm-4.826 8.633a5.5 5.5 0 01.888-2.926 15.262 15.262 0 01-.494-.349c-.547.74-1.224 1.32-1.994 1.7l-.251.11c-.611.246-.955.817-.893 1.44.06.601.69 1.201 1.296 1.233.731.027 1.363-.491 1.448-1.208zm2.435-2.013l-.64 1.768c.034-.617.244-1.212.628-1.772a.11.11 0 00.012.004z" id="Fill-1" fill="#FFF" fill-rule="evenodd" stroke="none"/></g></svg>