<svg width="55" height="60" xmlns="http://www.w3.org/2000/svg"><g id="icon-5"><path d="M6.737 57.573c1.87 1.432 3.245 2.32 4.622 2.318 1.072 0 2.145-.537 3.449-1.773 1.277-1.208 3.174-1.995 4.626-1.92.749.04 1.31.293 1.719.774 2.787 3.278 5.828 3.652 9.298 1.14.969-.702 1.752-1.418 2.444-2.051l.192-.176c.645-.593 1.43-1.316 1.735-1.256.085.006.328.136.702.588 1.506 1.823 3.514 3.938 5.703 4.117.994.078 1.948-.247 2.75-.948.656-.572 1.281-1.31 1.886-2.022.454-.535 1.16-1.368 1.606-1.714 1.298 1.961 4.255 3.693 5.663 3.294a1.455 1.455 0 001.08-1.406V4.24A4.244 4.244 0 0049.974 0H4.239A4.244 4.244 0 000 4.24v51.772a1.304 1.304 0 002.022 1.089c.024-.016 2.234-1.43 4.715.472zM4.05 53.964c1.255 0 2.743.365 4.275 1.54 3.012 2.308 3.172 2.159 4.69.721 1.812-1.716 4.395-2.745 6.56-2.633 1.46.08 2.694.664 3.567 1.69 1.633 1.922 3.103 2.657 5.78.717.849-.615 1.574-1.278 2.214-1.863 1.297-1.187 2.431-2.207 3.869-2.11.905.063 1.733.563 2.53 1.53 1.682 2.034 2.996 3.103 3.905 3.178.196.012.47-.005.824-.313.508-.444 1.068-1.105 1.61-1.745l.002-.002c1.253-1.477 2.438-2.874 3.907-2.76.511.04 1.239.282 1.808 1.213.484.791 1.319 1.426 2.013 1.822V4.24c0-.899-.73-1.63-1.63-1.63H4.24c-.899 0-1.63.731-1.63 1.63v49.884c.43-.095.914-.159 1.44-.159zm8.503-22.815a1.304 1.304 0 102.609 0v-1.687a5.28 5.28 0 001.123-.35c.975-.433 2.258-1.404 2.827-3.575 1.129-4.298-2.402-5.68-4.74-6.595-2.259-.884-3.328-1.434-3.37-2.661-.045-1.28.437-1.621.596-1.733 1.255-.886 4.43-.077 5.772.454a1.305 1.305 0 00.964-2.425 16.44 16.44 0 00-3.171-.87V9.97a1.304 1.304 0 10-2.609-.002v1.614c-.89.086-1.746.33-2.457.83-.819.578-1.78 1.733-1.703 3.96.109 3.074 2.836 4.14 5.027 4.998 2.917 1.142 3.64 1.706 3.169 3.503-.25.95-.694 1.555-1.358 1.851-.39.173-.82.226-1.31.243-.032-.002-.066-.003-.1-.002-1.383-.03-2.906-.638-3.522-.956a1.304 1.304 0 10-1.204 2.314c.252.132 1.698.855 3.457 1.138v1.687zM37.83 12.352H25.158a1.304 1.304 0 110-2.609H37.83a1.304 1.304 0 110 2.61zm4.214 0h2.153a1.304 1.304 0 100-2.609h-2.154a1.304 1.304 0 100 2.61zm-4.451 8.91H25.348a1.304 1.304 0 110-2.608h12.245a1.304 1.304 0 110 2.608zm3.742 0h2.862a1.305 1.305 0 000-2.608h-2.862a1.304 1.304 0 100 2.608zm2.862 8.912H24.29a1.304 1.304 0 110-2.609h19.908a1.304 1.304 0 110 2.609zm.87 8.91h-23.83a1.304 1.304 0 110-2.61h23.83a1.304 1.304 0 110 2.61zM29.603 48.89a1.307 1.307 0 001.668-.787l.2-.556.655.89c.246.333.636.53 1.05.53h.007a1.303 1.303 0 001.05-.54l.98-1.36.92 1.336c.244.354.646.564 1.075.564h.022a1.303 1.303 0 001.075-.6l.557-.865.048.346c.052.351.243.667.532.875.288.206.648.29.998.222l3.676-.68a1.303 1.303 0 001.044-1.52 1.301 1.301 0 00-1.52-1.045l-2.34.432-.351-2.465a1.306 1.306 0 00-2.389-.52l-1.39 2.162-.857-1.245a1.305 1.305 0 00-2.132-.023l-1.016 1.408-1.046-1.419a1.3 1.3 0 00-1.238-.517c-.477.07-.877.397-1.04.85l-1.025 2.859c-.243.678.11 1.425.787 1.668z" id="Fill-1" fill="#FFF" fill-rule="evenodd" stroke="none"/></g></svg>