<?xml version="1.0" encoding="utf-8"?>
<svg width="24px" height="24px" viewBox="0 0 24 24" version="1.1" xmlns:xlink="http://www.w3.org/1999/xlink" xmlns="http://www.w3.org/2000/svg">
  <desc>Created with Lunacy</desc>
  <defs>
    <path d="M18 4L19 4C19.55 4 20 4.45 20 5C20 5.55 19.55 6 19 6L18 6L18 17C18 18.654 16.654 20 15 20L5 20C3.346 20 2 18.654 2 17L2 6L1 6C0.45 6 0 5.55 0 5C0 4.45 0.45 4 1 4L6 4L6 2.328C6 1.044 7.121 0 8.5 0L11.5 0C12.879 0 14 1.044 14 2.328L14 4L18 4ZM8 2.328C8 2.173 8.214 2 8.5 2L11.5 2C11.786 2 12 2.173 12 2.328L12 4L8 4L8 2.328ZM15 18C15.552 18 16 17.551 16 17L16 6L4 6L4 17C4 17.551 4.448 18 5 18L15 18ZM8 14C8 14.55 7.55 15 7 15C6.45 15 6 14.55 6 14L6 10C6 9.45 6.45 9 7 9C7.55 9 8 9.45 8 10L8 14ZM13 15C13.55 15 14 14.55 14 14L14 10C14 9.45 13.55 9 13 9C12.45 9 12 9.45 12 10L12 14C12 14.55 12.45 15 13 15Z" transform="translate(2 2)" id="path_1" />
    <clipPath id="mask_1">
      <use xlink:href="#path_1" />
    </clipPath>
  </defs>
  <g id="17.-Icon/Medium/.Placeholder">
    <path d="M18 4L19 4C19.55 4 20 4.45 20 5C20 5.55 19.55 6 19 6L18 6L18 17C18 18.654 16.654 20 15 20L5 20C3.346 20 2 18.654 2 17L2 6L1 6C0.45 6 0 5.55 0 5C0 4.45 0.45 4 1 4L6 4L6 2.328C6 1.044 7.121 0 8.5 0L11.5 0C12.879 0 14 1.044 14 2.328L14 4L18 4ZM8 2.328C8 2.173 8.214 2 8.5 2L11.5 2C11.786 2 12 2.173 12 2.328L12 4L8 4L8 2.328ZM15 18C15.552 18 16 17.551 16 17L16 6L4 6L4 17C4 17.551 4.448 18 5 18L15 18ZM8 14C8 14.55 7.55 15 7 15C6.45 15 6 14.55 6 14L6 10C6 9.45 6.45 9 7 9C7.55 9 8 9.45 8 10L8 14ZM13 15C13.55 15 14 14.55 14 14L14 10C14 9.45 13.55 9 13 9C12.45 9 12 9.45 12 10L12 14C12 14.55 12.45 15 13 15Z" transform="translate(2 2)" id="🎨-Icon-Сolor" fill="#007AFF" fill-rule="evenodd" stroke="none" />
  </g>
</svg>