<?xml version="1.0" encoding="utf-8"?>
<svg width="65px" height="65px" viewBox="0 0 65 65" version="1.1" xmlns:xlink="http://www.w3.org/1999/xlink" xmlns="http://www.w3.org/2000/svg">
  <desc>Created with Lunacy</desc>
  <g id="acquiring" transform="translate(0.5 0.5)">
    <path d="M0 0L64 0L64 64L0 64L0 0Z" id="Rectangle" fill="#FFFFFF" fill-opacity="0" stroke="none" />
    <path d="M3.87543 51.27L6.30033 51.27L6.30033 60.73C6.30883 62.5405 7.77983 64.003 9.59033 64L25.6303 64C27.4408 64.003 28.9118 62.5405 28.9203 60.73L28.9203 51.27L31.3754 51.27C32.8559 51.2955 34.0839 50.13 34.1354 48.65L35.2204 5.8C35.2219 5.7105 35.2124 5.6215 35.1904 5.535L34.4354 2.5C34.0654 1.054 32.7774 0.032 31.2854 0L3.93543 0C2.45293 0.058 1.17843 1.0695 0.785431 2.5L0.0304306 5.53C0.00893058 5.6165 -0.00156942 5.7055 0.000430581 5.795L1.11043 48.65C1.16193 50.132 2.39293 51.2985 3.87543 51.27ZM3.85043 49.27L31.3754 49.27C31.7684 49.2875 32.1059 48.992 32.1404 48.6L33.2204 5.88L32.4954 2.97C32.3404 2.4215 31.8544 2.0315 31.2854 2L3.93043 2C3.35593 2.0495 2.87143 2.4465 2.71043 3L2.00043 5.875L3.08543 48.6C3.11993 48.992 3.45743 49.2875 3.85043 49.27ZM6.34043 25.18L28.8754 25.18C29.4279 25.18 29.8754 24.7319 29.8754 24.18L29.8754 5.76995C29.8754 5.21795 29.4279 4.76995 28.8754 4.76995L6.34043 4.76995C5.78793 4.76995 5.34043 5.21795 5.34043 5.76995L5.34043 24.18C5.34043 24.7319 5.78793 25.18 6.34043 25.18ZM35.9707 40.2051C35.9707 40.7571 36.4182 41.2051 36.9707 41.2051C37.5057 41.2056 37.9462 40.7846 37.9707 40.2501L38.7507 5.9446C38.7627 5.3926 38.3252 4.9346 37.7727 4.9226C37.2207 4.9101 36.7627 5.3476 36.7507 5.9001L35.9707 40.2051ZM27.8754 23.18L7.33543 23.18L7.34043 6.76995L27.8754 6.76995L27.8754 23.18ZM14.9056 19.47C15.0931 19.656 15.3466 19.76 15.6106 19.76C15.8686 19.767 16.1196 19.674 16.3106 19.5L24.8106 11C25.2056 10.604 25.2041 9.9625 24.8081 9.5675C24.4116 9.1725 23.7706 9.1735 23.3756 9.57L15.6106 17.345L12.2256 13.965C11.8346 13.574 11.2011 13.574 10.8106 13.965C10.4196 14.3555 10.4196 14.989 10.8106 15.38L14.9056 19.47ZM6.34043 32.5L11.1154 32.5C11.6674 32.5 12.1154 32.052 12.1154 31.5C12.1154 30.948 11.6674 30.5 11.1154 30.5L7.34043 30.5L7.34043 29C7.34043 28.448 6.89293 28 6.34043 28C5.78793 28 5.34043 28.448 5.34043 29L5.34043 31.5C5.34043 32.052 5.78793 32.5 6.34043 32.5ZM19.9956 32.5L15.2206 32.5C14.6681 32.5 14.2206 32.052 14.2206 31.5L14.2206 29C14.2206 28.448 14.6681 28 15.2206 28C15.7726 28 16.2206 28.448 16.2206 29L16.2206 30.5L19.9956 30.5C20.5476 30.5 20.9956 30.948 20.9956 31.5C20.9956 32.052 20.5476 32.5 19.9956 32.5ZM24.1054 32.5L28.8754 32.5C29.4274 32.5 29.8754 32.052 29.8754 31.5C29.8754 30.948 29.4274 30.5 28.8754 30.5L25.1054 30.5L25.1054 29C25.1054 28.448 24.6574 28 24.1054 28C23.5529 28 23.1054 28.448 23.1054 29L23.1054 31.5C23.1054 32.052 23.5529 32.5 24.1054 32.5ZM11.1154 39.03L6.34043 39.03C5.78793 39.03 5.34043 38.582 5.34043 38.03L5.34043 35.53C5.34043 34.9775 5.78793 34.53 6.34043 34.53C6.89293 34.53 7.34043 34.9775 7.34043 35.53L7.34043 37.03L11.1154 37.03C11.6674 37.03 12.1154 37.4775 12.1154 38.03C12.1154 38.582 11.6674 39.03 11.1154 39.03ZM15.2206 39.03L19.9956 39.03C20.5476 39.03 20.9956 38.582 20.9956 38.03C20.9956 37.4775 20.5476 37.03 19.9956 37.03L16.2206 37.03L16.2206 35.53C16.2206 34.9775 15.7726 34.53 15.2206 34.53C14.6681 34.53 14.2206 34.9775 14.2206 35.53L14.2206 38.03C14.2206 38.582 14.6681 39.03 15.2206 39.03ZM28.8754 39.03L24.1054 39.03C23.5529 39.03 23.1054 38.582 23.1054 38.03L23.1054 35.53C23.1054 34.9775 23.5529 34.53 24.1054 34.53C24.6574 34.53 25.1054 34.9775 25.1054 35.53L25.1054 37.03L28.8754 37.03C29.4274 37.03 29.8754 37.4775 29.8754 38.03C29.8754 38.582 29.4274 39.03 28.8754 39.03ZM6.34043 45.5552L11.1154 45.5552C11.6674 45.5552 12.1154 45.1072 12.1154 44.5552C12.1154 44.0027 11.6674 43.5552 11.1154 43.5552L7.34043 43.5552L7.34043 42.0552C7.34043 41.5027 6.89293 41.0552 6.34043 41.0552C5.78793 41.0552 5.34043 41.5027 5.34043 42.0552L5.34043 44.5552C5.34043 45.1072 5.78793 45.5552 6.34043 45.5552ZM19.9956 45.5552L15.2206 45.5552C14.6681 45.5552 14.2206 45.1072 14.2206 44.5552L14.2206 42.0552C14.2206 41.5027 14.6681 41.0552 15.2206 41.0552C15.7726 41.0552 16.2206 41.5027 16.2206 42.0552L16.2206 43.5552L19.9956 43.5552C20.5476 43.5552 20.9956 44.0027 20.9956 44.5552C20.9956 45.1072 20.5476 45.5552 19.9956 45.5552ZM24.1054 45.5552L28.8754 45.5552C29.4274 45.5552 29.8754 45.1072 29.8754 44.5552C29.8754 44.0027 29.4274 43.5552 28.8754 43.5552L25.1054 43.5552L25.1054 42.0552C25.1054 41.5027 24.6574 41.0552 24.1054 41.0552C23.5529 41.0552 23.1054 41.5027 23.1054 42.0552L23.1054 44.5552C23.1054 45.1072 23.5529 45.5552 24.1054 45.5552ZM10.7255 51.27L10.7255 62L9.59033 62C8.88483 62.003 8.30883 61.4355 8.30033 60.73L8.30033 51.27L10.7255 51.27ZM14.3754 62L14.3754 51.27L12.7255 51.27L12.7255 62L14.3754 62ZM25.6303 62L16.3754 62L16.3754 51.27L26.9203 51.27L26.9203 60.73C26.9148 61.437 26.3373 62.0055 25.6303 62Z" transform="translate(11.99977 5E-05)" id="Combined-Shape" fill="#FFFFFF" fill-rule="evenodd" stroke="none" />
  </g>
</svg>