<?xml version="1.0" encoding="utf-8"?>
<svg width="65px" height="65px" viewBox="0 0 65 65" version="1.1" xmlns:xlink="http://www.w3.org/1999/xlink" xmlns="http://www.w3.org/2000/svg">
  <desc>Created with Lunacy</desc>
  <g id="sticker" transform="translate(0.5 0.5)">
    <path d="M0 0L64 0L64 64L0 64L0 0Z" id="Rectangle" fill="#FFFFFF" fill-opacity="0" stroke="none" />
    <path d="M61.9947 30.336L57.8133 25.8987L60.032 20.1813C60.288 19.584 59.9467 18.816 59.3493 18.56L53.8027 16.0853L53.632 10.0267C53.632 9.344 53.0347 8.832 52.352 8.74667L46.2933 8.576L43.8187 3.02933C43.5627 2.432 42.7947 2.09067 42.1973 2.34667L36.48 4.56533L32.0427 0.384C31.5307 -0.128 30.7627 -0.128 30.2507 0.384L25.8133 4.56533L20.096 2.34667C19.4987 2.09067 18.7307 2.432 18.4747 3.02933L16 8.576L9.94133 8.74667C9.25867 8.74667 8.74667 9.344 8.66133 10.0267L8.49067 16.0853L2.944 18.56C2.34667 18.816 2.00533 19.584 2.26133 20.1813L4.48 25.8987L0.384 30.336C-0.128 30.848 -0.128 31.616 0.384 32.128L4.56533 36.5653L2.34667 42.2827C2.09067 42.88 2.432 43.648 3.02933 43.904L8.576 46.3787L8.74667 52.4373C8.74667 53.12 9.344 53.632 10.0267 53.7173L16.0853 53.888L18.56 59.4347C18.816 60.032 19.584 60.3733 20.1813 60.1173L25.8987 57.8987L30.336 62.08C30.592 62.336 30.9333 62.4213 31.1893 62.4213C31.4453 62.4213 31.7867 62.336 32.0427 62.08L36.48 57.8987L42.1982 60.1173C42.7947 60.3733 43.392 60.1173 43.7333 59.6053L62.1653 32.0427C62.4213 31.36 62.4213 30.7627 61.9947 30.336ZM42.112 57.216L36.6507 55.0827C36.224 54.912 35.6267 54.9973 35.2853 55.3387L31.1893 59.264L27.0933 55.3387C26.8373 55.0827 26.496 54.9973 26.24 54.9973C26.0693 54.9973 25.8987 54.9973 25.8133 55.0827L20.5227 57.1307L18.2187 51.9253C18.048 51.4987 17.536 51.1573 17.1093 51.1573L11.392 50.9867L11.2213 45.2693C11.2213 44.7573 10.88 44.3307 10.4533 44.16L5.248 41.856L7.296 36.5653C7.46667 36.1387 7.38133 35.5413 7.04 35.2L3.11467 31.1893L7.04 27.0933C7.38133 26.752 7.46667 26.24 7.296 25.728L5.248 20.4373L10.4533 18.1333C10.88 17.9627 11.2213 17.4507 11.2213 17.024L11.392 11.3067L17.1093 11.136C17.6213 11.136 18.048 10.7947 18.2187 10.368L20.5227 5.16267L25.8133 7.21067C26.24 7.38133 26.8373 7.296 27.1787 6.95467L31.2747 3.02933L35.3707 6.95467C35.712 7.296 36.224 7.38133 36.736 7.21067L42.0267 5.16267L44.3307 10.368C44.5013 10.7947 45.0133 11.136 45.44 11.136L51.1573 11.3067L51.328 17.024C51.328 17.536 51.6693 17.9627 52.096 18.1333L57.3013 20.4373L55.0827 25.728C54.912 26.1547 54.9973 26.752 55.3387 27.0933L59.3493 31.36L59.264 31.5307L53.2907 32.0427C52.7787 32.128 52.352 32.384 52.1813 32.896L50.56 37.3333L44.5013 38.6987C43.8187 38.8693 43.392 39.4667 43.5627 40.1493L44.2579 44.3209C43.992 44.2004 43.7123 43.947 43.7123 43.4138L43.7123 42.7354C43.7123 42.1731 43.2558 41.7183 42.6943 41.7183C42.1328 41.7183 41.678 42.1731 41.678 42.7354L41.678 45.4465C41.678 46.0088 42.1328 46.4645 42.6943 46.4645L44.4016 46.4645L41.1733 49.4507C40.832 49.792 40.6613 50.304 40.832 50.816L42.7093 56.5333L42.112 57.216ZM31.1697 32.2275L16.9335 32.2275C16.3721 32.2275 15.9164 31.7718 15.9164 31.2103L15.9164 16.9742C15.9164 16.4127 16.3721 15.957 16.9335 15.957L31.1697 15.957C31.7312 15.957 32.1869 16.4127 32.1869 16.9742L32.1869 31.2103C32.1869 31.7718 31.7312 32.2275 31.1697 32.2275ZM35.5766 23.0756L35.9153 23.0756C35.9153 23.0756 36.9325 23.0756 36.9325 22.0584L36.9325 21.3809C36.9325 20.3637 35.9153 20.3637 35.9153 20.3637L35.5766 20.3637C35.0151 20.3637 34.5603 19.9089 34.5603 19.3465C34.5603 18.785 35.0151 18.3302 35.5766 18.3302L35.9153 18.3302C35.9153 18.3302 36.9325 18.3302 36.9325 17.313L36.9325 16.9743C36.9325 16.4128 37.3882 15.9571 37.9497 15.9571C38.5112 15.9571 38.966 16.4128 38.966 16.9743L38.966 17.313C38.966 18.3302 39.9832 18.3302 39.9832 18.3302L40.6616 18.3302C40.6616 18.3302 41.6779 18.3302 41.6779 17.313L41.6779 16.9743C41.6779 16.4128 42.1327 15.9571 42.6942 15.9571C43.2566 15.9571 43.7123 16.4128 43.7123 16.9743L43.7123 17.313C43.7123 18.3302 44.7286 18.3302 44.7286 18.3302C45.2901 18.3302 45.7458 18.785 45.7458 19.3465C45.7458 19.9089 45.2901 20.3637 44.7286 20.3637L39.9832 20.3637C39.9832 20.3637 38.966 20.3637 38.966 21.3809L38.966 24.0928C38.966 24.6543 38.5112 25.1091 37.9497 25.1091L35.5766 25.1091C35.0151 25.1091 34.5603 24.6543 34.5603 24.0928C34.5603 23.5313 35.0151 23.0756 35.5766 23.0756ZM18.6283 17.9913C18.2537 17.9913 17.9507 18.2943 17.9507 18.6689L17.9507 29.5156C17.9507 29.8902 18.2537 30.194 18.6283 30.194L29.475 30.194C29.8496 30.194 30.1534 29.8902 30.1534 29.5156L30.1534 18.6689C30.1534 18.2943 29.8496 17.9913 29.475 17.9913L18.6283 17.9913ZM26.7633 27.4822L21.3403 27.4822C20.9657 27.4822 20.6628 27.1793 20.6628 26.8046L20.6628 21.3809C20.6628 21.0063 20.9657 20.7025 21.3403 20.7025L26.7633 20.7025C27.1379 20.7025 27.4417 21.0063 27.4417 21.3809L27.4417 26.8046C27.4417 27.1793 27.1379 27.4822 26.7633 27.4822ZM42.6943 23.0756L44.7287 23.0756C45.2902 23.0756 45.745 23.5313 45.745 24.0928C45.745 24.6543 45.2902 25.1091 44.7287 25.1091L42.6943 25.1091C42.1328 25.1091 41.678 24.6543 41.678 24.0928C41.678 23.5313 42.1328 23.0756 42.6943 23.0756ZM42.1954 29.8709C42.2483 29.8624 42.3012 29.8547 42.3558 29.8547L43.0333 29.8547C43.0333 29.8547 43.7117 29.8547 43.7117 30.8719L43.7117 31.2107C43.7117 31.7722 44.1674 32.2278 44.7289 32.2278C45.2904 32.2278 45.7452 31.7722 45.7452 31.2107L45.7452 29.1772C45.7452 29.1191 45.7376 29.0628 45.729 29.0074C45.7376 28.9519 45.7452 28.8956 45.7452 28.8384C45.7452 28.2761 45.2904 27.8212 44.7289 27.8212L42.3558 27.8212C42.3558 27.8212 41.3386 27.8212 41.3386 26.8041L41.3386 26.4653C41.3386 25.9038 40.8838 25.4481 40.3223 25.4481C39.76 25.4481 39.3051 25.9038 39.3051 26.4653L39.3051 26.8041C39.3051 27.8212 38.2888 27.8212 38.2888 27.8212L35.5769 27.8212C35.0146 27.8212 34.5597 28.2761 34.5597 28.8384C34.5597 28.957 34.5845 29.0705 34.622 29.1772C34.5845 29.2838 34.5597 29.3965 34.5597 29.5159L34.5597 31.2107C34.5597 31.7722 35.0146 32.2278 35.5769 32.2278L36.5941 32.2278L36.5941 30.8719C36.5941 30.3104 37.0489 29.8547 37.6104 29.8547L38.2888 29.8547C38.3426 29.8547 38.3963 29.8624 38.4484 29.8709C38.4774 29.8752 38.5081 29.882 38.5405 29.8897C38.9792 30.0023 39.3051 30.3974 39.3051 30.8719L39.3051 34.2613L41.3386 34.2613L41.3386 30.8719C41.3386 30.3974 41.6646 30.0023 42.1041 29.8897C42.1365 29.882 42.1681 29.8752 42.1954 29.8709ZM43.5627 50.7307L44.5013 53.7173L57.5573 34.176L54.4 34.432L52.864 38.6987C52.6933 39.1253 52.352 39.4667 51.9253 39.552L46.3787 40.832L47.3173 46.464C47.4027 46.8907 47.232 47.4027 46.8907 47.6587L43.5627 50.7307ZM43.712 35.6172C43.712 35.0557 43.2563 34.6 42.6948 34.6C42.1325 34.6 41.6777 35.0557 41.6777 35.6172L41.6777 35.956C41.6777 36.5175 42.1325 36.9723 42.6948 36.9723C43.2563 36.9723 43.712 36.5175 43.712 35.956L43.712 35.6172ZM23.7125 36.6346C23.7125 36.6346 22.6962 36.6346 22.6962 37.6509L22.6962 38.3285C22.6962 38.89 22.2405 39.3457 21.679 39.3457L19.9843 39.3457L19.9843 45.447C19.9843 46.0085 19.5295 46.4642 18.9671 46.4642C18.4056 46.4642 17.9508 46.0085 17.9508 45.447L17.9508 42.3972C17.9508 41.3792 16.9336 41.3792 16.9336 41.3792C16.3721 41.3792 15.9165 40.9243 15.9165 40.3628C15.9165 39.8013 16.3721 39.3457 16.9336 39.3457C16.9336 39.3457 17.9508 39.3457 17.9508 38.3285L17.9508 36.6346L16.9336 36.6346C16.3721 36.6346 15.9165 36.1789 15.9165 35.6175C15.9165 35.0551 16.3721 34.6003 16.9336 34.6003L26.0856 34.6003C26.6471 34.6003 27.1028 35.0551 27.1028 35.6175C27.1028 36.1789 26.6471 36.6346 26.0856 36.6346L23.7125 36.6346ZM36.9329 37.6509C36.9329 36.6346 37.9492 36.6346 37.9492 36.6346C38.5115 36.6346 38.9664 36.1789 38.9664 35.6175C38.9664 35.0551 38.5115 34.6003 37.9492 34.6003L30.8315 34.6003C30.2692 34.6003 29.8144 35.0551 29.8144 35.6175C29.8144 36.1789 30.2692 36.6346 30.8315 36.6346L31.1703 36.6346C31.1703 36.6346 32.1866 36.6346 32.1866 37.6509L32.1866 38.3285C32.1866 38.89 32.6423 39.3457 33.2038 39.3457L35.9157 39.3457C36.4772 39.3457 36.9329 38.89 36.9329 38.3285L36.9329 37.6509ZM40.322 36.9726L39.3057 36.9726L39.3057 38.3286C39.3057 38.8901 38.85 39.3457 38.2886 39.3457L36.9326 39.3457L36.9326 40.3629C36.9326 40.9244 37.3883 41.3792 37.9498 41.3792L40.322 41.3792C40.8835 41.3792 41.3384 40.9244 41.3384 40.3629L41.3384 37.9898C41.3384 37.4283 40.8835 36.9726 40.322 36.9726ZM33.2041 41.7184C32.6426 41.7184 32.1869 42.1733 32.1869 42.7348L32.1869 43.4132C32.1869 44.4303 31.1697 44.4303 31.1697 44.4303L30.8309 44.4303C30.8309 44.4303 29.8138 44.4303 29.8138 43.4132L29.8138 41.3797L30.8309 41.3797C31.3924 41.3797 31.8481 40.924 31.8481 40.3625C31.8481 39.801 31.3924 39.3462 30.8309 39.3462L23.7124 39.3462C23.1509 39.3462 22.6961 39.801 22.6961 40.3625C22.6961 40.924 23.1509 41.3797 23.7124 41.3797L27.7803 41.3797L27.7803 43.4132C27.7803 44.4303 26.7639 44.4303 26.7639 44.4303L26.0855 44.4303C25.5241 44.4303 25.0684 44.8852 25.0684 45.4467C25.0684 46.0082 25.5241 46.4647 26.0855 46.4647L33.2041 46.4647C33.7655 46.4647 34.2204 46.0082 34.2204 45.4467L34.2204 42.7348C34.2204 42.1733 33.7655 41.7184 33.2041 41.7184Z" transform="translate(1 1)" id="Combined-Shape" fill="#FFFFFF" fill-rule="evenodd" stroke="none" />
  </g>
</svg>