<?xml version="1.0" encoding="utf-8"?>
<svg width="65px" height="65px" viewBox="0 0 65 65" version="1.1" xmlns:xlink="http://www.w3.org/1999/xlink" xmlns="http://www.w3.org/2000/svg">
  <desc>Created with Lunacy</desc>
  <g id="Group-24" transform="translate(0.5 0.5)">
    <path d="M0 0L64 0L64 64L0 64L0 0Z" id="Rectangle" fill="#FFFFFF" fill-opacity="0" stroke="none" />
    <path d="M6.236 18.71C6.216 18.159 6.648 17.695 7.2 17.676C7.209 17.675 7.218 17.675 7.228 17.675C7.773 17.662 8.226 18.094 8.238 18.64L8.893 36.966C8.902 37.121 8.902 37.277 8.893 37.433C8.764 39.583 6.917 41.222 4.767 41.093C2.616 40.964 0.978 39.116 1.107 36.966L1.9 14.888C0.707 13.95 0.006 12.518 0 11L0 1C0 0.448 0.448 0 1 0C1.552 0 2 0.448 2 1L2 6L4 6L4 1C4 0.448 4.448 0 5 0C5.552 0 6 0.448 6 1L6 6L8 6L8 1C8 0.448 8.448 0 9 0C9.552 0 10 0.448 10 1L10 11C10.003 11.413 9.956 11.824 9.857 12.225C9.204 14.884 6.519 16.511 3.86 15.858L3.103 37.038C3.083 37.552 3.275 38.052 3.634 38.421C4.389 39.168 5.605 39.168 6.36 38.421C6.719 38.052 6.911 37.552 6.891 37.038L6.236 18.711L6.236 18.71ZM55 16C57.76 15.997 59.997 13.76 60 11L60 7C60 4.238 57.762 2 55 2C52.238 2 50 4.238 50 7L50 11C50.007 12.518 50.706 13.951 51.9 14.889L51.112 36.966C51.027 39.115 52.702 40.927 54.852 41.011C57.001 41.095 58.812 39.421 58.896 37.271C58.9 37.17 58.9 37.067 58.896 36.966L58.237 18.64C58.225 18.094 57.771 17.663 57.227 17.675C57.219 17.675 57.21 17.675 57.202 17.676C56.65 17.696 56.22 18.159 56.239 18.711L56.894 37.038C56.914 37.552 56.722 38.052 56.363 38.421C55.607 39.168 54.393 39.168 53.637 38.421C53.278 38.052 53.086 37.552 53.106 37.038L53.862 15.857C54.234 15.948 54.616 15.996 55 16ZM12 22C12.012 12.063 20.063 4.011 30 4C34.121 3.985 38.119 5.402 41.312 8.008C41.741 8.355 42.371 8.289 42.719 7.859C43.065 7.43 42.999 6.8 42.57 6.453C33.986 -0.493 21.398 0.835 14.453 9.418C8.519 16.752 8.519 27.236 14.453 34.57C14.8 34.999 15.43 35.065 15.859 34.719C16.289 34.371 16.355 33.741 16.008 33.312C13.402 30.119 11.986 26.121 12 22ZM52 7C52 5.343 53.343 4 55 4C56.657 4 58 5.343 58 7L58 11C58 12.657 56.657 14 55 14C53.343 14 52 12.657 52 11L52 7ZM17.2218 31.1211L18.6358 32.5361C18.6358 32.5361 18.6478 32.5431 18.6518 32.5471C18.6008 33.1301 18.8088 33.7061 19.2218 34.1211L20.6368 35.5361C21.4178 36.3161 22.6828 36.3161 23.4638 35.5361L26.2928 38.3641C27.0738 39.1441 28.3398 39.1441 29.1208 38.3641L30.5078 36.9761C36.5258 36.7501 41.8328 32.9711 44.0138 27.3581C44.2118 26.8421 43.9528 26.2641 43.4378 26.0661C42.9218 25.8691 42.3438 26.1271 42.1468 26.6431C40.5658 30.7091 37.0648 33.7231 32.8068 34.6791L33.3638 34.1221C34.1458 33.3411 34.1458 32.0741 33.3638 31.2931L30.5358 28.4641C31.3148 27.6821 31.3148 26.4181 30.5358 25.6361L29.1208 24.2221C29.1138 24.2161 29.1078 24.2101 29.0998 24.2051C29.1538 23.6241 28.9468 23.0491 28.5358 22.6361L27.7118 21.8131C28.7038 21.0611 29.4288 20.0131 29.7838 18.8201L30.4648 16.5511C31.3518 13.6011 29.8028 10.4701 26.9208 9.3841C29.1928 8.8101 31.5798 8.8791 33.8158 9.5841C32.2078 9.9541 31.2058 11.5581 31.5758 13.1641C31.7268 13.8151 32.0898 14.3961 32.6098 14.8161C32.7538 15.4281 33.0628 15.9891 33.5008 16.4401L33.5008 16.4981C33.5028 17.3561 33.7838 18.1911 34.3008 18.8761C33.9898 19.0211 33.7068 19.2201 33.4638 19.4621C32.5668 20.3621 32.3318 21.7291 32.8778 22.8771L32.0498 23.7051C31.6658 24.1021 31.6778 24.7351 32.0738 25.1191C32.4618 25.4931 33.0758 25.4931 33.4638 25.1191L34.8778 23.7051C35.2688 23.3141 35.2688 22.6811 34.8778 22.2911C34.4808 21.9071 34.4698 21.2741 34.8538 20.8771C35.2368 20.4791 35.8698 20.4691 36.2678 20.8521C36.2758 20.8601 36.2838 20.8691 36.2918 20.8771C36.6828 21.2671 37.3158 21.2671 37.7058 20.8771C38.1018 20.4991 38.7248 20.4991 39.1198 20.8771C39.5108 21.2671 39.5108 21.9001 39.1208 22.2911C39.1198 22.2911 39.1198 22.2911 39.1198 22.2921C38.7298 22.6831 38.7298 23.3151 39.1198 23.7061C39.5108 24.0961 39.5108 24.7291 39.1208 25.1201C39.1198 25.1201 39.1198 25.1211 39.1198 25.1211C38.7248 25.4991 38.1018 25.4991 37.7058 25.1211C37.3158 24.7301 36.6828 24.7301 36.2918 25.1211L34.8778 26.5351C34.4808 26.9181 34.4698 27.5521 34.8538 27.9491C35.2368 28.3461 35.8698 28.3571 36.2678 27.9731L37.1188 27.1221C38.2698 27.6501 39.6258 27.4171 40.5338 26.5351C41.3478 25.7201 41.6228 24.5111 41.2428 23.4241C43.1298 23.0671 44.4968 21.4201 44.4998 19.5001C44.4998 19.1031 44.4388 18.7091 44.3188 18.3311C45.8858 16.7791 45.8978 14.2501 44.3458 12.6831C43.8128 12.1441 43.1378 11.7691 42.4008 11.6001C41.9788 9.7861 40.3618 8.5011 38.4998 8.5001C38.0048 8.5031 37.5158 8.6001 37.0568 8.7851C29.7608 4.8791 20.6808 7.6271 16.7748 14.9231C15.0568 18.1321 14.5658 21.8551 15.3928 25.4001C15.4988 25.8521 15.9018 26.1711 16.3658 26.1721C16.4438 26.1721 16.5198 26.1631 16.5948 26.1451C17.1318 26.0181 17.4648 25.4821 17.3398 24.9451C16.7698 22.5181 16.9188 19.9781 17.7688 17.6351C17.8448 18.5151 18.1178 19.3671 18.5688 20.1271C19.4398 21.6051 20.9208 22.6221 22.6128 22.9051L17.2248 28.2921C16.4428 29.0721 16.4418 30.3381 17.2208 31.1201C17.2218 31.1201 17.2218 31.1211 17.2218 31.1211ZM5 14C6.657 14 8 12.657 8 11L8 8L2 8L2 11C2 12.657 3.343 14 5 14ZM43.9926 10.6878C43.6456 10.2588 43.7116 9.6288 44.1406 9.2818C44.5706 8.9348 45.1996 9.0008 45.5466 9.4298C51.4816 16.7638 51.4816 27.2478 45.5466 34.5808C38.6016 43.1638 26.0136 44.4918 17.4306 37.5468C17.0006 37.1988 16.9336 36.5698 17.2816 36.1408C17.6286 35.7108 18.2586 35.6448 18.6876 35.9918C21.8806 38.5968 25.8786 40.0138 29.9996 39.9998C39.9366 39.9888 47.9886 31.9368 47.9996 21.9998C48.0136 17.8788 46.5976 13.8808 43.9926 10.6878ZM41.4998 13.5001C40.9468 13.5001 40.4998 13.0521 40.4998 12.5001C40.5038 11.7661 40.1028 11.0901 39.4568 10.7401C38.4908 10.2171 37.2828 10.5761 36.7598 11.5431C36.7178 11.6201 36.6658 11.6901 36.6048 11.7541C36.2228 12.1521 35.5888 12.1641 35.1918 11.7821C35.0058 11.6051 34.7608 11.5061 34.5048 11.5051C33.9518 11.5021 33.5028 11.9481 33.4998 12.5001C33.5008 12.8611 33.6998 13.1931 34.0188 13.3641C34.3018 13.5251 34.4888 13.8151 34.5188 14.1401C34.5588 14.5731 34.7838 14.9681 35.1378 15.2221C35.4488 15.4421 35.6088 15.8201 35.5478 16.1961L35.5258 16.3281C35.5118 16.3841 35.5038 16.4421 35.4998 16.5001C35.4998 17.6041 36.3958 18.5001 37.4998 18.5001C37.6648 18.5041 37.8258 18.5501 37.9688 18.6341C38.9068 18.5001 39.8538 18.8071 40.5348 19.4661C41.0188 19.9501 41.3208 20.5851 41.3898 21.2661C41.4438 21.2411 41.4958 21.2131 41.5468 21.1831C42.4698 20.6371 42.7758 19.4471 42.2308 18.5241C41.9658 18.0601 42.1128 17.4711 42.5648 17.1851C43.1468 16.8191 43.4998 16.1791 43.4988 15.4911C43.4968 14.3891 42.6018 13.4971 41.4998 13.5001ZM20.2148 15.2841C19.5558 16.4791 19.5828 17.9361 20.2848 19.1071C20.9758 20.2851 22.2428 21.0061 23.6088 21.0001L24.1658 21.0001C25.8768 21.0101 27.3878 19.8871 27.8718 18.2461L28.5528 15.9771C29.0868 14.2181 28.3088 12.3271 26.6928 11.4531C24.8138 10.4371 22.4678 11.1371 21.4528 13.0151L20.2148 15.2841ZM37.293 14.7071C37.684 15.0981 38.316 15.0981 38.707 14.7071C39.098 14.3161 39.098 13.6841 38.707 13.2931C38.317 12.9021 37.684 12.9021 37.293 13.2921L37.293 13.2931C36.902 13.6841 36.902 14.3161 37.293 14.7071ZM41.707 16.7071C42.098 16.3161 42.098 15.6831 41.707 15.2921C41.316 14.9021 40.684 14.9021 40.293 15.2921C39.902 15.6831 39.902 16.3161 40.293 16.7071C40.684 17.0971 41.316 17.0971 41.707 16.7071ZM27 18C27 16.343 25.657 15 24 15C22.343 15 21 16.343 21 18C21 19.657 22.343 21 24 21C25.657 21 27 19.657 27 18ZM24 19C23.448 19 23 18.552 23 18C23 17.448 23.448 17 24 17C24.552 17 25 17.448 25 18C25 18.552 24.552 19 24 19ZM25.5078 22.8291C25.6138 22.8051 25.7198 22.7821 25.8238 22.7521L26.8998 23.8141C26.6768 23.9121 26.4738 24.0501 26.2998 24.2211L19.7288 30.7921L18.6428 29.7061L25.5078 22.8291ZM29.1218 27.0501C28.3408 27.8311 28.3408 29.0971 29.1218 29.8781L31.9498 32.7071L27.7068 36.9501L24.8788 34.1221C24.0978 33.3411 22.8318 33.3411 22.0508 34.1211C22.0498 34.1211 22.0498 34.1221 22.0498 34.1221L20.6498 32.7171C20.6648 32.6981 20.6768 32.6751 20.6908 32.6551L27.7058 25.6401L29.1218 27.0501ZM35.293 31.707C34.902 31.316 34.902 30.683 35.293 30.293C35.684 29.902 36.316 29.902 36.707 30.293C37.098 30.684 37.098 31.316 36.707 31.707C36.316 32.098 35.684 32.098 35.293 31.707ZM24.1719 32C23.7809 31.609 23.7809 30.977 24.1719 30.586C24.5629 30.195 25.1949 30.195 25.5859 30.586L25.5869 30.586C25.9769 30.977 25.9769 31.609 25.5859 32C25.1949 32.391 24.5619 32.391 24.1719 32ZM27.707 32.7071C28.098 33.0981 28.73 33.0981 29.121 32.7071C29.512 32.3161 29.512 31.6841 29.122 31.2931C28.731 30.9021 28.098 30.9021 27.707 31.2931C27.316 31.6841 27.316 32.3161 27.707 32.7071Z" transform="translate(2 11.0001)" id="Combined-Shape" fill="#FFFFFF" fill-rule="evenodd" stroke="none" />
  </g>
</svg>