<?xml version="1.0" encoding="utf-8"?>
<svg width="24px" height="24px" viewBox="0 0 24 24" version="1.1" xmlns:xlink="http://www.w3.org/1999/xlink" xmlns="http://www.w3.org/2000/svg">

  <g id="Icons/Seafood">
    <path d="M22.8686 3.86682L22.7941 3.70421C22.7794 3.67678 22.7647 3.65033 22.7618 3.64935C22.6423 3.41818 22.4973 3.19875 22.3131 2.97835C21.2914 1.75094 19.635 1.30622 18.1411 1.844C17.2272 0.967284 16.0997 0.339378 14.8694 0.0219963C14.6627 -0.0269823 14.4491 0.00632317 14.2679 0.117015C14.0857 0.228686 13.9593 0.40305 13.9094 0.60974C13.8085 1.02998 14.0563 1.44825 14.4756 1.56482C15.3082 1.77935 16.087 2.18195 16.7453 2.73345C15.7314 3.74046 15.3738 5.22745 15.8362 6.59885C17.093 10.3996 16.1448 14.5471 13.3295 17.4604C12.9896 17.8189 12.8093 18.2891 12.8221 18.7838C12.8358 19.2784 13.0415 19.7379 13.4 20.0788C13.7458 20.4059 14.1984 20.5862 14.6842 20.5862L14.6852 20.5862C14.8508 20.5793 15.0183 20.5568 15.2299 20.5088C20.3824 19.0571 23.9892 14.3032 24 8.9508C24.0029 7.20325 23.6121 5.44589 22.8686 3.86682ZM14.4942 18.5457L14.5383 18.4977C17.7092 15.1946 18.7847 10.4427 17.3467 6.09339C17.0881 5.3352 17.2791 4.48983 17.8169 3.91188C18.1744 4.43301 18.4419 5.00508 18.6143 5.61536C18.6711 5.82009 18.8033 5.99151 18.9885 6.09633C19.1736 6.20114 19.3881 6.22661 19.5929 6.17078C19.7986 6.11494 19.969 5.98074 20.0738 5.7956C20.1787 5.61144 20.2051 5.39691 20.1473 5.18728C19.9504 4.48885 19.6546 3.82862 19.2647 3.21834C20.1316 3.15467 20.9682 3.61507 21.3874 4.45456C21.6412 4.98059 21.6754 5.57324 21.4825 6.12474C21.2905 6.67624 20.8947 7.11998 20.3687 7.37467C20.2335 7.43932 20.0905 7.49026 19.9465 7.5265C19.5204 7.6274 19.2549 8.05743 19.3558 8.48453C19.4048 8.69122 19.5312 8.86656 19.7124 8.97823C19.8936 9.0899 20.1071 9.12419 20.3275 9.07227C21.123 8.87538 21.8322 8.42183 22.3445 7.79393C22.9077 12.8338 19.7663 17.5681 14.8282 18.9699C14.7695 18.9816 14.7117 18.9895 14.6744 18.9944C14.6039 18.9944 14.5383 18.9669 14.4903 18.918C14.4403 18.869 14.4139 18.8033 14.4139 18.7338C14.4139 18.6642 14.4423 18.5967 14.4942 18.5457ZM14.6015 12.1474C15.1471 10.7741 14.6259 9.20383 13.3848 8.42409C13.4289 7.46509 13.234 6.50314 12.8177 5.6323C12.6227 5.23852 12.1437 5.07591 11.7509 5.27084C11.3659 5.46186 11.2004 5.93401 11.3836 6.32388C11.6265 6.83032 11.7666 7.38672 11.794 7.94704C11.786 7.94661 11.7768 7.94674 11.768 7.94686C11.7564 7.94702 11.7454 7.94717 11.7382 7.94606C10.6734 7.94606 9.6693 8.51127 9.11683 9.42031C7.54853 11.9672 4.72442 13.415 1.69852 13.2122C0.819843 13.1515 0.0547966 13.8352 0.00287925 14.7188C-0.0216101 15.1293 0.110632 15.5299 0.380015 15.8512C0.475033 15.957 0.579848 16.053 0.731682 16.1676C2.2892 17.2334 4.10925 17.7957 5.99689 17.7957L6.01648 17.7957C8.21758 17.7937 10.357 17.013 12.0409 15.5965C13.1203 14.6924 13.9941 13.5335 14.5652 12.2464C14.5799 12.2131 14.5917 12.1807 14.6015 12.1474ZM13.0851 11.6567C11.8244 14.4171 9.05021 16.2019 6.0155 16.2039L5.99689 16.2039C4.43839 16.2039 2.93474 15.7405 1.65934 14.8746C1.63583 14.856 1.60938 14.8334 1.57313 14.8334C1.5653 14.8334 1.55648 14.8344 1.54767 14.8374L1.60154 14.8011L1.66326 14.804C5.22694 15.0411 8.60255 13.2955 10.4745 10.251C10.7116 9.86112 11.1191 9.60153 11.5677 9.54864C11.4462 9.90422 11.2768 10.2422 11.0642 10.5547C10.8174 10.9181 10.9104 11.4137 11.2729 11.6606C11.4492 11.7811 11.6608 11.8271 11.8704 11.786C12.0791 11.7458 12.2593 11.6273 12.3788 11.4519C12.6364 11.0748 12.8461 10.6702 13.0077 10.2461C13.2594 10.6536 13.2986 11.1561 13.1037 11.6057L13.328 11.7027L13.0851 11.6567Z" transform="translate(-3.772299E-05 1.960235)" id="Combined-Shape" fill="#FF2D55" fill-rule="evenodd" stroke="none" />
  </g>
</svg>
