<?xml version="1.0" encoding="utf-8"?>
<svg width="24px" height="24px" viewBox="0 0 24 24" version="1.1" xmlns:xlink="http://www.w3.org/1999/xlink" xmlns="http://www.w3.org/2000/svg">
  <desc>Created with Lunacy</desc>
  <defs>
    <path d="M15.5614 18.955C15.4034 18.955 15.2444 18.918 15.0984 18.842L9.99938 16.178L4.90138 18.842C4.56338 19.017 4.15538 18.987 3.84938 18.763C3.54138 18.539 3.38838 18.16 3.45338 17.785L4.42438 12.157L0.304379 8.172C0.0303789 7.907 -0.0686211 7.509 0.0483789 7.145C0.165379 6.783 0.478379 6.518 0.856379 6.464L6.55638 5.636L9.10438 0.51C9.44238 -0.17 10.5574 -0.17 10.8954 0.51L13.4434 5.636L19.1434 6.464C19.5214 6.518 19.8344 6.783 19.9514 7.145C20.0684 7.509 19.9694 7.907 19.6954 8.172L15.5754 12.157L16.5464 17.785C16.6114 18.16 16.4574 18.539 16.1504 18.763C15.9764 18.891 15.7694 18.955 15.5614 18.955" transform="translate(2.000221 2.0457)" id="path_1" />
    <clipPath id="mask_1">
      <use xlink:href="#path_1" />
    </clipPath>
  </defs>
  <g id="Icons/star-fill">
    <path d="M15.5614 18.955C15.4034 18.955 15.2444 18.918 15.0984 18.842L9.99938 16.178L4.90138 18.842C4.56338 19.017 4.15538 18.987 3.84938 18.763C3.54138 18.539 3.38838 18.16 3.45338 17.785L4.42438 12.157L0.304379 8.172C0.0303789 7.907 -0.0686211 7.509 0.0483789 7.145C0.165379 6.783 0.478379 6.518 0.856379 6.464L6.55638 5.636L9.10438 0.51C9.44238 -0.17 10.5574 -0.17 10.8954 0.51L13.4434 5.636L19.1434 6.464C19.5214 6.518 19.8344 6.783 19.9514 7.145C20.0684 7.509 19.9694 7.907 19.6954 8.172L15.5754 12.157L16.5464 17.785C16.6114 18.16 16.4574 18.539 16.1504 18.763C15.9764 18.891 15.7694 18.955 15.5614 18.955" transform="translate(2.000221 2.0457)" id="🎨-Icon-Сolor" fill="#007AFF" fill-rule="evenodd" stroke="none" />
  </g>
</svg>