<?xml version="1.0" encoding="utf-8"?>
<svg width="24px" height="24px" viewBox="0 0 24 24" version="1.1" xmlns:xlink="http://www.w3.org/1999/xlink" xmlns="http://www.w3.org/2000/svg">
  <desc>Created with Lunacy</desc>
  <g id="Icons/briefcase">
    <path d="M11 4C11 6.206 9.206 8 7 8C4.794 8 3 6.206 3 4C3 1.794 4.794 0 7 0C9.206 0 11 1.794 11 4ZM7 2C8.103 2 9 2.897 9 4C9 5.103 8.103 6 7 6C5.897 6 5 5.103 5 4C5 2.897 5.897 2 7 2ZM18 7C18 8.654 16.654 10 15 10C13.346 10 12 8.654 12 7C12 5.346 13.346 4 15 4C16.654 4 18 5.346 18 7ZM15 6C15.552 6 16 6.449 16 7C16 7.551 15.552 8 15 8C14.448 8 14 7.551 14 7C14 6.449 14.448 6 15 6ZM19 17C19.553 17 20 16.552 20 16C20 13.243 17.757 11 15 11C13.879 11 12.809 11.374 11.94 12.046C10.673 10.783 8.927 10 7 10C3.141 10 0 13.14 0 17C0 17.552 0.447 18 1 18C1.553 18 2 17.552 2 17C2 14.243 4.243 12 7 12C9.757 12 12 14.243 12 17C12 17.552 12.447 18 13 18C13.553 18 14 17.552 14 17C14 15.787 13.688 14.645 13.144 13.649C13.668 13.234 14.317 13 15 13C16.654 13 18 14.346 18 16C18 16.552 18.447 17 19 17Z" transform="translate(2 3)" id="🎨-Icon-Сolor" fill="#007AFF" fill-rule="evenodd" stroke="none" />
  </g>
</svg>