<?xml version="1.0" encoding="utf-8"?>
<svg width="24px" height="24px" viewBox="0 0 24 24" version="1.1" xmlns:xlink="http://www.w3.org/1999/xlink" xmlns="http://www.w3.org/2000/svg">
  <desc>Created with Lunacy</desc>
  <defs>
    <rect width="24" height="24" id="artboard_1" />
    <clipPath id="clip_1">
      <use xlink:href="#artboard_1" clip-rule="evenodd" />
    </clipPath>
  </defs>
  <g id="Icons/Allergy/Nuts" clip-path="url(#clip_1)">
    <path d="M11.5675 2.22813C12.8174 0.710846 15.1751 0.244286 17.0423 0.244286C18.8011 0.244766 21.1679 0.697886 22.3915 2.08317C23.0246 2.79933 23.435 3.64749 23.6807 4.49565C24.3446 6.78285 24.0009 9.28413 22.3795 11.0952C21.0023 12.6336 18.8865 13.7064 17.0414 14.5699C15.3422 13.7745 13.5043 12.8457 12.1353 11.5411C11.4383 12.3436 10.595 12.96 9.38825 13.3555C7.42649 13.9992 5.06057 13.8696 3.03161 13.6953C1.86569 12.0244 0.565852 10.0353 0.142492 8.01453C-0.176708 6.49053 0.0661717 5.27229 0.614332 4.04493C1.39385 2.29869 3.15065 0.479966 5.07305 0.088286C7.19849 -0.345154 9.90761 0.888926 11.5675 2.22813ZM10.45 4.33389C10.5523 4.01085 10.678 3.68877 10.8321 3.37533C9.67769 2.41869 8.03849 1.57821 6.55385 1.39437L6.26537 2.19693L7.40249 2.55501L8.50409 4.21005L10.45 4.33389ZM6.53657 3.70845L7.74569 5.52477L9.92297 5.66349L10.1347 5.85837C9.96185 7.48077 10.2686 9.15837 11.2276 10.5048C10.6535 11.2027 9.96713 11.7336 8.96681 12.0624C7.78553 12.4497 6.15689 12.5755 3.77705 12.3916C2.43161 10.428 1.72793 8.95629 1.47305 7.73853C1.22249 6.54381 1.41737 5.57805 1.85465 4.59933C2.40953 3.35661 3.52409 2.12589 4.79657 1.59645L4.99721 1.71213L4.50857 3.07101L6.53657 3.70845ZM14.0956 2.99709L15.2606 2.73789L17.0414 3.61965L18.8207 2.73789L19.9862 2.99709L20.1379 2.15613C19.2657 1.78749 18.1588 1.60317 17.0423 1.60269C15.9249 1.60269 14.8166 1.78701 13.9439 2.15565L14.0956 2.99709ZM12.755 3.21261L13.0108 4.62957L15.0844 4.16781L17.0414 5.13693L18.9974 4.16781L21.0719 4.62957L21.3268 3.21261L21.562 3.21261C21.9451 3.71517 22.2076 4.29261 22.3761 4.87437C22.906 6.69933 22.6665 8.73933 21.3676 10.1908C20.5382 11.1163 19.1923 12.0403 17.0414 13.0694C14.891 12.0398 13.5441 11.1168 12.7151 10.1908C11.4153 8.73885 11.1758 6.69741 11.7062 4.87197C11.8751 4.29069 12.1372 3.71421 12.5203 3.21261L12.755 3.21261Z" transform="translate(-7.568915E-05 5.000082)" id="Fill-1" fill="#81858B" fill-rule="evenodd" stroke="none" />
  </g>
</svg>