<?xml version="1.0" encoding="utf-8"?>
<svg width="24px" height="24px" viewBox="0 0 24 24" version="1.1" xmlns:xlink="http://www.w3.org/1999/xlink" xmlns="http://www.w3.org/2000/svg">

  <g id="Icons/Seafood">
    <path d="M7.58174 9.61293C9.29946 7.05939 9.64925 5.32955 9.76127 2.3764L9.76127 2.37613C9.90048 0.862529 11.001 -0.158298 12.454 0.0202327C13.2629 0.140868 14.0705 0.68723 14.5996 1.61893C15.5337 3.2634 15.8046 5.69281 15.4497 8.34249L22.0807 8.34249C22.1903 8.34276 22.2999 8.36591 22.4003 8.40981C23.2878 8.7973 23.8765 9.62694 23.9823 10.5471C24.0685 11.2975 23.8396 12.1056 23.3091 12.7939C23.6333 13.9197 23.3468 15.257 22.4423 16.3871C22.4073 16.4302 22.368 16.4698 22.3246 16.5048C22.4595 17.5189 22.1453 18.6439 21.3652 19.6184C21.3 19.6971 21.2195 19.763 21.1296 19.812C20.8958 20.7273 20.391 21.5901 19.3626 22.4291C19.2196 22.5471 19.0349 22.6139 18.8493 22.6141C16.8922 22.6059 15.355 22.6164 14.1232 22.6248C12.084 22.6386 10.8817 22.6468 9.99688 22.5552C9.28707 22.4817 8.73155 22.3101 8.25494 22.0252C8.03063 21.8909 7.8346 21.7374 7.62375 21.5707C7.32809 21.8793 6.91582 22.0756 6.46263 22.0756L1.61566 22.0756C0.734586 22.0756 0 21.3407 0 20.4599L0 10.766C0 9.8849 0.734586 9.15032 1.61566 9.15032L6.46263 9.15032C6.89455 9.15032 7.28958 9.32912 7.58174 9.61293ZM13.1945 2.41841C13.9302 3.71417 14.2743 6.2626 13.7498 8.99898C13.6612 9.46348 14.0681 9.95653 14.5409 9.95815L21.845 9.95815C22.1469 10.1267 22.3354 10.3852 22.375 10.7323C22.4124 11.0576 22.2718 11.4499 21.946 11.8431L19.1186 11.8431C18.6918 11.8431 18.2995 12.2241 18.2995 12.6509C18.2995 13.0777 18.6918 13.4647 19.1186 13.4587L21.7944 13.4587C21.8561 13.9157 21.743 14.4909 21.3738 15.0744L19.1186 15.0744C18.6918 15.0744 18.2995 15.4554 18.2995 15.8822C18.2995 16.309 18.6918 16.696 19.1186 16.6901L20.7173 16.6901C20.779 17.147 20.6659 17.7222 20.2967 18.3057L19.1186 18.3057C18.6918 18.3057 18.2995 18.6867 18.2995 19.1135C18.2995 19.5403 18.6918 19.9273 19.1186 19.9214L19.3962 19.9214C19.2309 20.2776 18.9681 20.5932 18.5041 20.9985C16.7248 20.9929 15.2834 20.9998 14.1161 21.0054L14.1158 21.0054L14.1157 21.0054C12.0668 21.0152 10.8624 21.021 10.1568 20.9481C9.58624 20.8889 9.36112 20.8049 9.07973 20.6366C8.84546 20.4965 8.52206 20.2286 8.07829 19.871L8.07829 11.6831C10.6052 8.30479 11.2426 5.94189 11.3769 2.45207C11.6295 1.06099 12.8351 1.63804 13.1945 2.41841ZM6.46263 10.766L1.61566 10.766L1.61566 20.4599L6.46263 20.4599C6.46263 19.3813 6.4606 18.3009 6.45856 17.221C6.45449 15.0622 6.45043 12.9051 6.46263 10.766Z" transform="translate(5.333333E-05 -2.664535E-14)" id="Fill-1" fill="#007AFF" fill-rule="evenodd" stroke="none" />
  </g>
</svg>
