<?xml version="1.0" encoding="utf-8"?>
<svg width="24px" height="24px" viewBox="0 0 24 24" version="1.1" xmlns:xlink="http://www.w3.org/1999/xlink" xmlns="http://www.w3.org/2000/svg">
  <desc>Created with Lunacy</desc>
  <defs>
    <rect width="24" height="24" id="artboard_1" />
    <clipPath id="clip_1">
      <use xlink:href="#artboard_1" clip-rule="evenodd" />
    </clipPath>
  </defs>
  <g id="Icons/Allergy/crustaceans" clip-path="url(#clip_1)">
    <path d="M21.6013 15.6345L23.7131 16.9216C23.9953 17.094 24.0846 17.4625 23.9121 17.745C23.7995 17.93 23.6022 18.0324 23.4004 18.0324C23.2941 18.0324 23.1865 18.004 23.0889 17.9446L20.9773 16.6571C20.7675 16.529 20.5269 16.4614 20.2806 16.4614L18.4007 16.4614L18.353 17.1705L19.156 17.1705C19.8714 17.1705 20.557 17.475 21.037 18.0055L22.7187 19.8647C22.9407 20.1097 22.9219 20.4887 22.6763 20.7106C22.5618 20.814 22.4178 20.8652 22.2746 20.8652C22.1112 20.8652 21.9484 20.799 21.8301 20.6682L20.1486 18.8092C19.8952 18.5292 19.5334 18.3685 19.1558 18.3685L18.2196 18.3685C18.1668 18.6037 18.0945 18.8315 18.0052 19.0505L18.8813 19.4096C19.4996 19.6634 19.9913 20.1378 20.2662 20.7466L20.8945 22.1363C21.0307 22.4377 20.897 22.7925 20.5953 22.9289C20.5154 22.965 20.4315 22.9821 20.349 22.9821C20.1209 22.9821 19.903 22.8512 19.8029 22.6297L19.1746 21.24C19.0263 20.9116 18.7606 20.6552 18.4269 20.5183L17.3988 20.0967C16.5934 21.1269 15.3408 21.7873 13.9487 21.7873L10.0931 21.7873C8.69505 21.7873 7.43781 21.1212 6.63274 20.0837L5.5725 20.5183C5.23893 20.6552 4.97332 20.9116 4.82493 21.24L4.19666 22.6297C4.09654 22.8512 3.87867 22.9821 3.65053 22.9821C3.56804 22.9821 3.48435 22.965 3.40425 22.9289C3.1027 22.7925 2.96886 22.4377 3.10509 22.1363L3.73337 20.7466C4.00857 20.1378 4.50027 19.6632 5.11828 19.4096L6.03065 19.0358C5.94423 18.8214 5.87406 18.5987 5.8222 18.3685L4.8441 18.3685C4.46638 18.3685 4.10441 18.5292 3.85129 18.8092L2.16978 20.6682C2.05152 20.7988 1.88859 20.8652 1.72532 20.8652C1.58207 20.8652 1.43813 20.814 1.32364 20.7106C1.07821 20.4887 1.05939 20.1099 1.28119 19.8647L2.9627 18.0055C3.44259 17.475 4.1282 17.1705 4.84393 17.1705L5.68888 17.1705L5.6413 16.4614L3.71933 16.4614C3.4734 16.4614 3.23242 16.529 3.02243 16.6571L0.910834 17.9446C0.813623 18.004 0.705973 18.0324 0.599691 18.0324C0.39774 18.0324 0.200409 17.93 0.0876238 17.745C-0.0845486 17.4623 0.00478936 17.0936 0.287351 16.9215L2.39877 15.6343C2.79652 15.3916 3.25313 15.2634 3.71933 15.2634L5.64506 15.2634C5.66235 15.1304 5.68597 14.9985 5.71506 14.8682C4.52338 14.6411 3.57352 14.0081 2.94267 13.0079C2.90057 12.941 2.87199 12.8664 2.85881 12.7881C2.82476 12.5865 2.82886 12.3805 2.86087 12.1773C1.21701 9.64659 1.38919 7.15728 2.11895 5.64503C2.23824 5.39773 2.4277 5.20639 2.65224 5.08316C2.53021 2.57588 4.27521 0.987821 5.89134 0.371697C7.83675 -0.369877 9.79945 0.0232446 10.6651 1.32737C10.7822 1.504 10.7972 1.72957 10.7046 1.92022C10.6119 2.11105 10.4253 2.23855 10.214 2.2555C8.89033 2.36229 7.91651 2.72529 7.34865 3.31609C8.13934 3.06057 8.95451 3.03061 9.59699 3.25019C10.1299 3.43264 10.5251 3.77527 10.7401 4.2413C10.821 4.41724 10.8164 4.61577 10.7274 4.78674C10.6386 4.95754 10.4782 5.07529 10.2879 5.10969C8.30398 5.46978 6.68118 7.22454 6.52903 7.71607C6.528 7.71949 6.52612 7.7224 6.52509 7.72582C6.52064 7.73917 6.51448 7.75201 6.50918 7.76519C6.50148 7.78384 6.49395 7.80267 6.48453 7.82029C6.47871 7.83142 6.4717 7.84169 6.46502 7.85247C6.45338 7.87113 6.4414 7.88961 6.42788 7.90672C6.4248 7.91066 6.42275 7.91528 6.4195 7.91922C5.72687 8.76211 5.95278 10.1362 6.17613 10.7714C6.58962 11.6119 7.12119 11.9456 7.51089 12.1895C7.51671 12.1929 7.52133 12.196 7.52681 12.1996C8.24716 11.7111 9.10546 11.4407 9.98668 11.4407L10.2403 11.4407L10.2403 10.4674C9.79312 10.2949 9.47445 9.86172 9.47445 9.35427C9.47445 8.69588 10.01 8.16036 10.6682 8.16036C11.3266 8.16036 11.8621 8.69605 11.8621 9.35427C11.8621 9.86172 11.5434 10.2951 11.0961 10.4676L11.0961 11.4411L12.9463 11.4411L12.9463 10.4677C12.4988 10.2952 12.1801 9.86189 12.1801 9.35427C12.1801 8.69605 12.7156 8.16053 13.3742 8.16053C14.0322 8.16053 14.5677 8.69622 14.5677 9.35427C14.5677 9.86172 14.2491 10.2951 13.802 10.4676L13.802 11.4411L14.0555 11.4411C14.9367 11.4411 15.7949 11.7116 16.5152 12.1997C16.5207 12.1961 16.5255 12.1932 16.5309 12.1898C16.9205 11.9461 17.4524 11.6122 17.8661 10.7717C18.0892 10.1366 18.3153 8.76245 17.6225 7.91956C17.6194 7.91562 17.6176 7.91134 17.6143 7.90741C17.6006 7.88995 17.5886 7.8713 17.5768 7.85247C17.5703 7.84186 17.5633 7.83159 17.5575 7.82064C17.5481 7.80301 17.5404 7.78418 17.5327 7.76536C17.5274 7.75218 17.5214 7.73917 17.5171 7.72599C17.5157 7.72257 17.514 7.71966 17.513 7.71624C17.361 7.22471 15.738 5.46995 13.7534 5.10986C13.5628 5.07495 13.4033 4.95703 13.3143 4.7864C13.2258 4.61559 13.221 4.41707 13.3021 4.24164C13.5171 3.77544 13.9123 3.43281 14.445 3.25037C15.0873 3.03079 15.9025 3.06074 16.6932 3.31626C16.1255 2.72546 15.1517 2.36246 13.828 2.25567C13.6169 2.2389 13.4303 2.11122 13.3375 1.92039C13.245 1.72974 13.2598 1.50417 13.3771 1.32755C14.2429 0.0232446 16.2061 -0.369534 18.1508 0.371868C19.7668 0.987992 21.5116 2.57605 21.3898 5.08351C21.6141 5.20656 21.8038 5.39807 21.9232 5.64538C22.6528 7.15728 22.8248 9.64676 21.1811 12.1773C21.2132 12.3805 21.2176 12.5865 21.1834 12.7885C21.17 12.8664 21.1414 12.941 21.0993 13.0081C20.4687 14.0081 19.5186 14.6413 18.327 14.8684C18.3562 14.9987 18.38 15.1304 18.3969 15.2636L20.2807 15.2636C20.7471 15.2636 21.2037 15.3918 21.6013 15.6345ZM8.62813 1.30803C7.96939 1.12953 7.13198 1.1807 6.31835 1.49099C5.02466 1.98423 3.74329 3.17386 3.85197 5.06673C4.4936 5.33389 5.15576 5.8208 5.85934 6.54372C6.45869 5.77237 7.53383 4.84921 8.82341 4.30787C8.32931 4.26817 7.71524 4.40252 7.17801 4.68149C6.81176 4.87146 6.38031 4.81121 6.07823 4.52831C5.7724 4.24147 5.68374 3.80881 5.85215 3.42613C6.18725 2.66539 6.94098 1.75866 8.62813 1.30803ZM15.2189 4.30787C15.7132 4.268 16.3273 4.40252 16.8642 4.68149C17.2304 4.87163 17.6617 4.81156 17.964 4.52814C18.2698 4.2413 18.3588 3.80847 18.1899 3.42596C17.8549 2.66522 17.1014 1.75866 15.4142 1.30803C16.0731 1.1297 16.9102 1.18104 17.7242 1.49099C19.0175 1.98423 20.2989 3.17386 20.1899 5.06673C19.5482 5.33389 18.8864 5.8208 18.1827 6.54355C17.5833 5.77237 16.5082 4.84921 15.2189 4.30787ZM20.502 10.9266C20.5077 10.9317 20.5125 10.9375 20.518 10.9428C21.5228 9.04347 21.3769 7.26938 20.844 6.16566C20.8301 6.13691 20.7906 6.11877 20.7622 6.12921C20.1935 6.33321 19.5491 6.82371 18.8419 7.58942C19.3331 8.46859 19.3439 9.52182 19.2036 10.3479C19.6874 10.3988 20.1366 10.5942 20.502 10.9266ZM3.19802 6.16566C3.21189 6.13674 3.25159 6.11928 3.28 6.12921C3.84838 6.33304 4.49308 6.82371 5.20008 7.58942C4.7089 8.46859 4.69811 9.52182 4.83845 10.3479C4.35445 10.3988 3.90537 10.5942 3.53997 10.9266C3.53432 10.9317 3.5297 10.9375 3.52406 10.943C2.51943 9.04364 2.66525 7.26938 3.19802 6.16566ZM11.0064 9.35427C11.0064 9.16807 10.8546 9.01626 10.6682 9.01626C10.4818 9.01626 10.3302 9.16807 10.3302 9.35427C10.3302 9.54082 10.4818 9.69263 10.6682 9.69263C10.8546 9.69263 11.0064 9.54082 11.0064 9.35427ZM13.3742 9.01626C13.5604 9.01626 13.712 9.16807 13.712 9.35427C13.712 9.54082 13.5604 9.69263 13.3742 9.69263C13.1878 9.69263 13.0358 9.54082 13.0358 9.35427C13.0358 9.16807 13.188 9.01626 13.3742 9.01626ZM17.8994 13.7255C17.7671 13.4818 17.6107 13.2502 17.4327 13.0341C17.8426 12.759 18.3742 12.3288 18.8171 11.5377C19.2605 11.4922 19.5524 11.6822 19.6965 11.813C19.8994 11.9971 20.0141 12.2453 20.0115 12.4813C19.5262 13.184 18.8171 13.6009 17.8994 13.7255ZM4.3459 11.8131C4.14309 11.9973 4.02808 12.2454 4.03082 12.4814C4.51602 13.184 5.22524 13.6009 6.14293 13.7257C6.27539 13.482 6.43165 13.2504 6.60964 13.0342C6.19975 12.7594 5.66817 12.329 5.22524 11.5379C4.78112 11.4924 4.49 11.6822 4.3459 11.8131ZM13.9489 20.5893L10.0933 20.5893C8.42584 20.5893 7.03186 19.286 6.9201 17.6221L6.8133 16.0322C6.75357 15.1443 7.05547 14.2971 7.66355 13.6469C8.27146 12.9968 9.09639 12.6387 9.98651 12.6387L14.0557 12.6387C14.9458 12.6387 15.7709 12.9968 16.3786 13.6469C16.9017 14.2063 17.1965 14.9114 17.2313 15.6629C17.2089 15.7257 17.1945 15.7921 17.1945 15.8626C17.1945 15.9288 17.2078 15.9915 17.2277 16.0509L17.1282 17.532C17.0968 17.605 17.0786 17.6851 17.0786 17.7697C17.0786 17.8114 17.0829 17.852 17.0909 17.891C17.0351 18.254 16.9167 18.5951 16.7493 18.9063C16.6855 18.9643 16.6323 19.0355 16.5974 19.1207C16.5876 19.144 16.5828 19.1678 16.5763 19.1916C16.0006 20.0355 15.0339 20.5893 13.9489 20.5893Z" transform="translate(0 1)" id="Fill-1" fill="#81858B" fill-rule="evenodd" stroke="none" />
  </g>
</svg>