<?xml version="1.0" encoding="utf-8"?>
<svg width="240px" height="240px" viewBox="0 0 240 240" version="1.1" xmlns:xlink="http://www.w3.org/1999/xlink" xmlns="http://www.w3.org/2000/svg">
  <desc>Created with Lunacy</desc>
  <g id="Icons/Order" opacity="0.11604818">
    <path d="M19.1641 47.2904C21.0241 49.0404 23.4741 50.0004 26.0041 50.0004C26.2441 50.0004 26.4741 49.9904 26.7141 49.9804C29.5041 49.7804 32.0741 48.4204 33.8141 46.2504L57.8141 16.2504C61.2641 11.9304 60.5641 5.64044 56.2441 2.19044C51.9441 -1.24956 45.6341 -0.569561 42.1941 3.75044L24.9541 25.3104L16.8441 17.7104C12.8141 13.9204 6.47414 14.1204 2.70414 18.1604C-1.07586 22.1904 -0.865863 28.5204 3.16414 32.2904L19.1641 47.2904ZM180.003 20.0004L90.0031 20.0004C84.4831 20.0004 80.0031 24.4804 80.0031 30.0004C80.0031 35.5204 84.4831 40.0004 90.0031 40.0004L180.003 40.0004C185.523 40.0004 190.003 35.5204 190.003 30.0004C190.003 24.4804 185.523 20.0004 180.003 20.0004ZM26.0041 110C23.4741 110 21.0241 109.04 19.1641 107.29L3.16414 92.2904C-0.865863 88.5204 -1.07586 82.1904 2.70414 78.1604C6.47414 74.1204 12.8141 73.9204 16.8441 77.7104L24.9541 85.3104L42.1941 63.7504C45.6341 59.4404 51.9441 58.7404 56.2441 62.1904C60.5641 65.6404 61.2641 71.9304 57.8141 76.2504L33.8141 106.25C32.0741 108.42 29.5041 109.78 26.7141 109.98C26.4741 109.99 26.2441 110 26.0041 110ZM90.0031 80.0004L180.003 80.0004C185.523 80.0004 190.003 84.4804 190.003 90.0004C190.003 95.5204 185.523 100 180.003 100L90.0031 100C84.4831 100 80.0031 95.5204 80.0031 90.0004C80.0031 84.4804 84.4831 80.0004 90.0031 80.0004ZM19.1641 167.29C21.0241 169.04 23.4741 170 26.0041 170C26.2441 170 26.4741 169.99 26.7141 169.98C29.5041 169.78 32.0741 168.42 33.8141 166.25L57.8141 136.25C61.2641 131.93 60.5641 125.64 56.2441 122.19C51.9441 118.75 45.6341 119.43 42.1941 123.75L24.9541 145.31L16.8441 137.71C12.8141 133.92 6.47414 134.12 2.70414 138.16C-1.07586 142.19 -0.865863 148.52 3.16414 152.29L19.1641 167.29ZM180.003 140L90.0031 140C84.4831 140 80.0031 144.48 80.0031 150C80.0031 155.52 84.4831 160 90.0031 160L180.003 160C185.523 160 190.003 155.52 190.003 150C190.003 144.48 185.523 140 180.003 140Z" transform="translate(19.997862 29.99756)" id="Combined-Shape" fill="none" fill-rule="evenodd" stroke="#002B56" stroke-width="2" stroke-linecap="round" stroke-linejoin="round" />
  </g>
</svg>