<?xml version="1.0" encoding="utf-8"?>
<svg width="24px" height="24px" viewBox="0 0 24 24" version="1.1" xmlns:xlink="http://www.w3.org/1999/xlink" xmlns="http://www.w3.org/2000/svg">

  <defs>
    <path d="M14 2L15 2C16.654 2 18 3.346 18 5L18 17C18 18.654 16.654 20 15 20L3 20C1.346 20 0 18.654 0 17L0 5C0 3.346 1.346 2 3 2L4 2L4 1C4 0.45 4.45 0 5 0C5.55 0 6 0.45 6 1L6 2L12 2L12 1C12 0.45 12.45 0 13 0C13.55 0 14 0.45 14 1L14 2ZM3 4L4 4L4 5C4 5.55 4.45 6 5 6C5.55 6 6 5.55 6 5L6 4L12 4L12 5C12 5.55 12.45 6 13 6C13.55 6 14 5.55 14 5L14 4L15 4C15.551 4 16 4.449 16 5L16 9L2 9L2 5C2 4.449 2.449 4 3 4ZM2 17C2 17.551 2.449 18 3 18L15 18C15.551 18 16 17.551 16 17L16 11L2 11L2 17ZM4 14C4 13.45 4.45 13 5 13C5.55 13 6 13.45 6 14C6 14.55 5.55 15 5 15C4.45 15 4 14.55 4 14ZM13 13L9 13C8.45 13 8 13.45 8 14C8 14.55 8.45 15 9 15L13 15C13.55 15 14 14.55 14 14C14 13.45 13.55 13 13 13Z" transform="translate(3 2)" id="path_1" />
    <rect width="24" height="24" id="artboard_1" />
    <clipPath id="clip_1">
      <use xlink:href="#artboard_1" clip-rule="evenodd" />
    </clipPath>
    <clipPath id="mask_1">
      <use xlink:href="#path_1" />
    </clipPath>
  </defs>
  <g id="Icons/calendar" clip-path="url(#clip_1)">
    <use xlink:href="#artboard_1" stroke="none" fill="#FFFFFF" />
    <path d="M14 2L15 2C16.654 2 18 3.346 18 5L18 17C18 18.654 16.654 20 15 20L3 20C1.346 20 0 18.654 0 17L0 5C0 3.346 1.346 2 3 2L4 2L4 1C4 0.45 4.45 0 5 0C5.55 0 6 0.45 6 1L6 2L12 2L12 1C12 0.45 12.45 0 13 0C13.55 0 14 0.45 14 1L14 2ZM3 4L4 4L4 5C4 5.55 4.45 6 5 6C5.55 6 6 5.55 6 5L6 4L12 4L12 5C12 5.55 12.45 6 13 6C13.55 6 14 5.55 14 5L14 4L15 4C15.551 4 16 4.449 16 5L16 9L2 9L2 5C2 4.449 2.449 4 3 4ZM2 17C2 17.551 2.449 18 3 18L15 18C15.551 18 16 17.551 16 17L16 11L2 11L2 17ZM4 14C4 13.45 4.45 13 5 13C5.55 13 6 13.45 6 14C6 14.55 5.55 15 5 15C4.45 15 4 14.55 4 14ZM13 13L9 13C8.45 13 8 13.45 8 14C8 14.55 8.45 15 9 15L13 15C13.55 15 14 14.55 14 14C14 13.45 13.55 13 13 13Z" transform="translate(3 2)" id="🎨-Icon-Сolor" fill="#007AFF" fill-rule="evenodd" stroke="none" />
  </g>
</svg>
