<?xml version="1.0" encoding="utf-8"?>
<svg width="24px" height="24px" viewBox="0 0 24 24" version="1.1" xmlns:xlink="http://www.w3.org/1999/xlink" xmlns="http://www.w3.org/2000/svg">
  <desc>Created with Lunacy</desc>
  <defs>
    <rect width="24" height="24" id="artboard_1" />
    <clipPath id="clip_1">
      <use xlink:href="#artboard_1" clip-rule="evenodd" />
    </clipPath>
  </defs>
  <g id="Icons/Allergy/strawberry" clip-path="url(#clip_1)">
    <path d="M19.086 3.76016C19.0418 3.4896 18.8305 3.27706 18.5603 3.23122C16.1038 2.81577 14.3285 2.81577 13.2604 3.22577C12.5548 1.69347 10.3182 0.37627 9.78963 0.0813499C9.58639 -0.0321302 9.33731 -0.0266805 9.1392 0.0964165C7.09945 1.36265 6.20026 2.46379 5.81366 3.262C4.78176 2.81545 3.02538 2.80423 0.574664 3.23186C0.304748 3.27899 0.0944574 3.49248 0.0515017 3.76336C0.0364351 3.85825 -0.302402 6.10669 0.978576 7.40274C1.47417 7.9041 2.12171 8.18716 2.91223 8.24967C2.47722 8.95908 2.23295 9.74767 2.23295 10.5786C2.23295 13.1752 5.20427 24 9.67775 24C14.1509 24 17.1226 13.1752 17.1226 10.5786C17.1226 9.73485 16.8709 8.93504 16.4237 8.21697C17.1293 8.11439 17.7146 7.83294 18.1686 7.36972C19.4457 6.06566 19.1011 3.85376 19.086 3.76016ZM12.1897 4.1692C12.2692 3.41298 10.7298 2.14547 9.49375 1.3931C8.05185 2.35416 6.69393 3.68578 6.81543 4.31185C6.86191 4.55067 7.30397 4.87156 8.38588 5.07319C8.5343 5.05332 8.68464 5.03665 8.83627 5.02382L8.83627 3.55852C8.83627 3.20462 9.12318 2.91739 9.4774 2.91739C9.8313 2.91739 10.1185 3.20462 10.1185 3.55852L10.1185 4.99786C10.3933 5.00972 10.6638 5.03376 10.9302 5.06774C11.697 4.81321 12.156 4.48944 12.1897 4.1692ZM1.28183 4.41475C4.72085 3.88069 5.47001 4.50675 5.55561 4.59555C5.5649 4.626 5.57772 4.65485 5.59151 4.68338C5.70274 5.08153 5.94798 5.3851 6.25348 5.61623C6.2445 5.61975 6.23552 5.62296 6.22655 5.62649C6.17013 5.58674 6.10826 5.55308 6.03838 5.53256L4.14255 4.97478C3.80308 4.87508 3.44661 5.06934 3.34659 5.40914C3.24657 5.74894 3.44116 6.10509 3.78064 6.20511L4.64809 6.46028C4.43267 6.60902 4.22943 6.76802 4.03837 6.93471C3.98131 6.92734 3.92361 6.92445 3.86398 6.93311C2.96993 7.06454 2.30636 6.91997 1.89315 6.50387C1.3655 5.97302 1.26676 5.03408 1.28183 4.41475ZM17.2495 6.47534C16.8446 6.88695 16.1997 7.04403 15.336 6.95106C15.1277 6.76802 14.9052 6.59427 14.667 6.43239L15.455 6.20639C15.7954 6.10862 15.9922 5.75343 15.8942 5.41331C15.797 5.07287 15.4422 4.87701 15.1014 4.97382L13.1591 5.53128C13.112 5.54506 13.0681 5.5643 13.0267 5.58706C12.9543 5.55981 12.8812 5.53288 12.8071 5.50692C13.1072 5.24309 13.3053 4.94272 13.403 4.60805C13.4037 4.60613 13.4046 4.60452 13.4053 4.60292C13.4963 4.51188 14.2824 3.87716 17.856 4.41731C17.872 4.97253 17.8054 5.91051 17.2495 6.47534ZM3.51521 10.5786C3.51521 13.2188 6.5734 22.7177 9.67775 22.7177C12.7818 22.7177 15.8403 13.2188 15.8403 10.5786C15.8403 9.63548 15.3995 8.76482 14.6616 8.05445C14.6504 8.04483 14.6398 8.03457 14.6292 8.02431C13.5059 6.96228 11.7076 6.26922 9.67775 6.26922C6.27976 6.26922 3.51521 8.20255 3.51521 10.5786ZM8.84685 8.48154C8.84685 8.12763 9.13408 7.84041 9.48798 7.84041C9.84188 7.84041 10.1291 8.12763 10.1291 8.48154L10.1291 9.24288C10.1291 9.59678 9.84188 9.88401 9.48798 9.88401C9.13408 9.88401 8.84685 9.59678 8.84685 9.24288L8.84685 8.48154ZM7.71971 9.62371L7.71971 8.86237C7.71971 8.50846 7.43248 8.22124 7.07858 8.22124C6.72468 8.22124 6.43745 8.50846 6.43745 8.86237L6.43745 9.62371C6.43745 9.97761 6.72468 10.2648 7.07858 10.2648C7.43248 10.2648 7.71971 9.97761 7.71971 9.62371ZM12.5387 9.62371L12.5387 8.86237C12.5387 8.50846 12.2514 8.22124 11.8975 8.22124C11.5436 8.22124 11.2564 8.50846 11.2564 8.86237L11.2564 9.62371C11.2564 9.97761 11.5436 10.2648 11.8975 10.2648C12.2514 10.2648 12.5387 9.97761 12.5387 9.62371ZM5.30999 9.98435L5.30999 10.7457C5.30999 11.0996 5.02276 11.3868 4.66886 11.3868C4.31495 11.3868 4.02773 11.0996 4.02773 10.7457L4.02773 9.98435C4.02773 9.63044 4.31495 9.34321 4.66886 9.34321C5.02276 9.34321 5.30999 9.63044 5.30999 9.98435ZM13.6663 9.98435C13.6663 9.63044 13.9535 9.34321 14.3074 9.34321C14.6613 9.34321 14.9486 9.63044 14.9486 9.98435L14.9486 10.7457C14.9486 11.0996 14.6613 11.3868 14.3074 11.3868C13.9535 11.3868 13.6663 11.0996 13.6663 10.7457L13.6663 9.98435ZM8.06111 11.8591C7.70721 11.8591 7.41998 12.1463 7.41998 12.5002L7.41998 13.2615C7.41998 13.6155 7.70721 13.9027 8.06111 13.9027C8.41502 13.9027 8.70224 13.6155 8.70224 13.2615L8.70224 12.5002C8.70224 12.1463 8.41502 11.8591 8.06111 11.8591ZM11.454 12.5002L11.454 13.2615C11.454 13.6155 11.1667 13.9027 10.8128 13.9027C10.4589 13.9027 10.1717 13.6155 10.1717 13.2615L10.1717 12.5002C10.1717 12.1463 10.4589 11.8591 10.8128 11.8591C11.1667 11.8591 11.454 12.1463 11.454 12.5002ZM6.06681 13.2615L6.06681 14.0229C6.06681 14.3768 5.77958 14.664 5.42568 14.664C5.07178 14.664 4.78455 14.3768 4.78455 14.0229L4.78455 13.2615C4.78455 12.9076 5.07178 12.6204 5.42568 12.6204C5.77958 12.6204 6.06681 12.9076 6.06681 13.2615ZM13.4578 12.6204C13.1039 12.6204 12.8167 12.9076 12.8167 13.2615L12.8167 14.0229C12.8167 14.3768 13.1039 14.664 13.4578 14.664C13.8117 14.664 14.0989 14.3768 14.0989 14.0229L14.0989 13.2615C14.0989 12.9076 13.8117 12.6204 13.4578 12.6204ZM9.48798 15.2198C9.13408 15.2198 8.84685 15.5071 8.84685 15.861L8.84685 16.6223C8.84685 16.9762 9.13408 17.2635 9.48798 17.2635C9.84188 17.2635 10.1291 16.9762 10.1291 16.6223L10.1291 15.861C10.1291 15.5071 9.84188 15.2198 9.48798 15.2198ZM5.78539 16.2415C5.78539 15.8876 6.07261 15.6004 6.42652 15.6004C6.78042 15.6004 7.06765 15.8876 7.06765 16.2415L7.06765 17.0028C7.06765 17.3571 6.78042 17.644 6.42652 17.644C6.07261 17.644 5.78539 17.3571 5.78539 17.0028L5.78539 16.2415ZM12.5493 15.6004C12.1954 15.6004 11.9082 15.8876 11.9082 16.2415L11.9082 17.0028C11.9082 17.3571 12.1954 17.644 12.5493 17.644C12.9032 17.644 13.1905 17.3571 13.1905 17.0028L13.1905 16.2415C13.1905 15.8876 12.9032 15.6004 12.5493 15.6004ZM8.0489 18.2035C7.69499 18.2035 7.40777 18.4908 7.40777 18.8447L7.40777 19.606C7.40777 19.9599 7.69499 20.2471 8.0489 20.2471C8.4028 20.2471 8.69003 19.9599 8.69003 19.606L8.69003 18.8447C8.69003 18.4908 8.4028 18.2035 8.0489 18.2035ZM10.3855 18.8447C10.3855 18.4908 10.6728 18.2035 11.0267 18.2035C11.3806 18.2035 11.6678 18.4908 11.6678 18.8447L11.6678 19.606C11.6678 19.9599 11.3806 20.2471 11.0267 20.2471C10.6728 20.2471 10.3855 19.9599 10.3855 19.606L10.3855 18.8447Z" transform="translate(2 0)" id="Combined-Shape" fill="#81858B" fill-rule="evenodd" stroke="none" />
  </g>
</svg>