<?xml version="1.0" encoding="utf-8"?>
<svg width="24px" height="24px" viewBox="0 0 24 24" version="1.1" xmlns:xlink="http://www.w3.org/1999/xlink" xmlns="http://www.w3.org/2000/svg">
  <desc>Created with Lunacy</desc>
  <defs>
    <rect width="24" height="24" id="artboard_1" />
    <clipPath id="clip_1">
      <use xlink:href="#artboard_1" clip-rule="evenodd" />
    </clipPath>
  </defs>
  <g id="Icons/add-to-order" clip-path="url(#clip_1)">
    <path d="M1.91641 4.72904C2.10241 4.90404 2.34741 5.00004 2.60041 5.00004C2.62441 5.00004 2.64741 4.99904 2.67141 4.99804C2.95041 4.97804 3.20741 4.84204 3.38141 4.62504L5.78141 1.62504C6.12641 1.19304 6.05641 0.564044 5.62441 0.219044C5.19441 -0.124956 4.56341 -0.0569561 4.21941 0.375044L2.49541 2.53104L1.68441 1.77104C1.28141 1.39204 0.647414 1.41204 0.270414 1.81604C-0.107586 2.21904 -0.0865863 2.85204 0.316414 3.22904L1.91641 4.72904ZM9.00031 2.00004L18.0003 2.00004C18.5523 2.00004 19.0003 2.44804 19.0003 3.00004C19.0003 3.55204 18.5523 4.00004 18.0003 4.00004L9.00031 4.00004C8.44831 4.00004 8.00031 3.55204 8.00031 3.00004C8.00031 2.44804 8.44831 2.00004 9.00031 2.00004ZM2.60041 11C2.34741 11 2.10241 10.904 1.91641 10.729L0.316414 9.22904C-0.0865863 8.85204 -0.107586 8.21904 0.270414 7.81604C0.647414 7.41204 1.28141 7.39204 1.68441 7.77104L2.49541 8.53104L4.21941 6.37504C4.56341 5.94404 5.19441 5.87404 5.62441 6.21904C6.05641 6.56404 6.12641 7.19304 5.78141 7.62504L3.38141 10.625C3.20741 10.842 2.95041 10.978 2.67141 10.998C2.64741 10.999 2.62441 11 2.60041 11ZM9.00031 8.00004L18.0003 8.00004C18.5523 8.00004 19.0003 8.44804 19.0003 9.00004C19.0003 9.55204 18.5523 10 18.0003 10L16.0212 10L16 10L15.9788 10L9.00031 10C8.44831 10 8.00031 9.55204 8.00031 9.00004C8.00031 8.44804 8.44831 8.00004 9.00031 8.00004ZM16 19C18.2091 19 20 17.2091 20 15C20 12.7909 18.2091 11 16 11C13.7909 11 12 12.7909 12 15C12 17.2091 13.7909 19 16 19ZM1.91641 16.729C2.10241 16.904 2.34741 17 2.60041 17C2.62441 17 2.64741 16.999 2.67141 16.998C2.95041 16.978 3.20741 16.842 3.38141 16.625L5.78141 13.625C6.12641 13.193 6.05641 12.564 5.62441 12.219C5.19441 11.875 4.56341 11.943 4.21941 12.375L2.49541 14.531L1.68441 13.771C1.28141 13.392 0.647414 13.412 0.270414 13.816C-0.107586 14.219 -0.0865863 14.852 0.316414 15.229L1.91641 16.729ZM17 14L17 12.999Q17 12.9006 16.9808 12.8041Q16.9616 12.7076 16.924 12.6167Q16.8863 12.5258 16.8316 12.444Q16.777 12.3622 16.7074 12.2926Q16.6378 12.223 16.556 12.1684Q16.4742 12.1137 16.3833 12.076Q16.2924 12.0384 16.1959 12.0192Q16.0994 12 16.001 12L15.999 12Q15.9006 12 15.8041 12.0192Q15.7076 12.0384 15.6167 12.076Q15.5258 12.1137 15.444 12.1684Q15.3622 12.223 15.2926 12.2926Q15.223 12.3622 15.1684 12.444Q15.1137 12.5258 15.076 12.6167Q15.0384 12.7076 15.0192 12.8041Q15 12.9006 15 12.999L15 14L13.999 14Q13.9006 14 13.8041 14.0192Q13.7076 14.0384 13.6167 14.076Q13.5258 14.1137 13.444 14.1684Q13.3622 14.223 13.2926 14.2926Q13.223 14.3622 13.1684 14.444Q13.1137 14.5258 13.076 14.6167Q13.0384 14.7076 13.0192 14.8041Q13 14.9006 13 14.999L13 15.001Q13 15.0994 13.0192 15.1959Q13.0384 15.2924 13.076 15.3833Q13.1137 15.4742 13.1684 15.556Q13.223 15.6378 13.2926 15.7074Q13.3622 15.777 13.444 15.8316Q13.5258 15.8863 13.6167 15.924Q13.7076 15.9616 13.8041 15.9808Q13.9006 16 13.999 16L15 16L15 17.001Q15 17.0994 15.0192 17.1959Q15.0384 17.2924 15.076 17.3833Q15.1137 17.4742 15.1684 17.556Q15.223 17.6378 15.2926 17.7074Q15.3622 17.777 15.444 17.8316Q15.5258 17.8863 15.6167 17.924Q15.7076 17.9616 15.8041 17.9808Q15.9006 18 15.999 18L16.001 18Q16.0994 18 16.1959 17.9808Q16.2924 17.9616 16.3833 17.924Q16.4742 17.8863 16.556 17.8316Q16.6378 17.777 16.7074 17.7074Q16.777 17.6378 16.8316 17.556Q16.8863 17.4742 16.924 17.3833Q16.9616 17.2924 16.9808 17.1959Q17 17.0994 17 17.001L17 16L18.001 16Q18.0994 16 18.1959 15.9808Q18.2924 15.9616 18.3833 15.924Q18.4742 15.8863 18.556 15.8316Q18.6378 15.777 18.7074 15.7074Q18.777 15.6378 18.8316 15.556Q18.8863 15.4742 18.924 15.3833Q18.9616 15.2924 18.9808 15.1959Q19 15.0994 19 15.001L19 14.999Q19 14.9006 18.9808 14.8041Q18.9616 14.7076 18.924 14.6167Q18.8863 14.5258 18.8316 14.444Q18.777 14.3622 18.7074 14.2926Q18.6378 14.223 18.556 14.1684Q18.4742 14.1137 18.3833 14.076Q18.2924 14.0384 18.1959 14.0192Q18.0994 14 18.001 14L17 14ZM11 15C11 14.6575 11.0344 14.3231 11.1 14L9.00031 14C8.44831 14 8.00031 14.448 8.00031 15C8.00031 15.552 8.44831 16 9.00031 16L11.1 16C11.0344 15.6769 11 15.3425 11 15Z" transform="translate(2 3)" id="Combined-Shape" fill="#FFFFFF" fill-rule="evenodd" stroke="none" />
  </g>
</svg>