<?xml version="1.0" encoding="utf-8"?>
<svg width="41px" height="41px" viewbox="0 0 41 41" version="1.1" xmlns:xlink="http://www.w3.org/1999/xlink" xmlns="http://www.w3.org/2000/svg">
  <defs>
    <path d="M7.00284 9.0759L4.575 7.368C4.123 7.05 3.5 7.159 3.182 7.611C2.864 8.062 2.973 8.686 3.425 9.004L7.425 11.818C7.598 11.939 7.799 12 8 12C8.211 12 8.423 11.933 8.6 11.8L12.6 8.8C13.042 8.469 13.132 7.842 12.8 7.4C12.469 6.958 11.842 6.867 11.4 7.2L9 8.99982L9 1C9 0.448 8.553 0 8 0C7.447 0 7 0.448 7 1L7 9C7 9.02553 7.00096 9.05084 7.00284 9.0759ZM1 13C1.55 13 2 13.45 2 14L2 15L14 15L14 14C14 13.45 14.45 13 15 13C15.55 13 16 13.45 16 14L16 16C16 16.55 15.55 17 15 17L1 17C0.45 17 0 16.55 0 16L0 14C0 13.45 0.45 13 1 13Z" transform="translate(4 3)" id="path_1" />
    <clipPath id="mask_1">
      <use xlink:href="#path_1" />
    </clipPath>
  </defs>
  <g id="download" transform="translate(0.5 0.5)">
    <path d="M20 40C31.0457 40 40 31.0457 40 20C40 8.9543 31.0457 0 20 0C8.9543 0 0 8.9543 0 20C0 31.0457 8.9543 40 20 40Z" id="Oval" fill="#007AFF" fill-opacity="0.09803922" fill-rule="evenodd" stroke="none" />
    <g id="Icons-download" transform="translate(8 8)">
      <path d="M7.00284 9.0759L4.575 7.368C4.123 7.05 3.5 7.159 3.182 7.611C2.864 8.062 2.973 8.686 3.425 9.004L7.425 11.818C7.598 11.939 7.799 12 8 12C8.211 12 8.423 11.933 8.6 11.8L12.6 8.8C13.042 8.469 13.132 7.842 12.8 7.4C12.469 6.958 11.842 6.867 11.4 7.2L9 8.99982L9 1C9 0.448 8.553 0 8 0C7.447 0 7 0.448 7 1L7 9C7 9.02553 7.00096 9.05084 7.00284 9.0759ZM1 13C1.55 13 2 13.45 2 14L2 15L14 15L14 14C14 13.45 14.45 13 15 13C15.55 13 16 13.45 16 14L16 16C16 16.55 15.55 17 15 17L1 17C0.45 17 0 16.55 0 16L0 14C0 13.45 0.45 13 1 13Z" transform="translate(4 3)" id="??-Icon-Ñolor" fill="#007AFF" fill-rule="evenodd" stroke="none" />
    </g>
  </g>
</svg>