<?xml version="1.0" encoding="utf-8"?>
<svg width="24px" height="24px" viewBox="0 0 24 24" version="1.1" xmlns:xlink="http://www.w3.org/1999/xlink" xmlns="http://www.w3.org/2000/svg">

  <g id="Icons/Seafood">
    <path d="M21.6382 9.04827C23.0922 9.93207 24 11.5182 24 13.257C24 15.5041 22.4906 17.4043 20.435 17.9919C19.3765 19.4869 17.6371 20.4647 15.6735 20.4647C15.5243 20.4647 15.3766 20.4589 15.2302 20.4478L15.2302 23.2448C15.2302 23.6619 14.893 24 14.477 24L9.90477 24C9.48883 24 9.1516 23.6619 9.1516 23.2448L9.1516 20.6233L8.69213 20.0096C8.49795 20.0293 8.30119 20.0399 8.10197 20.0399C5.81716 20.0399 3.83506 18.7167 2.87713 16.7945C1.18143 16.0182 0 14.3019 0 12.314C0 11.081 0.456841 9.90139 1.2865 8.99244C1.99118 8.22031 2.913 7.69857 3.92257 7.49179C4.22101 6.62277 4.7624 5.84384 5.48078 5.26094C6.16677 4.70437 6.99374 4.34513 7.86242 4.21841C8.20417 1.83651 10.253 0 12.7216 0C13.7894 0 14.8047 0.337897 15.6578 0.977207C16.3321 1.48247 16.8711 2.16355 17.2118 2.93153C19.7637 3.10413 21.787 5.24092 21.787 7.84272C21.787 8.25269 21.7372 8.656 21.6382 9.04827ZM15.8057 14.1482C16.205 15.6325 17.5559 16.6692 19.0907 16.6692C20.9671 16.6692 22.4937 15.1385 22.4937 13.257C22.4937 11.8886 21.6826 10.6565 20.4273 10.1183C20.0488 9.95596 19.8703 9.51899 20.0267 9.1371C20.1953 8.72524 20.2807 8.28974 20.2807 7.84262C20.2807 6.16966 19.0734 4.77502 17.4866 4.48631C17.4892 4.5513 17.4907 4.61643 17.4907 4.6818C17.4907 5.94254 17.001 7.12784 16.1119 8.01934C15.9649 8.16683 15.7721 8.24056 15.5793 8.24056C15.3866 8.24056 15.1939 8.16683 15.0469 8.01938C14.7527 7.72448 14.7527 7.24636 15.0469 6.95141C15.6514 6.34519 15.9844 5.53917 15.9844 4.68185C15.9844 4.00422 15.7867 3.32309 15.3351 2.73164C14.704 1.97211 13.759 1.51032 12.7216 1.51032C10.8452 1.51032 9.31867 3.04098 9.31867 4.92242C9.31867 5.33947 8.98144 5.67761 8.5655 5.67761C7.77802 5.67761 7.03903 5.93947 6.4283 6.43496C5.83453 6.91677 5.4152 7.59072 5.24767 8.33274C5.17579 8.65109 4.90804 8.88709 4.58404 8.91782C3.74558 8.99734 2.96911 9.38598 2.3977 10.012C1.82285 10.6419 1.50628 11.4594 1.50628 12.314C1.50628 14.1954 3.0329 15.7261 4.90927 15.7261C5.97702 15.7261 6.96244 15.237 7.61261 14.3843C7.73782 14.2201 7.92465 14.1146 8.12961 14.0922C8.33461 14.0699 8.53971 14.1329 8.69721 14.2663C9.16624 14.664 9.76294 14.883 10.3771 14.883C11.1046 14.883 11.7797 14.5891 12.2781 14.0554C12.4522 13.8692 12.7084 13.7836 12.9588 13.828C13.155 13.8627 13.3553 13.8803 13.5542 13.8803C13.9834 13.8803 14.4032 13.8003 14.8021 13.6425C14.891 13.6073 14.9849 13.5898 15.0785 13.5898C15.1947 13.5898 15.3106 13.6167 15.4168 13.6702C15.6084 13.7667 15.7498 13.9406 15.8057 14.1482ZM13.7238 19.9473C13.7238 19.7861 13.7753 19.6292 13.8706 19.4994L15.7851 16.8933C15.5211 16.6524 15.2826 16.3823 15.0751 16.0872L14.0747 17.4491C13.8818 17.7118 13.5424 17.8206 13.2332 17.7187C12.9241 17.6169 12.7152 17.3275 12.7152 17.0012L12.7152 15.6588C12.3918 15.8827 12.0386 16.0597 11.6667 16.1834L11.6667 17.4521C11.6667 17.7772 11.4594 18.0657 11.1519 18.1686C10.8446 18.2714 10.5058 18.1655 10.3113 17.9056L8.99965 16.154C8.76796 16.0712 8.54347 15.9683 8.32962 15.8451C8.16166 16.0096 7.9834 16.1606 7.79624 16.2977L10.5071 19.918C10.605 20.0487 10.6579 20.2078 10.6579 20.3713L10.6579 22.4896L13.7238 22.4896L13.7238 19.9473ZM5.02097 17.2351C5.5093 17.2243 5.98474 17.1426 6.43536 16.9957L7.558 18.495C6.57098 18.3704 5.68653 17.9114 5.02097 17.2351ZM18.2429 18.1048C17.6472 18.5466 16.9353 18.8394 16.162 18.9268L17.0421 17.7288C17.4208 17.9037 17.824 18.031 18.2429 18.1048Z" transform="translate(-2.823529E-05 -4.715127E-06)" id="Fill-1" fill="#4CD964" fill-rule="evenodd" stroke="none" />
  </g>
</svg>
