<?xml version="1.0" encoding="utf-8"?>
<svg width="24px" height="24px" viewBox="0 0 24 24" version="1.1" xmlns:xlink="http://www.w3.org/1999/xlink" xmlns="http://www.w3.org/2000/svg">
  <desc>Created with Lunacy</desc>
  <defs>
    <rect width="24" height="24" id="artboard_1" />
    <clipPath id="clip_1">
      <use xlink:href="#artboard_1" clip-rule="evenodd" />
    </clipPath>
  </defs>
  <g id="Icons/Allergy/Milk" clip-path="url(#clip_1)">
    <path d="M14.9408 6.95025C14.9333 6.9315 14.922 6.915 14.913 6.897C14.8988 6.861 14.8815 6.8265 14.8605 6.7935L12.4845 3.39975L12.4845 0.75C12.4845 0.336 12.1485 0 11.7345 0L3.25725 0C2.84325 0 2.50725 0.336 2.50725 0.75L2.50725 3.4005L0.132 6.79425C0.11175 6.8265 0.09375 6.861 0.0795 6.89625C0.07125 6.915 0.05925 6.9315 0.05175 6.951C0.0195 7.032 0.0015 7.11825 0 7.20525L0 23.235C0 23.649 0.336 23.985 0.75 23.985L14.2463 23.985C14.661 23.985 14.9963 23.649 14.9963 23.235L14.9963 7.20525C14.9925 7.1175 14.9745 7.03125 14.9408 6.95025ZM4.00725 2.88675L10.9823 2.88675L10.9823 1.5L4.00725 1.5L4.00725 2.88675ZM4.698 4.38675L6.159 6.474L12.8055 6.474L11.3445 4.38675L4.698 4.38675ZM4.3275 6.474L3.25725 4.94475L2.18625 6.474L4.3275 6.474ZM1.49625 22.485L5.02125 22.485L5.02125 7.974L1.49625 7.974L1.49625 22.485ZM13.4963 22.485L6.52125 22.485L6.52125 7.974L13.4963 7.974L13.4963 22.485ZM2.50732 11.5244C2.50732 11.1104 2.84332 10.7744 3.25733 10.7744C3.67133 10.7744 4.00733 11.1104 4.00733 11.5244L4.00733 19.6837C4.00733 20.0977 3.67133 20.4337 3.25733 20.4337C2.84332 20.4337 2.50732 20.0977 2.50732 19.6837L2.50732 11.5244ZM11.9964 12.474L8.0214 12.474C7.6074 12.474 7.2714 12.138 7.2714 11.724C7.2714 11.31 7.6074 10.974 8.0214 10.974L11.9964 10.974C12.4104 10.974 12.7464 11.31 12.7464 11.724C12.7464 12.138 12.4104 12.474 11.9964 12.474ZM11.9963 13.224L10.2712 13.224C9.85725 13.224 9.52125 13.56 9.52125 13.974C9.52125 14.388 9.85725 14.724 10.2712 14.724L11.9963 14.724C12.4102 14.724 12.7463 14.388 12.7463 13.974C12.7463 13.56 12.4102 13.224 11.9963 13.224ZM23.2464 14.2501C23.4571 14.2501 23.6581 14.3386 23.7999 14.4946C23.9431 14.6491 24.0144 14.8576 23.9964 15.0676L23.2464 23.3176C23.2112 23.7047 22.8849 24.0016 22.4964 24.0001L17.9964 24.0001C17.6072 24.0016 17.2817 23.7047 17.2464 23.3176L16.4964 15.0676C16.4942 15.0444 16.4934 15.0204 16.4934 14.9972C16.4949 14.5824 16.8316 14.2486 17.2464 14.2501L23.2464 14.2501ZM22.4214 15.7501L22.2857 17.2502L18.2034 17.2502L18.0707 15.7501L22.4214 15.7501ZM18.3369 18.7502L18.6782 22.5002L21.8109 22.5002L22.1514 18.7502L18.3369 18.7502Z" id="Combined-Shape" fill="#81858B" fill-rule="evenodd" stroke="none" />
  </g>
</svg>