<?xml version="1.0" encoding="utf-8"?>
<svg width="24px" height="24px" viewBox="0 0 24 24" version="1.1" xmlns:xlink="http://www.w3.org/1999/xlink" xmlns="http://www.w3.org/2000/svg">

  <g id="Icons/Seafood">
    <path d="M16.9984 3.84871L1.60073 3.84871C1.93821 2.50524 3.1558 1.50745 4.60249 1.50745L12 1.50745C12.4163 1.50745 12.7537 1.17002 12.7537 0.753726C12.7537 0.337434 12.4163 0 12 0L4.60249 0C2.06464 0 0 2.06464 0 4.60244C0 8.46317 3.14092 11.6041 7.00164 11.6041L14.9742 11.6041C15.4866 11.6041 15.9035 12.021 15.9035 12.5334C15.9035 13.0458 15.4866 13.4627 14.9742 13.4627L6.1603 13.4462C4.41354 13.4462 2.99243 14.8673 2.99243 16.614L2.99243 20.6836C2.99243 21.0999 3.32991 21.4373 3.74616 21.4373L6.60867 21.4373C8.35543 21.4373 9.77653 20.0162 9.77653 18.2695L9.77653 17.852L16.9984 17.852C20.8591 17.852 24 14.7111 24 10.8504C24 6.98968 20.8591 3.84871 16.9984 3.84871ZM14.9742 10.0966L13.1461 10.0966C12.9847 8.66987 12.3978 7.6173 11.3628 6.89301C11.0216 6.65432 10.5518 6.73737 10.3131 7.07843C10.0744 7.41949 10.1574 7.88948 10.4985 8.12813C11.1354 8.57377 11.497 9.19621 11.628 10.0966L7.0016 10.0966C4.22784 10.0966 1.92751 8.03024 1.55889 5.35616L16.9983 5.35616C17.9537 5.35616 18.8527 5.6015 19.6362 6.03216C18.9736 8.18052 17.8009 9.60129 16.0675 10.3568C15.7385 10.1908 15.3672 10.0966 14.9742 10.0966ZM6.30016 7.13114C6.30016 6.63947 5.90163 6.24094 5.40996 6.24094C4.9183 6.24094 4.51976 6.63947 4.51976 7.13114C4.51976 7.62276 4.9183 8.02133 5.40996 8.02133C5.90163 8.02133 6.30016 7.62276 6.30016 7.13114ZM21.9758 13.1748C22.307 12.4684 22.4925 11.6807 22.4925 10.8504C22.4925 9.34743 21.8857 7.9837 20.9045 6.99076C20.1501 9.07901 18.9015 10.5883 17.1781 11.4951C17.3272 11.8103 17.4109 12.1622 17.4109 12.5333C17.4109 12.8163 17.3619 13.0878 17.2729 13.3407C18.2192 13.7976 19.796 13.7421 21.9758 13.1748ZM9.77837 16.3445L9.77837 14.9701L14.9742 14.9701C15.4805 14.9701 15.9512 14.8147 16.3413 14.5494C16.9878 14.9324 17.8029 15.1352 18.7752 15.1523C18.8224 15.1532 18.8698 15.1536 18.9177 15.1536C19.4261 15.1536 19.9789 15.1062 20.5823 15.0113C19.6195 15.8417 18.3666 16.3445 16.9984 16.3445L9.77837 16.3445ZM6.60867 19.9298C7.52421 19.9298 8.26908 19.185 8.26908 18.2694L8.26908 14.9536L6.1603 14.9536C5.24475 14.9536 4.49989 15.6984 4.49989 16.614L4.49989 19.9298L6.60867 19.9298Z" transform="translate(0 1)" id="Combined-Shape" fill="#FF9500" fill-rule="evenodd" stroke="none" />
  </g>
</svg>
