<?xml version="1.0" encoding="utf-8"?>
<svg width="24px" height="24px" viewBox="0 0 24 24" version="1.1" xmlns:xlink="http://www.w3.org/1999/xlink" xmlns="http://www.w3.org/2000/svg">
  <desc>Created with Lunacy</desc>
  <defs>
    <rect width="24" height="24" id="artboard_1" />
    <clipPath id="clip_1">
      <use xlink:href="#artboard_1" clip-rule="evenodd" />
    </clipPath>
  </defs>
  <g id="Icons/Allergy/Eggs" clip-path="url(#clip_1)">
    <path d="M16.4213 0.361073C20.5497 1.72591 23.2975 6.74764 23.8697 11.0016C24.3581 14.0648 23.4592 17.188 21.4148 19.5208C20.5554 20.5272 19.3443 21.166 18.0281 21.3074L17.837 21.3074C16.8453 21.2407 15.8831 20.941 15.0293 20.4333C14.7613 20.301 14.4945 20.1653 14.2265 20.0511C12.2929 19.3659 10.184 19.3534 8.24247 20.0172C8.01066 20.0771 7.75171 20.1585 7.47581 20.2422L7.47279 20.2431C5.53237 20.8402 2.59923 21.7427 1.2238 19.4902C0.722869 18.5687 0.82803 17.4368 1.49179 16.626C1.61052 16.4293 1.71681 16.2269 1.81293 16.0188C2.16233 14.9728 2.08997 13.8319 1.61278 12.8368C1.49631 12.5281 1.35271 12.1912 1.20231 11.8361L1.2012 11.8335C0.228732 9.53685 -1.23893 6.07078 1.926 4.33119C2.91882 3.78956 4.09142 3.68213 5.16565 4.03606C5.35562 4.10278 5.54333 4.18193 5.73103 4.26222C6.0386 4.43183 6.38235 4.52342 6.73402 4.52795C7.244 4.45558 7.75171 3.72736 8.20402 3.08396C8.49576 2.63278 8.83725 2.21553 9.22171 1.84012C11.196 0.117958 13.928 -0.444033 16.4213 0.361073ZM20.4253 18.5845C19.7944 19.3218 18.9169 19.8046 17.9557 19.9414C17.1337 19.8973 16.3354 19.6463 15.6343 19.2132C15.3425 19.0662 15.0519 18.9226 14.7602 18.7982C13.721 18.3674 12.605 18.1526 11.481 18.1695C10.262 18.1865 9.05096 18.364 7.87949 18.701C7.63411 18.7666 7.3616 18.8502 7.07099 18.9396C5.03561 19.566 3.13705 20.0262 2.37605 18.7779C2.10806 18.3391 2.2347 18.0406 2.66213 17.2966C2.80574 17.0568 2.93578 16.8092 3.05225 16.5548C3.55205 15.1854 3.48872 13.6747 2.87811 12.3506C2.75599 12.0272 2.60559 11.6721 2.44842 11.3012C1.33461 8.67447 0.639192 6.58029 2.57619 5.51511C2.99571 5.29008 3.46611 5.17701 3.94216 5.18718C4.21015 5.19284 4.47362 5.2392 4.72804 5.32401C4.88522 5.37715 5.04013 5.44387 5.19505 5.50945C5.72312 5.78988 6.32016 5.9154 6.91608 5.87017C8.0197 5.72204 8.7106 4.73601 9.31895 3.86645C9.55189 3.50008 9.82102 3.15972 10.1241 2.84876C11.7331 1.44322 13.9608 0.984125 15.995 1.63884C19.5954 2.83406 22.005 7.34243 22.5252 11.178C22.9594 13.8364 22.1893 16.5503 20.4253 18.5845ZM9.0046 10.8127C9.00347 8.13622 11.1734 5.96515 13.8511 5.96402C16.5287 5.96628 18.6975 8.13622 18.6998 10.8127C18.6998 13.4893 16.5299 15.6592 13.8533 15.6592C11.1757 15.6603 9.0046 13.4904 9.0046 10.8127ZM13.8511 14.3034C11.9231 14.3034 10.3604 12.7407 10.3604 10.8127C10.3604 8.88479 11.9231 7.32207 13.8511 7.32207C15.779 7.32207 17.3417 8.88479 17.3417 10.8127C17.3395 12.7407 15.779 14.3012 13.8511 14.3034ZM15.2193 11.4912C15.5947 11.4912 15.8989 11.1882 15.8989 10.8127C15.8966 9.68311 14.9807 8.76832 13.8522 8.76606L13.8511 8.76606C13.4757 8.76606 13.1737 9.07024 13.1737 9.44565C13.1737 9.81993 13.4768 10.1241 13.8522 10.123C14.2321 10.1241 14.542 10.4328 14.542 10.8127C14.542 11.1882 14.845 11.4912 15.2193 11.4912Z" transform="translate(2.674963E-05 1)" id="Fill-1" fill="#81858B" fill-rule="evenodd" stroke="none" />
  </g>
</svg>