<?xml version="1.0" encoding="utf-8"?>
<svg width="171px" height="23px" viewBox="0 0 171 23" version="1.1" xmlns:xlink="http://www.w3.org/1999/xlink" xmlns="http://www.w3.org/2000/svg">
  <desc>Created with Lunacy</desc>
  <g id="Logo" transform="translate(0.5 0.5)">
    <path d="M87.0727 21.5214L87.0727 9.06322L93.8029 18.5153L100.533 9.06322L100.533 21.5214L105.648 21.5214L105.648 0L101.49 0L93.8029 10.4691L86.1455 0L81.9579 0L81.9579 21.5214L87.0727 21.5214ZM14.7763 21.5214L14.7763 8.88375L24.8566 21.5214L28.8946 21.5214L28.8946 0.0747791L23.7648 0.0747791L23.7648 12.6227L13.7294 0.0149558L9.66146 0.0149558L9.66146 21.5214L14.7763 21.5214ZM133.122 21.5214L133.122 8.88375L143.202 21.5214L147.24 21.5214L147.24 0.0747791L142.11 0.0747791L142.11 12.6227L132.075 0.0149558L128.007 0.0149558L128.007 21.5214L133.122 21.5214ZM124.597 16.93L124.597 21.5214L110.135 21.5214L110.135 0.0448674L124.597 0.0448674L124.597 4.48674L115.16 4.48674L115.16 8.39021L121.95 8.39021L121.95 12.6975L115.16 12.6975L115.16 16.93L124.597 16.93ZM167.131 19.3528C165.366 21.1176 163.238 22 160.745 22C158.262 22 156.139 21.1176 154.374 19.3528C152.609 17.588 151.727 15.4593 151.727 12.9667L151.727 0.0448674L156.961 0.0448674L156.961 12.6676Q156.961 16.915 160.745 17.0646C163.278 16.9649 164.544 15.4992 164.544 12.6676L164.544 0.0448674L169.778 0.0448674L169.778 12.9667C169.778 15.4593 168.896 17.588 167.131 19.3528ZM5.17471 0.0598232L5.17471 21.5214L0 21.5214L0 0.0598232L5.17471 0.0598232ZM38.5411 12.9368L38.5411 21.5214L33.3814 21.5214L33.3814 0.0747791L47.2305 0.0747791L47.2305 4.5017L38.5411 4.5017L38.5411 8.94358L44.5085 8.94358L44.5085 12.9368L38.5411 12.9368Z" id="Combined-Shape" fill="#000000" fill-rule="evenodd" stroke="none" />
    <path d="M3.999 0L18.001 0Q18.1975 0 18.393 0.0192563Q18.5885 0.0385126 18.7812 0.0768396Q18.9738 0.115167 19.1618 0.172196Q19.3498 0.229224 19.5313 0.304406Q19.7129 0.379587 19.8861 0.472197Q20.0594 0.564807 20.2227 0.673953Q20.3861 0.783099 20.5379 0.907731Q20.6898 1.03236 20.8287 1.17128Q20.9676 1.3102 21.0923 1.46206Q21.2169 1.61393 21.326 1.77727Q21.4352 1.94062 21.5278 2.11388Q21.6204 2.28715 21.6956 2.46865Q21.7708 2.65015 21.8278 2.83815Q21.8848 3.02615 21.9232 3.21883Q21.9615 3.41152 21.9807 3.60703Q22 3.80254 22 3.999L22 18.001Q22 18.1975 21.9807 18.393Q21.9615 18.5885 21.9232 18.7812Q21.8848 18.9738 21.8278 19.1618Q21.7708 19.3498 21.6956 19.5313Q21.6204 19.7129 21.5278 19.8861Q21.4352 20.0594 21.326 20.2227Q21.2169 20.3861 21.0923 20.5379Q20.9676 20.6898 20.8287 20.8287Q20.6898 20.9676 20.5379 21.0923Q20.3861 21.2169 20.2227 21.326Q20.0594 21.4352 19.8861 21.5278Q19.7129 21.6204 19.5313 21.6956Q19.3498 21.7708 19.1618 21.8278Q18.9738 21.8848 18.7812 21.9232Q18.5885 21.9615 18.393 21.9807Q18.1975 22 18.001 22L3.999 22Q3.80254 22 3.60703 21.9807Q3.41152 21.9615 3.21883 21.9232Q3.02615 21.8848 2.83815 21.8278Q2.65015 21.7708 2.46865 21.6956Q2.28715 21.6204 2.11388 21.5278Q1.94062 21.4352 1.77727 21.326Q1.61393 21.2169 1.46206 21.0923Q1.3102 20.9676 1.17128 20.8287Q1.03236 20.6898 0.907731 20.5379Q0.783099 20.3861 0.673953 20.2227Q0.564807 20.0594 0.472197 19.8861Q0.379587 19.7129 0.304406 19.5313Q0.229224 19.3498 0.172196 19.1618Q0.115167 18.9738 0.0768396 18.7812Q0.0385126 18.5885 0.0192563 18.393Q0 18.1975 0 18.001L0 3.999Q0 3.80254 0.0192563 3.60703Q0.0385126 3.41152 0.0768396 3.21883Q0.115167 3.02615 0.172196 2.83815Q0.229224 2.65015 0.304406 2.46865Q0.379587 2.28715 0.472197 2.11388Q0.564807 1.94062 0.673953 1.77727Q0.783099 1.61393 0.907731 1.46206Q1.03236 1.3102 1.17128 1.17128Q1.3102 1.03236 1.46206 0.907731Q1.61393 0.783099 1.77727 0.673953Q1.94062 0.564807 2.11388 0.472197Q2.28715 0.379587 2.46865 0.304406Q2.65015 0.229224 2.83815 0.172196Q3.02615 0.115167 3.21883 0.0768396Q3.41152 0.0385126 3.60703 0.0192563Q3.80254 0 3.999 0L3.999 0Z" transform="translate(50 0)" id="Rectangle" fill="#000000" stroke="none" />
    <path d="M1.4526 6.37235L4.92008 6.37235C5.88599 6.37235 6.37267 5.88566 6.37267 4.88179L6.37267 1.48277C6.37267 0.478899 5.88599 0 4.92008 0L1.4526 0C0.486686 0 0 0.478899 0 1.48277L0 4.88179C0 5.88566 0.486686 6.37235 1.4526 6.37235ZM12.5474 6.37235L9.08741 6.37235C8.1215 6.37235 7.63481 5.88566 7.63481 4.88179L7.63481 1.48277C7.63481 0.478899 8.1215 0 9.08741 0L12.5474 0C13.5208 0 14 0.478899 14 1.48277L14 4.88179C14 5.88566 13.5208 6.37235 12.5474 6.37235ZM1.07233 4.88179C1.07233 5.16342 1.20147 5.30034 1.46785 5.30034L4.89736 5.30034C5.16342 5.30034 5.30034 5.16342 5.30034 4.88179L5.30034 1.48277C5.30034 1.20893 5.16342 1.07201 4.89736 1.07201L1.46785 1.07201C1.20147 1.07201 1.07233 1.20893 1.07233 1.48277L1.07233 4.88179ZM9.10266 5.30034C8.83628 5.30034 8.70715 5.16342 8.70715 4.88179L8.70715 1.48277C8.70715 1.20893 8.83628 1.07201 9.10266 1.07201L12.54 1.07201C12.7982 1.07201 12.9277 1.20893 12.9277 1.48277L12.9277 4.88179C12.9277 5.16342 12.7982 5.30034 12.54 5.30034L9.10266 5.30034ZM3.83282 3.98466L2.53239 3.98466C2.41818 3.98466 2.38801 3.93892 2.38801 3.80978L2.38801 2.54732C2.38801 2.42565 2.41818 2.3799 2.53239 2.3799L3.83282 2.3799C3.9467 2.3799 3.99245 2.42565 3.99245 2.54732L3.99245 3.80978C3.99245 3.93892 3.9467 3.98466 3.83282 3.98466ZM10.213 3.98466L11.5056 3.98466C11.6198 3.98466 11.6652 3.93892 11.6652 3.80978L11.6652 2.54732C11.6652 2.42565 11.6198 2.3799 11.5056 2.3799L10.213 2.3799C10.0987 2.3799 10.0608 2.42565 10.0608 2.54732L10.0608 3.80978C10.0608 3.93892 10.0987 3.98466 10.213 3.98466ZM4.92008 13.9997L1.4526 13.9997C0.486686 13.9997 0 13.5205 0 12.5169L0 9.11012C0 8.11371 0.486686 7.62703 1.4526 7.62703L4.92008 7.62703C5.88599 7.62703 6.37267 8.11371 6.37267 9.11012L6.37267 12.5169C6.37267 13.5205 5.88599 13.9997 4.92008 13.9997ZM8.14454 9.59681L9.44464 9.59681C9.55885 9.59681 9.6046 9.55106 9.6046 9.42193L9.6046 8.15946C9.6046 8.03779 9.55885 7.99204 9.44464 7.99204L8.14454 7.99204C8.03033 7.99204 7.99983 8.03779 7.99983 8.15946L7.99983 9.42193C7.99983 9.55106 8.03033 9.59681 8.14454 9.59681ZM13.4828 9.59681L12.1824 9.59681C12.0682 9.59681 12.0302 9.55106 12.0302 9.42193L12.0302 8.15946C12.0302 8.03779 12.0682 7.99204 12.1824 7.99204L13.4828 7.99204C13.5967 7.99204 13.6425 8.03779 13.6425 8.15946L13.6425 9.42193C13.6425 9.55106 13.5967 9.59681 13.4828 9.59681ZM1.46785 12.9274C1.20147 12.9274 1.07233 12.7904 1.07233 12.5169L1.07233 9.11759C1.07233 8.83628 1.20147 8.69936 1.46785 8.69936L4.89736 8.69936C5.16342 8.69936 5.30034 8.83628 5.30034 9.11759L5.30034 12.5169C5.30034 12.7904 5.16342 12.9274 4.89736 12.9274L1.46785 12.9274ZM3.83282 11.6195L2.53239 11.6195C2.41818 11.6195 2.38801 11.5737 2.38801 11.4371L2.38801 10.1821C2.38801 10.0605 2.41818 10.015 2.53239 10.015L3.83282 10.015C3.9467 10.015 3.99245 10.0605 3.99245 10.1821L3.99245 11.4371C3.99245 11.5737 3.9467 11.6195 3.83282 11.6195ZM10.1825 11.6195L11.4829 11.6195C11.5968 11.6195 11.6425 11.5737 11.6425 11.4371L11.6425 10.1821C11.6425 10.0605 11.5968 10.015 11.4829 10.015L10.1825 10.015C10.0682 10.015 10.0381 10.0605 10.0381 10.1821L10.0381 11.4371C10.0381 11.5737 10.0682 11.6195 10.1825 11.6195ZM9.44464 13.6347L8.14454 13.6347C8.03033 13.6347 7.99983 13.5889 7.99983 13.4598L7.99983 12.1973C7.99983 12.0757 8.03033 12.0302 8.14454 12.0302L9.44464 12.0302C9.55885 12.0302 9.6046 12.0757 9.6046 12.1973L9.6046 13.4598C9.6046 13.5889 9.55885 13.6347 9.44464 13.6347ZM12.1824 13.6347L13.4828 13.6347C13.5967 13.6347 13.6425 13.5889 13.6425 13.4598L13.6425 12.1973C13.6425 12.0757 13.5967 12.0302 13.4828 12.0302L12.1824 12.0302C12.0682 12.0302 12.0302 12.0757 12.0302 12.1973L12.0302 13.4598C12.0302 13.5889 12.0682 13.6347 12.1824 13.6347Z" transform="translate(54 4)" id="Fill-1" fill="#FFFFFF" fill-rule="evenodd" stroke="none" />
  </g>
</svg>