<?xml version="1.0" encoding="utf-8"?>
<svg width="33px" height="33px" viewBox="0 0 33 33" >

  <defs>
    <filter id="filter_1">
      <feColorMatrix in="SourceGraphic" type="matrix" values="0 0 0 0 0 0 0 0 0 0.47843137 0 0 0 0 1 0 0 0 1 0" />
    </filter>
  </defs>
  <g id="minus" transform="translate(0.5 0.5)" filter="url(#filter_1)">
    <path d="M16 32C24.8366 32 32 24.8366 32 16C32 7.16344 24.8366 0 16 0C7.16344 0 0 7.16344 0 16C0 24.8366 7.16344 32 16 32Z" id="Oval" fill="#F5A623" fill-opacity="0.09803922" stroke="none" />
    <path d="M0.999 0L15.001 0Q15.0994 0 15.1959 0.0191955Q15.2924 0.038391 15.3833 0.0760443Q15.4742 0.113698 15.556 0.168362Q15.6378 0.223026 15.7074 0.2926Q15.777 0.362175 15.8316 0.443985Q15.8863 0.525796 15.924 0.616699Q15.9616 0.707602 15.9808 0.804105Q16 0.900607 16 0.999L16 1.001Q16 1.09939 15.9808 1.1959Q15.9616 1.2924 15.924 1.3833Q15.8863 1.4742 15.8316 1.55601Q15.777 1.63783 15.7074 1.7074Q15.6378 1.77697 15.556 1.83164Q15.4742 1.8863 15.3833 1.92396Q15.2924 1.96161 15.1959 1.9808Q15.0994 2 15.001 2L0.999 2Q0.900607 2 0.804105 1.9808Q0.707602 1.96161 0.616699 1.92396Q0.525796 1.8863 0.443985 1.83164Q0.362175 1.77697 0.2926 1.7074Q0.223026 1.63783 0.168362 1.55601Q0.113698 1.4742 0.0760443 1.3833Q0.038391 1.2924 0.0191955 1.1959Q0 1.09939 0 1.001L0 0.999Q0 0.900607 0.0191955 0.804105Q0.038391 0.707602 0.0760443 0.616699Q0.113698 0.525796 0.168362 0.443985Q0.223026 0.362175 0.2926 0.2926Q0.362175 0.223026 0.443985 0.168362Q0.525796 0.113698 0.616699 0.0760443Q0.707602 0.038391 0.804105 0.0191955Q0.900607 0 0.999 0Z" transform="translate(8 15)" id="Combined-Shape" fill="#D8D8D8" stroke="none" />
  </g>
</svg>