<?xml version="1.0" encoding="UTF-8"?>
<svg width="16px" height="16px" viewBox="0 0 16 16" version="1.1" xmlns="http://www.w3.org/2000/svg" xmlns:xlink="http://www.w3.org/1999/xlink">
    <!-- Generator: Sketch 54 (76480) - https://sketchapp.com -->
    <title>tooltip-hd__icon</title>
    <desc>Created with Sketch.</desc>
    <g id="Desktop" stroke="none" stroke-width="1" fill="none" fill-rule="evenodd">
        <g id="3-01-product-card-холодильник" transform="translate(-1200.000000, -524.000000)" fill="#FF2626">
            <g id="price" transform="translate(922.000000, 379.000000)">
                <g id="icon/qmark" transform="translate(278.000000, 145.000000)">
                    <path d="M8,16 C3.57142857,16 0,12.4285714 0,8 C0,3.57142857 3.57142857,0 8,0 C12.4285714,0 16,3.57142857 16,8 C16,12.4285714 12.4285714,16 8,16 Z M8,14.5 C11.5982143,14.5 14.5,11.5982143 14.5,8 C14.5,4.40178571 11.5982143,1.5 8,1.5 C4.40178571,1.5 1.5,4.40178571 1.5,8 C1.5,11.5982143 4.40178571,14.5 8,14.5 Z M8,6 C7.3125,6 6.75,5.4375 6.75,4.75 C6.75,4.0625 7.3125,3.5 8,3.5 C8.6875,3.5 9.25,4.0625 9.25,4.75 C9.25,5.4375 8.6875,6 8,6 Z M6.73251553,7 L8.48722296,7 C8.66552671,7 8.73018396,7.01856512 8.79536914,7.05342654 C8.86055433,7.08828796 8.91171204,7.13944567 8.94657346,7.20463086 C8.98143488,7.26981604 9,7.33447329 9,7.51277704 L9,10.7217747 C9,10.8641217 9.01082022,10.9157421 9.03293281,10.9702439 C9.05504541,11.0247458 9.08845039,11.0705091 9.13361992,11.1081805 C9.17878944,11.1458519 9.22465619,11.17189 9.36023094,11.2152739 L9.96982039,11.4103425 C10.0752674,11.4440856 10.1109415,11.4643374 10.1460734,11.4936374 C10.1812053,11.5229374 10.2071869,11.558531 10.2243856,11.6009214 C10.2415843,11.6433117 10.25,11.6834609 10.25,11.7941752 L10.25,12.0368097 C10.25,12.1556094 10.2314349,12.230184 10.1965735,12.2953691 C10.161712,12.3605543 10.1105543,12.411712 10.0453691,12.4465735 C9.98018396,12.4814349 9.90560936,12.5 9.78680971,12.5 L6.73251553,12.5 C6.59052559,12.5 6.51981604,12.4814349 6.45463086,12.4465735 C6.38944567,12.411712 6.33828796,12.3605543 6.30342654,12.2953691 C6.26856512,12.230184 6.25,12.1594744 6.25,12.0174845 L6.25,11.71391 C6.25,11.5978021 6.25959452,11.5556181 6.27878755,11.5115275 C6.29798059,11.4674369 6.32677213,11.4309178 6.36516616,11.4019652 C6.4035602,11.3730125 6.44234024,11.3538383 6.55524214,11.3267419 L7.09301048,11.1976775 C7.24354634,11.1615489 7.29525307,11.1359833 7.34644512,11.0973798 C7.39763716,11.0587763 7.43602589,11.0100842 7.46161659,10.9512967 C7.4872073,10.8925092 7.5,10.8362639 7.5,10.6814533 L7.5,8.81854672 C7.5,8.66373612 7.4872073,8.60749084 7.46161659,8.54870333 C7.43602589,8.48991583 7.39763716,8.4412237 7.34644512,8.4026202 C7.29525307,8.36401671 7.24354634,8.33845112 7.09301048,8.30232252 L6.55524214,8.17325811 C6.44234024,8.14616166 6.4035602,8.12698747 6.36516616,8.09803485 C6.32677213,8.06908223 6.29798059,8.03256313 6.27878755,7.9884725 C6.25959452,7.94438187 6.25,7.90219791 6.25,7.78608996 L6.25,7.48251553 C6.25,7.34052559 6.26856512,7.26981604 6.30342654,7.20463086 C6.33828796,7.13944567 6.38944567,7.08828796 6.45463086,7.05342654 C6.51981604,7.01856512 6.59052559,7 6.73251553,7 Z" id="Style"></path>
                </g>
            </g>
        </g>
    </g>
</svg>