<?xml version="1.0" encoding="utf-8"?>
<svg width="65px" height="64px" viewBox="0 0 65 64" version="1.1" xmlns:xlink="http://www.w3.org/1999/xlink" xmlns="http://www.w3.org/2000/svg">
  <desc>Created with Lunacy</desc>
  <g id="icon-1">
    <path d="M45.136 2.816C45.1984 2.8384 45.2576 2.8688 45.3104 2.9024C56.3296 7.9632 64.0016 19.1024 64.0016 32C64.0016 49.6448 49.6448 64 32 64C29.1264 64 26.3392 63.616 23.688 62.9024C23.6336 62.8944 23.5776 62.8816 23.5232 62.8608C23.5152 62.8576 23.5056 62.8544 23.4976 62.8512C22.472 62.568 21.4656 62.2352 20.4832 61.8544C20.4592 61.848 20.4336 61.8448 20.4096 61.8352C20.368 61.8192 20.3296 61.8016 20.2928 61.7824C8.4208 57.0992 0 45.5152 0 32C0 14.3552 14.3552 0 32 0C35.4976 0 38.864 0.5648 42.0176 1.6064C42.0592 1.616 42.1024 1.6272 42.1456 1.6432C42.168 1.6512 42.1904 1.6608 42.2112 1.6704C43.1968 2.0032 44.16 2.3824 45.1008 2.8048C45.1104 2.8096 45.1232 2.8112 45.136 2.816ZM20.192 59.816C9.37919 55.2096 1.78079 44.4752 1.78079 32C1.78079 15.336 15.336 1.77917 32 1.77917C35.0208 1.77917 37.936 2.22717 40.6896 3.05437L39.3776 6.68478C36.992 5.98877 34.5136 5.63678 32 5.63678C17.4624 5.63678 5.63359 17.4624 5.63359 32C5.63359 42.5984 11.8336 52 21.5024 56.1888L20.192 59.816ZM24.904 56.4033L23.2736 60.9329C22.7936 60.7873 22.32 60.6321 21.8496 60.4641L23.4496 56.0353C23.4512 56.0305 23.4544 56.0257 23.456 56.0209C23.4672 55.9953 23.4752 55.9697 23.4832 55.9441L27.2704 45.4529L42.3776 3.61609C42.8288 3.78089 43.2736 3.95689 43.712 4.14249L35.1872 27.8321C35.1552 27.8881 35.1264 27.9489 35.1056 28.0145C35.0928 28.0545 35.0848 28.0961 35.0768 28.1393L28.7152 45.8161C28.7072 45.8321 28.7008 45.8497 28.696 45.8673L24.9104 56.3857C24.9072 56.3905 24.9056 56.3969 24.904 56.4033ZM24.9968 61.3984C27.2448 61.9344 29.5904 62.2192 32 62.2192C48.664 62.2192 62.2192 48.6624 62.2192 32C62.2192 20.12 55.328 9.82075 45.336 4.88635L44.024 8.53275C52.76 13.0192 58.3632 22.1424 58.3632 32C58.3632 46.536 46.536 58.3616 32 58.3616C30.08 58.3616 28.1696 58.1536 26.3104 57.7456L24.9968 61.3984ZM31.3584 15.3104C31.312 15.7584 31.3808 16.2288 31.56 16.7136C32.9104 16.6448 34.28 16.7552 35.6336 17.0544L38.7728 8.36162C36.5808 7.73442 34.3072 7.41602 32 7.41602C18.4448 7.41602 7.41599 18.4448 7.41599 32C7.41599 41.8448 13.152 50.5824 22.1072 54.5104L23.9104 49.52C23.3248 50.1984 22.4576 50.6256 21.5088 50.6256C21.4528 50.6256 21.3952 50.624 21.3392 50.6208C19.8496 50.5424 18.5152 49.2704 18.3664 47.7856C18.2288 46.3936 19.0336 45.056 20.3264 44.5328C21.0752 44.1712 21.568 43.68 21.9008 43.2192C21.856 43.176 21.8096 43.136 21.7664 43.0928C20.5152 41.9024 19.4928 40.536 18.7136 39.0208C18.2704 39.2192 17.8384 39.4928 17.4464 39.8688C17.3296 39.9808 17.2384 40.0672 17.1376 40.144C16.4496 40.6848 15.624 40.9488 14.8016 40.9488C13.752 40.9488 12.7088 40.5184 11.96 39.6864C10.7808 38.3744 10.7264 36.1104 11.8432 34.744C12.9264 33.4208 14.7104 32.9792 16.2816 33.6432L16.5072 33.7376C16.7184 33.808 16.928 33.8608 17.1344 33.8992C16.7376 30.728 17.3344 27.5376 18.8544 24.7344C18.672 24.632 18.48 24.5328 18.2752 24.4352C17.5936 24.1088 16.776 23.9424 15.8992 23.9696C15.8736 23.9696 15.8496 23.9712 15.8256 23.9712C14.8624 23.9712 13.952 23.6064 13.2528 22.9392C12.48 22.2064 12.0608 21.176 12.096 20.112C12.1312 19.0496 12.6224 18.048 13.4416 17.36C14.752 16.2736 16.6864 16.2176 18.0496 17.232C18.7504 17.7552 19.2336 18.4752 19.4464 19.3152C19.5376 19.6736 19.6672 19.952 19.84 20.1632C20.2608 20.68 20.784 21.0608 21.3456 21.3424C23.232 19.3984 25.5552 18.0272 28.064 17.2992C28.016 17.1152 27.96 16.928 27.8944 16.7392C27.728 16.2608 27.4192 15.8032 26.9808 15.3792C26.4192 14.8368 26.0992 14.1056 26.0848 13.3216C26.0672 12.4848 26.408 11.6768 27.0224 11.104C27.6352 10.5328 28.4752 10.248 29.312 10.3264C30.6464 10.4512 31.7568 11.504 31.9472 12.8304C32.0448 13.52 31.9104 14.192 31.5616 14.7744C31.4464 14.9696 31.376 15.1504 31.3584 15.3104ZM32.7824 53.3408C31.8688 53.3408 30.952 52.968 30.3552 52.2736C29.44 51.2144 29.3312 49.6544 30.0896 48.4848C30.3264 48.0576 30.4624 47.6272 30.536 47.2176C30.3968 47.2 30.2592 47.1824 30.12 47.1616L26.92 56.0544C28.5824 56.4032 30.2864 56.5824 32 56.5824C45.5568 56.5824 56.5808 45.5536 56.5808 31.9984C56.5808 22.8848 51.4448 14.4448 43.416 10.224L40.2848 18.92C40.6032 19.1136 40.9136 19.3184 41.2176 19.536C41.4656 19.2976 41.7056 19.0352 41.9376 18.7472C42.3264 18.2608 42.6016 17.648 42.7552 16.9248C42.9392 16.0688 43.4432 15.3328 44.176 14.8496C44.9632 14.3344 45.936 14.176 46.8464 14.4224C47.7584 14.6672 48.5216 15.2928 48.9504 16.1392C49.6272 17.4864 49.2832 19.168 48.1312 20.1376C47.5424 20.6384 46.824 20.9104 46.056 20.9248C45.7632 20.9296 45.5216 20.9808 45.3344 21.072C44.848 21.3088 44.4144 21.6672 44.0368 22.1424C45.4208 23.7856 46.416 25.6736 47.0016 27.672C47.5296 27.5328 48.0048 27.3008 48.416 26.9696C48.5296 26.8784 48.616 26.8112 48.704 26.752C50.1984 25.7808 52.2048 26.1344 53.2736 27.5584C54.2384 28.8368 54.1136 30.8112 52.9952 31.9584C52.3408 32.632 51.4496 32.9856 50.5504 32.9856C50.0096 32.9856 49.464 32.8576 48.968 32.592C48.4944 32.376 48.0576 32.2528 47.6288 32.1984C47.6048 34.6288 47.0064 37.0624 45.808 39.2832C45.9904 39.384 46.1824 39.4848 46.3872 39.5824C47.0688 39.9088 47.8688 40.0624 48.7648 40.048C49.8288 40.0416 50.6944 40.3936 51.4112 41.0784C52.1824 41.8128 52.6048 42.8432 52.568 43.9072C52.5328 44.9696 52.04 45.9712 51.2192 46.656C50.5392 47.2256 49.688 47.512 48.8336 47.512C48.0496 47.512 47.2688 47.2704 46.6144 46.7856C45.912 46.2608 45.4304 45.5424 45.2176 44.7024C45.1248 44.344 44.9984 44.0672 44.8256 43.8576C44.4032 43.3392 43.88 42.9568 43.3152 42.6752C41.0336 45.0256 38.056 46.5792 34.8416 47.1136C34.9152 47.5536 35.0704 48.0032 35.3536 48.4256L35.528 48.7008C36.3136 50.176 35.824 52.008 34.4144 52.888C33.928 53.1936 33.3568 53.3408 32.7824 53.3408ZM29.6128 16.2656C29.6 16.2272 29.5872 16.1888 29.5744 16.152C29.3136 15.4096 28.8592 14.72 28.2176 14.0992C27.9968 13.8848 27.8704 13.5968 27.8672 13.2848C27.8576 12.9536 27.992 12.632 28.2352 12.4064C28.456 12.2032 28.7328 12.0944 29.032 12.0944C29.0704 12.0944 29.1072 12.096 29.1456 12.0992C29.672 12.1488 30.1104 12.5632 30.1856 13.0832C30.224 13.36 30.1712 13.6288 30.0352 13.8592C29.7856 14.2784 29.6352 14.7008 29.5904 15.12C29.5488 15.5008 29.5568 15.8832 29.6128 16.2656ZM43.328 19.8592C43.0992 20.1472 42.8592 20.4144 42.6144 20.6624C42.6784 20.7216 42.744 20.7808 42.808 20.8416C43.3136 20.2528 43.896 19.792 44.552 19.472C44.9696 19.2672 45.4656 19.1552 46.0208 19.1456C46.3744 19.1392 46.7072 19.0112 46.9808 18.7792C47.5104 18.3312 47.6704 17.5584 47.36 16.9408C47.1584 16.5408 46.8128 16.256 46.3856 16.1424C45.968 16.0304 45.5184 16.1024 45.152 16.3392C44.8144 16.5616 44.5792 16.9024 44.4976 17.2976C44.2848 18.2928 43.8912 19.1552 43.328 19.8592ZM25.912 27.3425C26.08 26.5569 26.5424 25.8849 27.216 25.4481C28.6048 24.5489 30.4704 24.9425 31.3712 26.3345C31.3744 26.3345 31.3744 26.3345 31.3744 26.3361C31.6288 26.7281 31.7744 27.1569 31.8288 27.5921L35.024 18.7441C30.8064 17.8929 26.4576 19.0833 23.2736 21.9537C24.7664 22.2161 26.0688 22.0497 26.0928 22.0465C26.5664 21.9777 27.0272 22.3185 27.0944 22.8081C27.1616 23.2929 26.824 23.7425 26.336 23.8097C26.1296 23.8449 21.0736 24.4993 18.4592 21.2881C18.1216 20.8721 17.88 20.3713 17.7216 19.7553C17.6096 19.3153 17.3552 18.9361 16.984 18.6609C16.2736 18.1297 15.2656 18.1633 14.5824 18.7281C14.1456 19.0945 13.8944 19.6065 13.8736 20.1713C13.856 20.7265 14.0752 21.2673 14.48 21.6513C14.8544 22.0081 15.3392 22.1537 15.8656 22.1905C17.0736 22.1585 18.1088 22.3841 19.0416 22.8289C22.6592 24.5537 23.3984 27.0129 23.4288 27.1169C23.5632 27.5889 23.2896 28.0817 22.8176 28.2177C22.7344 28.2417 22.6528 28.2513 22.5712 28.2513C22.1856 28.2513 21.8288 27.9969 21.7152 27.6065C21.7024 27.5633 21.424 26.7201 20.328 25.7585C19.0208 28.2609 18.5328 31.0993 18.9328 33.9137C20.2304 33.7121 21.1744 33.1425 21.1888 33.1345C21.6048 32.8801 22.1552 33.0033 22.4128 33.4209C22.672 33.8385 22.5472 34.3857 22.1312 34.6449C22.008 34.7217 19.1136 36.5009 15.9376 35.4241C15.8336 35.3889 15.728 35.3441 15.624 35.2993C14.7472 34.9249 13.8 35.1665 13.2224 35.8721C12.6496 36.5729 12.6784 37.8225 13.2848 38.4961C13.9984 39.2881 15.208 39.3953 16.04 38.7425C16.0432 38.7425 16.2128 38.5857 16.2144 38.5857C19.0336 35.8737 23.0592 36.9905 23.2304 37.0401C23.7008 37.1745 23.9728 37.6657 23.8384 38.1377C23.7056 38.6065 23.224 38.8849 22.7408 38.7521C22.7264 38.7457 21.7328 38.4769 20.4992 38.5809C21.1584 39.7697 21.9936 40.8529 22.9936 41.8049C23.88 42.6481 24.8656 43.3601 25.928 43.9329L27.1024 40.6769C26.5312 40.4753 26.032 40.0897 25.6928 39.5665C25.288 38.9409 25.152 38.1953 25.3056 37.4673C25.4624 36.7393 25.8928 36.1169 26.5184 35.7105C27.2672 35.2241 28.1872 35.1377 28.9968 35.4353L30.9008 30.1617C30.7728 30.2801 30.6368 30.3921 30.4848 30.4897C29.992 30.8097 29.4288 30.9745 28.8576 30.9745C28.6464 30.9745 28.4336 30.9521 28.2224 30.9073C27.4384 30.7393 26.7664 30.2753 26.3296 29.6017C25.896 28.9297 25.7456 28.1265 25.912 27.3425ZM31.9952 44.1631C31.8832 43.8895 31.6528 43.7039 31.3888 43.6367L34.3728 35.3423C34.44 35.5887 34.5456 35.8287 34.6912 36.0543C35.1744 36.7999 35.9904 37.2063 36.8192 37.2063C37.288 37.2063 37.7648 37.0767 38.1856 36.8015C38.7536 36.4351 39.144 35.8687 39.2864 35.2079C39.4272 34.5487 39.3024 33.8735 38.936 33.3055C38.936 33.3055 38.936 33.3039 38.9328 33.3039C38.1776 32.1391 36.6144 31.8015 35.4384 32.5583C35.4096 32.5791 35.3824 32.5999 35.3536 32.6191L36.5504 29.2959C36.6256 29.3007 36.7008 29.3039 36.7744 29.3039C37.4544 29.3039 38.1264 29.1103 38.7104 28.7295C39.5088 28.2127 40.0592 27.4143 40.2592 26.4847C40.456 25.5519 40.2816 24.5999 39.7648 23.8031C39.5216 23.4303 39.2192 23.1119 38.8672 22.8559L39.6672 20.6335C40.3776 21.0943 41.0496 21.6207 41.6688 22.2127C46.0368 26.3759 47.0864 32.9807 44.3376 38.2591C43.2416 37.2975 42.9632 36.4543 42.9504 36.4111C42.8128 35.9391 42.328 35.6687 41.8464 35.7999C41.376 35.9359 41.1008 36.4271 41.2368 36.9007C41.2672 37.0047 42.0064 39.4639 45.6208 41.1887C46.5536 41.6335 47.5856 41.8559 48.7984 41.8271C49.2928 41.8143 49.8064 42.0079 50.1824 42.3663C50.5872 42.7519 50.8064 43.2911 50.7888 43.8495C50.768 44.4111 50.5168 44.9231 50.0784 45.2895C49.3984 45.8575 48.3888 45.8863 47.6784 45.3567C47.3072 45.0815 47.0528 44.7023 46.9424 44.2655C46.7904 43.6575 46.5408 43.1391 46.2032 42.7295C45.4272 41.7775 44.4368 41.1663 43.4224 40.7775C43.4096 40.7727 43.3952 40.7663 43.3808 40.7615C40.9888 39.8591 38.4752 40.1855 38.3264 40.2079C37.84 40.2751 37.5008 40.7247 37.568 41.2111C37.6352 41.6975 38.0928 42.0335 38.5696 41.9727C38.5936 41.9679 39.8944 41.8031 41.3872 42.0623C39.5664 43.7023 37.3328 44.8191 34.9312 45.2895C35.056 44.7631 35.2192 44.4143 35.224 44.4063C35.4336 43.9632 35.2496 43.4319 34.8064 43.2191C34.3664 43.0047 33.8336 43.1871 33.6224 43.6303C33.584 43.7055 33.056 44.8159 33.0272 46.2831C33.0256 46.3183 33.0256 46.3551 33.0272 46.3919C33.024 47.3631 33.2432 48.4799 33.9648 49.5551C34.3024 50.1919 34.0896 50.992 33.4704 51.3792C32.9584 51.6975 32.0992 51.5712 31.7008 51.1119C31.296 50.6383 31.248 49.9727 31.6224 49.3968C31.6336 49.3759 31.736 49.2095 31.7504 49.1871C33.0448 46.8127 32.0384 44.2687 31.9952 44.1631ZM37.208 27.4688L38.2096 24.6864C38.2304 24.7136 38.2496 24.7424 38.2688 24.7712C38.528 25.1712 38.616 25.6464 38.5152 26.112C38.4192 26.5776 38.1424 26.9776 37.7424 27.2368C37.5744 27.344 37.3936 27.4208 37.208 27.4688ZM29.5152 28.9951C29.2432 29.1727 28.9232 29.2335 28.5952 29.1663C28.2752 29.0975 28.0032 28.9087 27.8256 28.6335C27.6464 28.3599 27.5856 28.0335 27.6528 27.7135C27.7232 27.3935 27.912 27.1199 28.1856 26.9423C28.3904 26.8095 28.6208 26.7455 28.848 26.7455C29.2512 26.7455 29.6432 26.9423 29.8816 27.3039C30.2464 27.8703 30.0832 28.6287 29.5152 28.9951ZM47.4064 29.408C48.2064 29.2032 48.9488 28.8272 49.6816 28.2416C50.384 27.7824 51.3392 27.9504 51.8512 28.6288C52.2784 29.1952 52.2144 30.2096 51.7184 30.7168C51.216 31.2384 50.4432 31.3632 49.728 30.9824C49.7088 30.9712 49.5232 30.88 49.5024 30.8704C48.888 30.6016 48.2304 30.4432 47.5424 30.3984C47.5056 30.0672 47.4624 29.736 47.4064 29.408ZM36.8128 33.9344C36.6736 33.9344 36.5312 33.9712 36.408 34.0528C36.0624 34.2768 35.9632 34.7408 36.1856 35.0864C36.4096 35.4304 36.8752 35.5296 37.2192 35.3072C37.3872 35.1968 37.5024 35.0304 37.544 34.8368C37.5856 34.6416 37.5488 34.4416 37.44 34.2736C37.2976 34.0528 37.0544 33.9344 36.8128 33.9344ZM27.7088 39.0016L28.392 37.1104C28.0976 36.9968 27.76 37.0256 27.4864 37.2048C27.2592 37.352 27.1024 37.576 27.0464 37.84C26.992 38.1024 27.04 38.3712 27.1888 38.5984C27.312 38.7904 27.4976 38.9296 27.7088 39.0016ZM22.8832 47.6352C22.9072 46.5456 23.2112 45.5744 23.7712 44.7088C23.6048 44.5952 23.4384 44.48 23.2768 44.36C22.7296 45.0992 22.0528 45.68 21.2832 46.0592C21.2592 46.0704 21.0528 46.16 21.032 46.1696C20.4208 46.416 20.0768 46.9872 20.1392 47.6096C20.1984 48.2112 20.8288 48.8112 21.4352 48.8432C22.1664 48.8704 22.7984 48.352 22.8832 47.6352ZM25.3184 45.6224L24.6784 47.3904C24.712 46.7728 24.9216 46.1776 25.3056 45.6176C25.3088 45.6192 25.3136 45.6208 25.3184 45.6224Z" id="Fill-1" fill="#FFFFFF" fill-rule="evenodd" stroke="none" />
  </g>
</svg>