<?xml version="1.0" encoding="utf-8"?>
<svg width="60px" height="60px" viewBox="0 0 60 60" version="1.1" xmlns:xlink="http://www.w3.org/1999/xlink" xmlns="http://www.w3.org/2000/svg">
  <desc>Created with Lunacy</desc>
  <g id="icon-2">
    <path d="M1 0L59 0C59.553 0 60 0.448 60 1L60 51C60 51.552 59.553 52 59 52L55.5 52L53 55.33L53 60L51 60L51 55C50.999 54.783 51.069 54.572 51.2 54.4L54 50.67L54 39C54 38.448 53.553 38 53 38C52.447 38 52 38.448 52 39L52 45L50 45L50 38C50 37.448 49.553 37 49 37C48.447 37 48 37.448 48 38L48 45L46 45L46 38C46 37.448 45.553 37 45 37C44.447 37 44 37.448 44 38L44 45L42 45L42 31C42 30.448 41.553 30 41 30C40.447 30 40 30.448 40 31L40 45L38 45L38 41.41L37 42.41L37 49.67L39.8 53.4C39.931 53.572 40.001 53.783 40 54L40 60L38 60L38 54.33L36.25 52L1 52C0.448 52 0 51.552 0 51L0 1C0 0.448 0.448 0 1 0ZM2 8L58 8L58 2L2 2L2 8ZM6 6L4 6L4 4L6 4L6 6ZM8 6L10 6L10 4L8 4L8 6ZM14 6L12 6L12 4L14 4L14 6ZM56 50L58 50L58 10L2 10L2 50L35 50L35 42C35.002 41.734 35.105 41.481 35.29 41.29L38 38.59L38 31C38.007 29.426 39.229 28.125 40.8 28.02L40 20.1L40 15C40 14.448 40.447 14 41 14L44 14C44.553 14 45 14.448 45 15L46 15L46 14C46 13.448 46.447 13 47 13L50 13C50.553 13 51 13.448 51 14L53 14C53.553 14 54 14.448 54 15L54 20L53 30.1C52.942 30.609 52.513 30.996 52 31L44 31L44 35.18C44.32 35.064 44.659 35.003 45 35C45.74 35.002 46.454 35.28 47 35.78C47.135 35.657 47.279 35.547 47.435 35.45C48.827 34.582 50.661 35.007 51.53 36.4C51.977 36.14 52.483 36.002 53 36C54.655 36.005 55.995 37.345 56 39L56 50ZM36 16L33 16L33 14.62L34.45 13.89L33.55 12.11L31.55 13.11C31.21 13.275 30.996 13.622 31 14L31 16L24 16C23.448 16 23 16.448 23 17L23 20C23 20.552 23.448 21 24 21L24.09 21L25 30.1C25.058 30.609 25.487 30.996 26 31L34 31C34.513 30.996 34.942 30.609 35 30.1L35.91 21L36 21C36.553 21 37 20.552 37 20L37 17C37 16.448 36.553 16 36 16ZM49 19L48 19L48 15L49 15L49 19ZM43 19L42 19L42 16L43 16L43 19ZM51 19L52 19L52 16L51 16L51 19ZM45 19L46 19L46 17L45 17L45 19ZM25 19L35 19L35 18L25 18L25 19ZM20.9799 18.8001L21.9799 23.8001C22.0039 23.9181 22.0069 24.0401 21.9899 24.1601L20.9899 30.1601C20.9109 30.6451 20.4919 31.0011 19.9999 31.0001L5.9999 31.0001C5.5079 31.0011 5.0889 30.6451 5.0099 30.1601L4.0099 24.1601C3.9929 24.0401 3.9969 23.9181 4.0199 23.8001L5.0199 18.8001C5.1149 18.3341 5.5249 18.0001 5.9999 18.0001L19.9999 18.0001C20.4749 18.0001 20.8849 18.3341 20.9799 18.8001ZM6.8199 20.0001L19.1799 20.0001L19.7799 23.0001L6.2199 23.0001L6.8199 20.0001ZM26.91 29L33.09 29L33.89 21L26.11 21L26.91 29ZM43.22 29C43.11 28.882 42.994 28.772 42.87 28.67L42.1 21L51.89 21L51.09 29L43.22 29ZM19.1499 29.0001L6.8499 29.0001L6.1799 25.0001L9.9999 25.0001L9.9999 27.0001C9.9999 27.5521 10.4479 28.0001 10.9999 28.0001L14.9999 28.0001C15.5519 28.0001 15.9999 27.5521 15.9999 27.0001L15.9999 25.0001L19.8199 25.0001L19.1499 29.0001ZM13.9999 26.0001L11.9999 26.0001L11.9999 25.0001L13.9999 25.0001L13.9999 26.0001ZM11 33L11 35L9 35L9 33L11 33ZM13 35L17 35L17 33L13 33L13 35ZM26 35L28 35L28 33L26 33L26 35ZM34 35L30 35L30 33L34 33L34 35ZM16 37C16.552 37 17 37.448 17 38L17 42C17 42.552 16.552 43 16 43L10 43C9.448 43 9 42.552 9 42L9 38C9 37.448 9.448 37 10 37L16 37ZM34 38C34 37.448 33.553 37 33 37L27 37C26.448 37 26 37.448 26 38L26 42C26 42.552 26.448 43 27 43L33 43C33.553 43 34 42.552 34 42L34 38ZM11 41L11 39L15 39L15 41L11 41ZM28 39L28 41L32 41L32 39L28 39Z" id="Combined-Shape" fill="#FFFFFF" fill-rule="evenodd" stroke="none" />
  </g>
</svg>