<?xml version="1.0" encoding="utf-8"?>
<svg width="65px" height="65px" viewBox="0 0 65 65" version="1.1" xmlns:xlink="http://www.w3.org/1999/xlink" xmlns="http://www.w3.org/2000/svg">
  <desc>Created with Lunacy</desc>
  <defs>
    <path d="M0 0L23.8872 0L23.8872 38.1539L0 38.1539L0 0Z" transform="translate(0 0.5126318)" id="path_1" />
    <path d="M0 0L23.888 0L23.888 38.1539L0 38.1539L0 0Z" transform="translate(0.22 0.5127652)" id="path_2" />
    <clipPath id="mask_1">
      <use xlink:href="#path_1" />
    </clipPath>
    <clipPath id="mask_2">
      <use xlink:href="#path_2" />
    </clipPath>
  </defs>
  <g id="icon-3">
    <g id="Group-3" transform="translate(3.051758E-05 25.33301)">
      <path d="M0 0L23.8872 0L23.8872 38.1539L0 38.1539L0 0Z" transform="translate(0 0.5126318)" id="Clip-2" fill="none" stroke="none" />
    </g>
    <g id="Group-6" transform="translate(39.66669 25.33301)">
      <path d="M0 0L23.888 0L23.888 38.1539L0 38.1539L0 0Z" transform="translate(0.22 0.5127652)" id="Clip-5" fill="none" stroke="none" />
    </g>
    <path d="M51.2204 39.0667C52.0204 39.0667 52.5538 38.5333 52.5538 37.7333C52.5538 36.9333 52.0204 36.4 51.2204 36.4L42.6871 36.4L42.6871 33.3333C45.6204 32.6667 47.7538 30.1333 47.7538 27.0667C47.7538 26.2667 47.2204 25.7333 46.4204 25.7333L36.2871 25.7333C35.4871 25.7333 34.9538 26.4 34.9538 27.0667C34.9538 30.1333 37.0871 32.6667 40.0204 33.3333L40.0204 36.2667L33.2204 36.2667L33.2204 14.9333L47.0871 14.9333C47.8871 14.9333 48.5538 14.1333 48.4204 13.3333C46.6871 5.6 39.7538 0 31.8871 0C24.0204 0 17.0871 5.6 15.3538 13.3333C15.2204 14.1333 15.7538 14.9333 16.6871 14.9333L30.5538 14.9333L30.5538 36.4L23.7538 36.4L23.7538 33.3333C26.6871 32.6667 28.8204 30.1333 28.8204 27.0667C28.8204 26.2667 28.2871 25.7333 27.4871 25.7333L17.3538 25.7333C16.5538 25.7333 16.0204 26.4 16.0204 27.0667C16.0204 30.1333 18.1538 32.6667 21.0871 33.3333L21.0871 36.2667L12.5538 36.2667C11.7538 36.2667 11.2204 36.8 11.2204 37.6C11.2204 38.4 11.7538 38.9333 12.5538 38.9333L25.3538 38.9333L28.2871 62.4C28.4204 63.0667 28.9538 63.6 29.6204 63.6L34.2871 63.6C34.9538 63.6 35.4871 63.0667 35.6204 62.4L38.5538 38.9333L51.2204 38.9333L51.2204 39.0667ZM31.8871 2.66667C38.0204 2.66667 43.3538 6.66667 45.3538 12.2667L18.4204 12.2667C20.4204 6.66667 25.7538 2.66667 31.8871 2.66667ZM7.62057 46.3995L22.5539 46.3995C23.3539 46.3995 23.8872 46.9328 23.8872 47.7328C23.8872 48.5328 23.3539 49.0661 22.5539 49.0661L15.8872 49.0661L15.8872 61.3328L21.0872 61.3328C21.8872 61.3328 22.4206 61.8661 22.4206 62.6661C22.4206 63.4661 21.8872 63.9995 21.0872 63.9995L8.02057 63.9995C7.22057 63.9995 6.68723 63.4661 6.68723 62.6661C6.68723 61.8661 7.22057 61.3328 8.02057 61.3328L13.2206 61.3328L13.2206 49.0661L7.62057 49.0661C5.62057 49.0661 3.88723 47.7328 3.48723 45.8661L0.0205682 27.3328C-0.112765 26.6661 0.420568 25.9995 1.08723 25.8661C1.88723 25.7328 2.5539 26.2661 2.68723 26.9328L6.1539 45.4661C6.28724 45.9995 6.82057 46.3995 7.62057 46.3995ZM62.6867 25.8663C62.02 25.7329 61.22 26.2663 61.088 26.9329L57.62 45.3329C57.488 45.8663 56.8214 46.2663 56.1547 46.2663L41.22 46.2663C40.4214 46.2663 39.8867 46.7996 39.8867 47.5996C39.8867 48.3996 40.4214 48.9329 41.22 48.9329L47.8867 48.9329L47.8867 61.3329L42.6867 61.3329C41.8867 61.3329 41.3534 61.8663 41.3534 62.6663C41.3534 63.4663 41.8867 63.9996 42.6867 63.9996L55.7547 63.9996C56.5534 63.9996 57.088 63.4663 57.088 62.6663C57.088 61.8663 56.5534 61.3329 55.7547 61.3329L50.5534 61.3329L50.5534 49.0663L56.1547 49.0663C58.1547 49.0663 59.8867 47.7329 60.2867 45.8663L63.7547 27.3329C63.8867 26.6663 63.3534 25.9996 62.6867 25.8663ZM22.4204 30.8C24.0204 30.8 25.3538 29.8667 25.8871 28.4L18.9538 28.4C19.4871 29.8667 20.8204 30.9333 22.4204 30.8ZM41.3538 30.8C42.9538 30.8 44.2871 29.8667 44.8204 28.4L37.8871 28.4C38.4204 29.8667 39.7538 30.9333 41.3538 30.8ZM33.0871 60.9333L30.8204 60.9333L28.0204 39.0667L35.7538 39.0667L33.0871 60.9333Z" id="Combined-Shape" fill="#FFFFFF" fill-rule="evenodd" stroke="none" />
  </g>
</svg>