<?xml version="1.0" encoding="utf-8"?>
<svg width="55px" height="60px" viewBox="0 0 55 60" version="1.1" xmlns:xlink="http://www.w3.org/1999/xlink" xmlns="http://www.w3.org/2000/svg">
  <desc>Created with Lunacy</desc>
  <g id="icon-5">
    <path d="M6.73739 57.573C8.60609 59.0052 9.98174 59.8922 11.3591 59.8913C12.4313 59.8913 13.5035 59.3539 14.8078 58.1183C16.0852 56.9104 17.9817 56.1226 19.4339 56.1974C20.1826 56.2374 20.7443 56.4913 21.153 56.9722C23.94 60.2504 26.9809 60.6243 30.4513 58.1122C31.42 57.4104 32.2035 56.6939 32.8948 56.0609C32.9569 56.0042 33.021 55.9452 33.0867 55.8849C33.7319 55.2919 34.5179 54.5695 34.8217 54.6287C34.907 54.6348 35.1496 54.7652 35.5243 55.2174C37.0296 57.04 39.0383 59.1548 41.227 59.3339C42.2209 59.4122 43.1748 59.087 43.9774 58.3861C44.633 57.8139 45.2583 57.0765 45.8626 56.3643C46.3174 55.8287 47.0235 54.9957 47.4687 54.6504C48.767 56.6113 51.7235 58.3426 53.1322 57.9443C53.7783 57.7626 54.2122 57.1974 54.2122 56.5383L54.2122 4.23913C54.2122 1.90174 52.3104 0 49.9739 0L4.23913 0C1.90174 0 0 1.90174 0 4.23913L0 56.0122C0 56.4922 0.262609 56.933 0.685217 57.1609C1.1087 57.3887 1.62174 57.3661 2.02174 57.1009C2.04614 57.0853 4.25628 55.6707 6.73739 57.573ZM4.04869 53.9643C5.30434 53.9643 6.79217 54.3286 8.32434 55.5034C11.3365 57.8121 11.4965 57.6626 13.0139 56.2252C14.8261 54.5086 17.4087 53.4799 19.5748 53.5921C21.0348 53.6712 22.2678 54.2556 23.1409 55.2826C24.7739 57.2043 26.2443 57.9391 28.9209 55.9991C29.7696 55.3843 30.4948 54.7208 31.1348 54.1356C32.4322 52.9495 33.5661 51.9295 35.0035 52.026C35.9087 52.0895 36.7365 52.5895 37.5348 53.5565C39.2156 55.5904 40.5296 56.6591 41.4391 56.7339C41.6348 56.746 41.9087 56.7286 42.2626 56.4208C42.7713 55.9765 43.3313 55.3165 43.873 54.6765L43.8751 54.6741C45.1282 53.1967 46.313 51.8 47.7817 51.9147C48.293 51.9539 49.0209 52.1965 49.5896 53.1269C50.0739 53.9182 50.9087 54.553 51.6035 54.9495L51.6035 4.23908C51.6035 3.33995 50.8722 2.60864 49.9739 2.60864L4.23912 2.60864C3.33999 2.60864 2.60869 3.33995 2.60869 4.23908L2.60869 54.1234C3.03825 54.0278 3.52347 53.9643 4.04869 53.9643ZM12.5522 31.1486C12.5522 31.8686 13.1357 32.453 13.8565 32.453C14.5765 32.453 15.1609 31.8686 15.1609 31.1486L15.1609 29.4617C15.5417 29.3869 15.9191 29.273 16.2843 29.1112C17.2591 28.6791 18.5417 27.7078 19.1113 25.5365C20.2398 21.2388 16.7088 19.8568 14.3714 18.942L14.3704 18.9417C12.1122 18.0582 11.0435 17.5078 11.0009 16.2808C10.9557 15.0008 11.4383 14.6599 11.5974 14.5478C12.8522 13.6617 16.0278 14.4712 17.3687 15.0017C18.0391 15.266 18.7957 14.9399 19.0617 14.2704C19.327 13.6017 19.0017 12.8434 18.333 12.5773C18.0626 12.4704 16.7522 11.9686 15.1617 11.7069L15.1626 9.97123C15.1626 9.25036 14.5791 8.66602 13.8591 8.66602L13.8583 8.66602C13.1383 8.66602 12.5539 9.24949 12.5539 9.96949L12.553 11.5834C11.6635 11.6686 10.807 11.9138 10.0965 12.4138C9.27739 12.9912 8.31565 14.146 8.39304 16.3721C8.50174 19.4469 11.2287 20.5138 13.42 21.3712C16.3374 22.513 17.06 23.0765 16.5887 24.8738C16.3391 25.8234 15.8948 26.4286 15.2313 26.7251C14.8417 26.8982 14.4104 26.9512 13.9217 26.9678C13.8887 26.966 13.8548 26.9651 13.8217 26.966C12.4383 26.9356 10.9148 26.3278 10.2991 26.0104C9.65913 25.6756 8.8713 25.9269 8.54 26.5651C8.20782 27.2051 8.45565 27.9921 9.09478 28.3243C9.34696 28.4556 10.793 29.1791 12.5522 29.4625L12.5522 31.1486ZM37.8304 12.3521L25.1583 12.3521C24.4374 12.3521 23.8539 11.7686 23.8539 11.0478C23.8539 10.3269 24.4374 9.74341 25.1583 9.74341L37.8304 9.74341C38.5504 9.74341 39.1348 10.3269 39.1348 11.0478C39.1348 11.7686 38.5504 12.3521 37.8304 12.3521ZM42.0435 12.3521L44.1974 12.3521C44.9174 12.3521 45.5017 11.7686 45.5017 11.0478C45.5017 10.3269 44.9174 9.74341 44.1974 9.74341L42.0435 9.74341C41.3235 9.74341 40.7391 10.3269 40.7391 11.0478C40.7391 11.7686 41.3235 12.3521 42.0435 12.3521ZM37.593 21.2625L25.3478 21.2625C24.627 21.2625 24.0435 20.6782 24.0435 19.9582C24.0435 19.2373 24.627 18.6538 25.3478 18.6538L37.593 18.6538C38.313 18.6538 38.8974 19.2373 38.8974 19.9582C38.8974 20.6782 38.313 21.2625 37.593 21.2625ZM41.3348 21.2625L44.1974 21.2625C44.9174 21.2625 45.5017 20.6782 45.5017 19.9582C45.5017 19.2373 44.9174 18.6538 44.1974 18.6538L41.3348 18.6538C40.6148 18.6538 40.0304 19.2373 40.0304 19.9582C40.0304 20.6782 40.6148 21.2625 41.3348 21.2625ZM44.1974 30.1739L24.2887 30.1739C23.5678 30.1739 22.9843 29.5895 22.9843 28.8695C22.9843 28.1487 23.5678 27.5652 24.2887 27.5652L44.1974 27.5652C44.9174 27.5652 45.5017 28.1487 45.5017 28.8695C45.5017 29.5895 44.9174 30.1739 44.1974 30.1739ZM45.067 39.0835L21.2365 39.0835C20.5157 39.0835 19.9322 38.4992 19.9322 37.7792C19.9322 37.0583 20.5157 36.4749 21.2365 36.4749L45.067 36.4749C45.787 36.4749 46.3713 37.0583 46.3713 37.7792C46.3713 38.4992 45.787 39.0835 45.067 39.0835ZM29.6026 48.8904C29.7487 48.9426 29.8974 48.9669 30.0435 48.9669C30.5783 48.9669 31.08 48.6356 31.2713 48.1035L31.4713 47.5469L32.1261 48.4365C32.3722 48.7696 32.7617 48.9669 33.1756 48.9669L33.1826 48.9669C33.5991 48.9652 33.9896 48.7643 34.2339 48.4261L35.2139 47.0669L36.1339 48.4026C36.3774 48.7565 36.7791 48.9669 37.2078 48.9669L37.2296 48.9669C37.6652 48.96 38.0687 48.7348 38.3052 48.3678L38.8617 47.5017L38.9104 47.8478C38.9617 48.1991 39.153 48.5148 39.4417 48.7226C39.7304 48.9287 40.0904 49.0122 40.44 48.9452L44.1156 48.2643C44.8235 48.1339 45.2913 47.4539 45.16 46.7443C45.0287 46.0365 44.3504 45.5661 43.64 45.7L41.3009 46.1322L40.9487 43.6669C40.8713 43.1278 40.467 42.6939 39.9348 42.5774C39.4009 42.4617 38.8539 42.6895 38.56 43.1478L37.1704 45.3087L36.313 44.0643C36.073 43.7148 35.6765 43.5052 35.253 43.5C34.84 43.4896 34.4296 43.6965 34.1809 44.0409L33.1652 45.4487L32.1191 44.0304C31.833 43.6426 31.3539 43.44 30.8809 43.513C30.4035 43.5835 30.0043 43.9104 29.8409 44.3635L28.8156 47.2217C28.573 47.9 28.9252 48.6469 29.6026 48.8904Z" id="Fill-1" fill="#FFFFFF" fill-rule="evenodd" stroke="none" />
  </g>
</svg>