<?xml version="1.0" encoding="utf-8"?>
<svg width="60px" height="60px" viewBox="0 0 37 60" version="1.1" xmlns:xlink="http://www.w3.org/1999/xlink" xmlns="http://www.w3.org/2000/svg">
  <desc>Created with Lunacy</desc>
  <g id="icon-4">
    <path d="M36 36L43 36C44.104 36.003 44.997 36.896 45 38L45 51C44.998 51.265 44.895 51.52 44.71 51.71L40 56.41L40 60L38 60L38 56C38.002 55.734 38.105 55.48 38.29 55.29L43 50.59L43 38L29 38C28.447 38 28 38.448 28 39L28 42C28 42.552 28.447 43 29 43L35 43C35.553 43 36 43.447 36 44L36 50C35.995 51.654 34.655 52.995 33 53L17 53L17 60L15 60L15 53L3 53C1.345 52.995 0.005 51.654 0 50L0 3C0.005 1.345 1.345 0.005 3 0L33 0C34.655 0.005 35.995 1.345 36 3L36 36ZM29 36L34 36L34 3C34 2.448 33.553 2 33 2L3 2C2.448 2 2 2.448 2 3L2 43L26.18 43C26.063 42.68 26.003 42.341 26 42L26 39C26.005 37.345 27.345 36.005 29 36ZM19 7.06C23.55 7.576 26.99 11.421 27 16L28 16L28 18L8 18L8 16L9 16C9.009 11.421 12.45 7.576 17 7.06L17 6L16 6C15.448 6 15 5.552 15 5C15 4.448 15.448 4 16 4L20 4C20.552 4 21 4.448 21 5C21 5.552 20.552 6 20 6L19 6L19 7.06ZM18 9C14.134 9 11 12.134 11 16L25 16C25 12.134 21.866 9 18 9ZM8 23L12 23L12 21L8 21L8 23ZM28 23L15 23L15 21L28 21L28 23ZM10 27L10 25L8 25L8 27L10 27ZM28 25L28 27L12 27L12 25L28 25ZM23.36 30.2311L22.45 30.9901C20.242 28.5681 16.488 28.3951 14.065 30.6031C11.644 32.8111 11.47 36.5651 13.678 38.9871C15.887 41.409 19.641 41.5831 22.063 39.3741C23.918 37.6821 24.509 35.0051 23.536 32.6901L24.636 31.7701L23.36 30.2311ZM22 35.0001C22.016 37.2251 20.225 39.042 18 39.0581C15.775 39.0741 13.958 37.2831 13.942 35.0581C13.926 32.833 15.717 31.0161 17.942 31.0001C19.065 30.9921 20.142 31.4531 20.91 32.2731L18.062 34.647L16.707 33.2931L15.293 34.7071L17.293 36.7071C17.658 37.0731 18.243 37.1001 18.64 36.7691L21.88 34.069C21.957 34.3741 21.997 34.6861 22 35.0001ZM34 45L34 50C34 50.552 33.553 51 33 51L3 51C2.448 51 2 50.552 2 50L2 45L34 45ZM20 49L16 49L16 47L20 47L20 49Z" id="Combined-Shape" fill="#FFFFFF" fill-rule="evenodd" stroke="none" />
  </g>
</svg>
